<?xml version="1.0" encoding="UTF-8"?>
<svg width="50px" height="50px" viewBox="0 0 50 50" version="1.1" xmlns="http://www.w3.org/2000/svg" xmlns:xlink="http://www.w3.org/1999/xlink">
    <!-- Generator: sketchtool 52.6 (67491) - http://www.bohemiancoding.com/sketch -->
    <title>Icon: Two persons in a loop of collaboration.</title>
    <g class="Mock-Up" stroke="none" stroke-width="1" fill="none" fill-rule="evenodd">
        <g class="sitediff-Mock-Up" transform="translate(-306.000000, -2200.000000)">
            <g class="Features" transform="translate(0.000000, 1803.000000)">
                <g class="Collaborative" transform="translate(306.000000, 397.000000)">
                    <path d="M13.999601,15 C13.3327926,14.9978817 12.6761328,14.8408099 12.0841979,14.5418394 C10.2106943,13.6130829 9,11.4376943 9,9.0003886 C9,5.69183938 11.2430168,3 14,3 C16.7569832,3 19,5.69183938 19,9.0003886 C19,11.4376943 17.7897047,13.6126943 15.9162011,14.5418394 C15.3238358,14.8408066 14.6667899,14.9978725 13.999601,15 Z M13.999601,4.39119171 C12.0303272,4.39119171 10.4277733,6.45893782 10.4277733,9.0007772 C10.4277733,10.890544 11.3539505,12.6198187 12.7318436,13.3029793 C13.5518755,13.7098446 14.4477255,13.7098446 15.2677574,13.3029793 C16.6456504,12.6194301 17.5714286,10.890544 17.5714286,9.0007772 C17.5714286,6.45854922 15.9708699,4.39080311 13.999601,4.39080311 L13.999601,4.39119171 Z" class="Shape" fill="#383FDA" fill-rule="nonzero"></path>
                    <path d="M22.2822846,25 L4.71811655,25 C4.32166835,25.0000001 4.00022148,24.6602617 4,24.2410201 L4,20.4872726 C4.00265304,18.0101834 5.90089288,16.0028056 8.24330659,16 L11.8996833,16 C12.0901028,16 12.2727173,16.0800219 12.4073266,16.22245 C12.5419359,16.3648782 12.6175051,16.5580367 12.6173986,16.7594042 L12.6173986,16.9456491 C12.6173726,17.2095929 12.7230266,17.461208 12.9081979,17.6381877 C13.0933693,17.8151673 13.3407429,17.9009626 13.5890625,17.8743283 C14.0339738,17.829358 14.3826014,17.3894127 14.3826014,16.8726784 L14.3826014,16.7594042 C14.3826014,16.3399968 14.7041131,16 15.1007179,16 L18.7566934,16 C21.0991071,16.0028056 22.997347,18.0101834 23,20.4872726 L23,24.2410201 C23,24.6601931 22.6786679,25 22.2822846,25 Z M5.43583193,23.4820402 L21.5633657,23.4820402 L21.5633657,20.4872726 C21.5620385,18.8477138 20.3055072,17.5189391 18.7550887,17.5175356 L15.7406039,17.5175356 C15.4946791,18.513246 14.6975296,19.2870746 13.7254645,19.3842274 C12.5742926,19.5035831 11.5161927,18.7069306 11.2461571,17.5175356 L8.24330659,17.5175356 C6.6928881,17.5189391 5.43635679,18.8477138 5.43502956,20.4872726 L5.43583193,23.4820402 Z" class="Shape" fill="#383FDA" fill-rule="nonzero"></path>
                    <path d="M35.9996009,37 C35.3327393,36.9978816 34.6760272,36.8408048 34.084045,36.5418245 C32.2103919,35.613038 31,33.4375789 31,30.9998057 C31,27.6915379 33.2431958,25 36,25 C38.7568042,25 41,27.6915379 41,30.9990285 C41,33.4368017 39.789209,35.6122608 37.9155559,36.5410473 C37.3235229,36.8403573 36.666663,36.9977032 35.9996009,37 Z M35.9996009,26.3908481 C34.03017,26.3908481 32.4278873,28.4582726 32.4278873,30.9998057 C32.4278873,32.8900223 33.3537393,34.619353 34.7317424,35.3025357 C35.5518397,35.7094142 36.4477612,35.7090256 37.2674595,35.3025357 C38.6454625,34.619353 39.5717136,32.8900223 39.5717136,30.9998057 C39.5717136,28.4582726 37.9690318,26.3908481 35.9996009,26.3908481 Z" class="Shape" fill="#383FDA" fill-rule="nonzero"></path>
                    <path d="M45.2818683,47 L27.7177305,47 C27.3213389,47 27,46.6601931 27,46.2410201 L27,42.4872726 C27.002432,40.010252 28.900597,38.002806 31.242995,38 L34.8994489,38 C35.2960621,38 35.6175806,38.3399968 35.6175806,38.7594042 L35.6175806,38.9452249 C35.6174411,39.2092426 35.7230481,39.4609717 35.9082372,39.6380455 C36.0934262,39.8151192 36.3408706,39.9009701 36.589265,39.8743283 C37.0341857,39.829358 37.3824194,39.3894127 37.3824194,38.8726784 L37.3824194,38.7594042 C37.382313,38.5580367 37.4578838,38.3648782 37.5924959,38.22245 C37.727108,38.0800219 37.9097264,38 38.1001499,38 L41.757005,38 C44.099403,38.002806 45.997568,40.010252 46,42.4872726 L46,46.2410201 C45.9997785,46.6602617 45.6783249,47.0000001 45.2818683,47 Z M28.4358622,45.4833129 L44.5637366,45.4833129 L44.5637366,42.4889695 C44.5626302,40.849314 43.3059431,39.5204025 41.7554002,39.5192326 L38.7396482,39.5192326 C38.4941194,40.514943 37.6965519,41.2883473 36.7256699,41.3859244 C35.5746175,41.5047098 34.516814,40.7082973 34.2463101,39.5192326 L31.242995,39.5192326 C29.6919937,39.5192326 28.4346587,40.8488291 28.4346587,42.4889695 L28.4358622,45.4833129 Z" class="Shape" fill="#383FDA" fill-rule="nonzero"></path>
                    <path d="M49.2838271,50 L0.716172938,50 C0.320641546,50 0,49.6793585 0,49.2838271 L0,0.716172938 C-1.42222325e-16,0.320641546 0.320641546,7.11111625e-17 0.716172938,0 L37.1196958,0.0264211369 C37.3095998,0.0264211072 37.4917201,0.101887599 37.625965,0.236207598 C37.7602099,0.370527597 37.8355746,0.552690023 37.8354684,0.742594075 L37.8354684,12.1917534 L49.2846277,12.1917534 C49.679378,12.1921942 49.9993383,12.5119754 50,12.9067254 L50,49.2838271 C50,49.6793585 49.6793585,50 49.2838271,50 Z M1.4327462,48.5672538 L48.5672538,48.5672538 L48.5672538,13.6232986 L37.1180945,13.6232986 C36.722342,13.6232986 36.4015212,13.3024779 36.4015212,12.9067254 L36.4015212,1.45756605 L1.4327462,1.43314652 L1.4327462,48.5672538 Z" class="Shape" fill="#363636" fill-rule="nonzero"></path>
                    <path d="M49.2627458,14 L36.7378268,14 C36.3303363,14 36,13.6696637 36,13.2621732 L36,0.73725418 C36.0002401,0.439015737 36.180003,0.170250297 36.4555529,0.0561518715 C36.7311029,-0.0579465538 37.0482454,0.00506265847 37.2592519,0.215829098 L49.7841709,12.7407481 C49.9949373,12.9517546 50.0579466,13.2688971 49.9438481,13.5444471 C49.8297497,13.819997 49.5609843,13.9997599 49.2627458,14 Z M37.4740048,12.5247586 L47.4808323,12.5247586 L37.4752414,2.51793114 L37.4740048,12.5247586 Z" class="Shape" fill="#363636" fill-rule="nonzero"></path>
                    <path d="M24.2874317,40 L15.7298171,40 C15.3267502,40 15,39.6903163 15,39.3083022 L15,26.67535 C15.0093674,26.2998101 15.3332667,26 15.7296132,26 C16.1259597,26 16.449859,26.2998101 16.4592264,26.67535 L16.4592264,38.6158316 L24.2874317,38.6158316 C24.6836675,38.6247097 25,38.9316913 25,39.3073361 C25,39.682981 24.6836675,39.9899626 24.2874317,39.9988407 L24.2874317,40 Z" class="Path" fill="#363636"></path>
                    <polygon class="Path" fill="#363636" points="21 37 23.1641858 39.5 21 42 22.8368839 42 25 39.5 22.8368839 37"></polygon>
                    <path d="M36.2658101,24 C35.8601016,24 35.5312098,23.6855735 35.5312098,23.2977087 L35.5312098,20.4041902 L26.7172384,20.4041902 C26.3184057,20.3951761 26,20.083493 26,19.7020951 C26,19.3206972 26.3184057,19.0090141 26.7172384,19 L36.2658101,19 C36.6712919,19 36.9999999,19.3142509 36.9999999,19.7018989 L36.9999999,23.2977087 C37.0001088,23.4839319 36.9228049,23.6625634 36.7851058,23.7942799 C36.6474067,23.9259963 36.4606004,24 36.2658101,24 Z" class="Path" fill="#363636"></path>
                    <polygon class="Path" fill="#363636" points="29 22 26.8354577 19.499794 29 17 27.1631161 17 25 19.499794 27.1631161 22"></polygon>
                </g>
            </g>
        </g>
    </g>
</svg>