<?xml version="1.0" encoding="UTF-8"?>
<svg width="340px" height="463px" viewBox="0 0 340 463" version="1.1" xmlns="http://www.w3.org/2000/svg" xmlns:xlink="http://www.w3.org/1999/xlink">
    <!-- Generator: sketchtool 52.6 (67491) - http://www.bohemiancoding.com/sketch -->
    <title>Image: Computer</title>
    <desc>Created with sketchtool.</desc>
    <defs>
        <linearGradient x1="13.0668572%" y1="2.20681638%" x2="100%" y2="92.1704389%" id="linearGradient-1">
            <stop stop-color="#E9ECF3" offset="0%"></stop>
            <stop stop-color="#D1D6E3" offset="100%"></stop>
        </linearGradient>
        <linearGradient x1="13.0668572%" y1="2.20681638%" x2="47.6961191%" y2="93.8996839%" id="linearGradient-2">
            <stop stop-color="#F9F9FB" offset="0%"></stop>
            <stop stop-color="#F0F1F5" offset="100%"></stop>
        </linearGradient>
        <linearGradient x1="13.0668572%" y1="2.20681638%" x2="47.8887529%" y2="94.4097479%" id="linearGradient-3">
            <stop stop-color="#F9F9FB" offset="0%"></stop>
            <stop stop-color="#F0F1F5" offset="99.4468027%"></stop>
        </linearGradient>
        <linearGradient x1="95.379255%" y1="40.7659091%" x2="-5.08702633%" y2="61.1977273%" id="linearGradient-4">
            <stop stop-color="#CCC6FF" offset="1%"></stop>
            <stop stop-color="#E2D8F6" offset="100%"></stop>
        </linearGradient>
        <linearGradient x1="13.0668572%" y1="2.20681638%" x2="47.8887529%" y2="94.4097479%" id="linearGradient-5">
            <stop stop-color="#F3F4F8" offset="0%"></stop>
            <stop stop-color="#E9ECF3" offset="100%"></stop>
        </linearGradient>
        <linearGradient x1="-1661.99134%" y1="-61.4766449%" x2="-1561.99134%" y2="-61.4766449%" id="linearGradient-6">
            <stop stop-color="#E2D8F6" offset="0%"></stop>
            <stop stop-color="#CCC6FF" offset="99%"></stop>
        </linearGradient>
        <linearGradient x1="13.0668572%" y1="2.20681638%" x2="46.5334179%" y2="90.8210329%" id="linearGradient-7">
            <stop stop-color="#FFFFFF" offset="0%"></stop>
            <stop stop-color="#F9F9FB" offset="100%"></stop>
        </linearGradient>
        <linearGradient x1="0%" y1="40.6838154%" x2="9.37966992%" y2="97.652074%" id="linearGradient-8">
            <stop stop-color="#FFFFFF" offset="0%"></stop>
            <stop stop-color="#D1D6E3" offset="100%"></stop>
        </linearGradient>
        <linearGradient x1="-269.350682%" y1="68.4011916%" x2="-169.351023%" y2="68.4011916%" id="linearGradient-9">
            <stop stop-color="#E2D8F6" offset="0%"></stop>
            <stop stop-color="#CCC6FF" offset="99%"></stop>
        </linearGradient>
    </defs>
    <g id="Mock-Up" stroke="none" stroke-width="1" fill="none" fill-rule="evenodd">
        <g id="sitediff-Mock-Up" transform="translate(-222.000000, -1275.000000)">
            <g id="#3" transform="translate(0.000000, 1242.000000)">
                <g id="computerleft-mod-illu" transform="translate(222.000000, 33.000000)">
                    <g id="computerleft-mod">
                        <path d="M219.22,434.85 L336.77,367 C340.42,364.89 339.96,361.22 335.77,358.79 L285.38,329.69 C281.17,327.26 274.81,327 271.16,329.11 L153.59,397 C149.94,399.11 150.4,402.78 154.59,405.21 L205,434.26 C209.21,436.69 215.58,437 219.22,434.85 Z" id="Path" fill="#B7BBC8"></path>
                        <path d="M150.13,393.41 L153.59,393.2 L270.14,325.91 C273.79,323.81 280.14,324.07 284.36,326.5 L334.75,355.59 C335.49106,356.027063 336.164751,356.569384 336.75,357.2 L338.19,356.46 L338.19,360.2 C338.138039,361.771352 337.200494,363.17767 335.77,363.83 L218.22,431.67 C214.58,433.77 208.22,433.51 204,431.08 L153.61,402 C151.31,400.67 150.17,399 150.17,397.35 L150.13,393.41 Z" id="Path" fill="url(#linearGradient-1)"></path>
                        <path d="M218.22,427.85 L335.77,360 C339.42,357.89 338.96,354.22 334.77,351.79 L284.38,322.69 C280.17,320.26 273.81,320 270.16,322.11 L152.59,390 C148.94,392.11 149.4,395.78 153.59,398.21 L204,427.26 C208.21,429.69 214.58,430 218.22,427.85 Z" id="Path" fill="url(#linearGradient-2)"></path>
                        <path d="M282.31,327.41 L275.22,331.5 C274.958676,331.630305 274.651324,331.630305 274.39,331.5 L271.99,330.11 C271.75,329.97 271.73,329.76 271.94,329.64 L279.03,325.54 C279.287846,325.409872 279.592154,325.409872 279.85,325.54 L282.25,326.92 C282.49,327.07 282.52,327.29 282.31,327.41 Z" id="Path" fill="#7D84A1"></path>
                        <path d="M273.65,332.41 L266.55,336.5 C266.292154,336.630128 265.987846,336.630128 265.73,336.5 L263.33,335.11 C263.09,334.97 263.06,334.76 263.27,334.64 L270.36,330.54 C270.621324,330.409695 270.928676,330.409695 271.19,330.54 L273.59,331.92 C273.83,332.07 273.86,332.29 273.65,332.41 Z" id="Path" fill="#7D84A1"></path>
                        <path d="M265,337.41 L257.91,341.5 C257.652154,341.630128 257.347846,341.630128 257.09,341.5 L254.69,340.11 C254.45,339.97 254.42,339.76 254.63,339.64 L261.72,335.54 C261.981324,335.409695 262.288676,335.409695 262.55,335.54 L264.94,336.92 C265.17,337.07 265.19,337.29 265,337.41 Z" id="Path" fill="#7D84A1"></path>
                        <path d="M256.32,342.41 L249.23,346.5 C248.972154,346.630128 248.667846,346.630128 248.41,346.5 L246.01,345.12 C245.77,344.97 245.74,344.76 245.95,344.64 L253.04,340.55 C253.301324,340.419695 253.608676,340.419695 253.87,340.55 L256.26,341.93 C256.51,342.07 256.53,342.29 256.32,342.41 Z" id="Path" fill="#7D84A1"></path>
                        <path d="M247.66,347.41 L240.57,351.5 C240.312154,351.630128 240.007846,351.630128 239.75,351.5 L237.35,350.12 C237.11,349.98 237.08,349.76 237.29,349.64 L244.38,345.55 C244.635263,345.409441 244.944737,345.409441 245.2,345.55 L247.6,346.93 C247.84,347.07 247.87,347.29 247.66,347.41 Z" id="Path" fill="#7D84A1"></path>
                        <path d="M239,352.41 L231.91,356.51 C231.648676,356.640305 231.341324,356.640305 231.08,356.51 L228.69,355.13 C228.44,354.99 228.42,354.77 228.63,354.65 L235.72,350.56 C235.977846,350.429872 236.282154,350.429872 236.54,350.56 L238.94,351.95 C239.18,352.08 239.21,352.29 239,352.41 Z" id="Path" fill="#7D84A1"></path>
                        <path d="M230.34,357.41 L223.25,361.51 C222.988676,361.640305 222.681324,361.640305 222.42,361.51 L220.02,360.13 C219.78,359.99 219.76,359.77 220.02,359.65 L227.11,355.56 C227.367846,355.429872 227.672154,355.429872 227.93,355.56 L230.33,356.95 C230.52,357.08 230.55,357.29 230.34,357.41 Z" id="Path" fill="#7D84A1"></path>
                        <path d="M221.68,362.41 L214.58,366.51 C214.322154,366.640128 214.017846,366.640128 213.76,366.51 L211.36,365.13 C211.12,364.99 211.09,364.77 211.3,364.65 L218.39,360.56 C218.651324,360.429695 218.958676,360.429695 219.22,360.56 L221.62,361.95 C221.86,362.08 221.89,362.29 221.68,362.41 Z" id="Path" fill="#7D84A1"></path>
                        <path d="M213,367.41 L205.91,371.51 C205.652154,371.640128 205.347846,371.640128 205.09,371.51 L202.69,370.13 C202.45,369.99 202.42,369.77 202.63,369.65 L209.72,365.56 C209.981324,365.429695 210.288676,365.429695 210.55,365.56 L212.94,366.95 C213.2,367.08 213.22,367.29 213,367.41 Z" id="Path" fill="#7D84A1"></path>
                        <path d="M204.35,372.41 L197.26,376.51 C197.002154,376.640128 196.697846,376.640128 196.44,376.51 L194.04,375.13 C193.8,374.99 193.77,374.78 193.98,374.65 L201.07,370.56 C201.331324,370.429695 201.638676,370.429695 201.9,370.56 L204.29,371.95 C204.54,372.08 204.56,372.29 204.35,372.41 Z" id="Path" fill="#7D84A1"></path>
                        <path d="M195.69,377.42 L188.6,381.51 C188.342154,381.640128 188.037846,381.640128 187.78,381.51 L185.38,380.12 C185.14,379.98 185.11,379.77 185.32,379.65 L192.41,375.55 C192.667846,375.419872 192.972154,375.419872 193.23,375.55 L195.63,376.93 C195.87,377.08 195.9,377.29 195.69,377.42 Z" id="Path" fill="#7D84A1"></path>
                        <path d="M187,382.42 L179.91,386.51 C179.648676,386.640305 179.341324,386.640305 179.08,386.51 L176.69,385.12 C176.44,384.98 176.42,384.77 176.63,384.65 L183.72,380.55 C183.977846,380.419872 184.282154,380.419872 184.54,380.55 L186.94,381.93 C187.21,382.08 187.24,382.29 187,382.42 Z" id="Path" fill="#7D84A1"></path>
                        <path d="M178.37,387.42 L171.28,391.51 C171.018676,391.640305 170.711324,391.640305 170.45,391.51 L168.05,390.12 C167.81,389.98 167.79,389.77 168,389.65 L175.09,385.55 C175.347846,385.419872 175.652154,385.419872 175.91,385.55 L178.31,386.93 C178.55,387.08 178.58,387.3 178.37,387.42 Z" id="Path" fill="#7D84A1"></path>
                        <path d="M159.33,394.62 L166.42,390.52 C166.681324,390.389695 166.988676,390.389695 167.25,390.52 L169.65,391.9 C169.89,392.04 169.92,392.26 169.71,392.38 L162.61,396.47 C162.352154,396.600128 162.047846,396.600128 161.79,396.47 L159.39,395.08 C159.15,395 159.12,394.74 159.33,394.62 Z" id="Path" fill="#7D84A1"></path>
                        <path d="M220.69,410 L227.78,405.9 C228.041324,405.769695 228.348676,405.769695 228.61,405.9 L231,407.28 C231.25,407.42 231.27,407.64 231.06,407.76 L224,411.93 C223.742154,412.060128 223.437846,412.060128 223.18,411.93 L220.78,410.54 C220.51,410.37 220.48,410.2 220.69,410 Z" id="Path" fill="#7D84A1"></path>
                        <path d="M211.85,415.14 L218.94,411.05 C219.201324,410.919695 219.508676,410.919695 219.77,411.05 L222.16,412.44 C222.41,412.58 222.43,412.79 222.22,412.91 L215.13,417.01 C214.872154,417.140128 214.567846,417.140128 214.31,417.01 L211.91,415.63 C211.67,415.48 211.64,415.26 211.85,415.14 Z" id="Path" fill="#7D84A1"></path>
                        <path d="M218.75,410.94 L211.66,415 C211.402154,415.130128 211.097846,415.130128 210.84,415 L208.44,413.61 C208.19,413.47 208.17,413.26 208.38,413.14 L215.47,409.04 C215.727846,408.909872 216.032154,408.909872 216.29,409.04 L218.69,410.42 C218.93,410.6 219,410.82 218.75,410.94 Z" id="Path" fill="#7D84A1"></path>
                        <path d="M203,420.2 L210.1,416.2 C210.361324,416.069695 210.668676,416.069695 210.93,416.2 L213.33,417.59 C213.57,417.73 213.6,417.94 213.39,418.06 L206.29,422.16 C206.032154,422.290128 205.727846,422.290128 205.47,422.16 L203.07,420.78 C202.83,420.58 202.8,420.37 203,420.2 Z" id="Path" fill="#7D84A1"></path>
                        <path d="M291.08,332.62 L285.16,336 C284.809585,336.170252 284.400415,336.170252 284.05,336 L278.29,332.68 C277.97,332.49 277.93,332.2 278.21,332.04 L284.13,328.62 C284.480415,328.449748 284.889585,328.449748 285.24,328.62 L291,332 C291.33,332.2 291.36,332.46 291.08,332.62 Z" id="Path" fill="#7D84A1"></path>
                        <path d="M269.75,336.91 L275.67,333.5 C276.018176,333.320279 276.431824,333.320279 276.78,333.5 L282.54,336.83 C282.87,337.02 282.9,337.3 282.62,337.47 L276.7,340.89 C276.342819,341.049315 275.931411,341.030783 275.59,340.84 L269.83,337.51 C269.51,337.37 269.47,337.08 269.75,336.91 Z" id="Path" fill="#7D84A1"></path>
                        <path d="M300,337.76 L296.47,339.76 L290.53,343.2 C290.183039,343.370004 289.776961,343.370004 289.43,343.2 L283.67,339.88 C283.34,339.69 283.31,339.4 283.59,339.24 L285.4,338.24 L287.67,336.93 L289.51,335.87 L289.66,335.78 L293.03,333.83 C293.379343,333.655149 293.790657,333.655149 294.14,333.83 L299.9,337.15 C300.23,337.31 300.26,337.6 300,337.76 Z" id="Path" fill="#7D84A1"></path>
                        <path d="M308.88,342.9 L303,346.32 L298.61,348.85 L297.71,349.37 C297.361824,349.549721 296.948176,349.549721 296.6,349.37 L290.84,346 C290.51,345.81 290.48,345.53 290.76,345.36 L292.51,344.36 L296.05,342.36 L302,339 C302.345862,338.82532 302.754138,338.82532 303.1,339 L308.86,342.32 C309.13,342.45 309.17,342.74 308.88,342.9 Z" id="Path" fill="#7D84A1"></path>
                        <path d="M317.79,348 L311.87,351.42 L309.33,352.89 L303.41,356.31 L303.03,356.52 C302.681824,356.699721 302.268176,356.699721 301.92,356.52 L296.16,353.16 C295.84,352.97 295.8,352.69 296.08,352.52 L296.46,352.3 L302.38,348.89 L304.92,347.42 L310.84,344 C311.189343,343.825149 311.600657,343.825149 311.95,344 L317.71,347.32 C318,347.59 318.07,347.88 317.79,348 Z" id="Path" fill="#7D84A1"></path>
                        <path d="M314.57,352.2 L319.77,349.2 C320.099168,349.029222 320.490832,349.029222 320.82,349.2 L326.64,352.56 C326.95,352.74 326.99,353.01 326.72,353.17 L321.51,356.17 C321.193458,356.319626 320.826542,356.319626 320.51,356.17 L314.68,352.8 C314.33,352.59 314.3,352.31 314.57,352.2 Z" id="Path" fill="#7D84A1"></path>
                        <path d="M307.05,356.5 L312.25,353.5 C312.579168,353.329222 312.970832,353.329222 313.3,353.5 L319.13,356.86 C319.43,357.04 319.47,357.31 319.2,357.47 L314,360.47 C313.670832,360.640778 313.279168,360.640778 312.95,360.47 L307.12,357.1 C306.82,356.93 306.78,356.66 307.05,356.5 Z" id="Path" fill="#7D84A1"></path>
                        <path d="M298,361.74 L303.92,358.32 C304.273763,358.160837 304.682135,358.1794 305.02,358.37 L310.78,361.69 C311.11,361.88 311.14,362.17 310.86,362.33 L304.94,365.75 C304.586237,365.909163 304.177865,365.8906 303.84,365.7 L298.08,362.38 C297.73,362.2 297.69,361.9 298,361.74 Z" id="Path" fill="#7D84A1"></path>
                        <path d="M287.69,367.68 L288.87,367 L294.79,363.59 C295.138176,363.410279 295.551824,363.410279 295.9,363.59 L301.66,366.92 C301.99,367.11 302.02,367.4 301.74,367.56 L295.82,371 L294.63,371.68 C294.283039,371.850004 293.876961,371.850004 293.53,371.68 L287.77,368.35 C287.44,368.13 287.4,367.84 287.69,367.68 Z" id="Path" fill="#7D84A1"></path>
                        <path d="M261.29,341.8 L267.21,338.38 C267.567181,338.220685 267.978589,338.239217 268.32,338.43 L274.08,341.75 C274.41,341.94 274.44,342.23 274.16,342.39 L268.24,345.81 C267.882819,345.969315 267.471411,345.950783 267.13,345.76 L261.37,342.44 C261.05,342.25 261,342 261.29,341.8 Z" id="Path" fill="#7D84A1"></path>
                        <path d="M252.83,346.68 L258.75,343.27 C259.098176,343.090279 259.511824,343.090279 259.86,343.27 L265.62,346.6 C265.95,346.79 265.98,347.07 265.7,347.24 L259.78,350.65 C259.431824,350.829721 259.018176,350.829721 258.67,350.65 L252.91,347.32 C252.59,347.13 252.55,346.85 252.83,346.68 Z" id="Path" fill="#7D84A1"></path>
                        <path d="M244.37,351.57 L250.29,348.15 C250.647181,347.990685 251.058589,348.009217 251.4,348.2 L257.16,351.52 C257.48,351.71 257.52,352 257.24,352.16 L251.32,355.58 C250.962819,355.739315 250.551411,355.720783 250.21,355.53 L244.45,352.2 C244.12,352 244.09,351.73 244.37,351.57 Z" id="Path" fill="#7D84A1"></path>
                        <path d="M235.91,356.45 L241.83,353.03 C242.187181,352.870685 242.598589,352.889217 242.94,353.08 L248.7,356.41 C249.02,356.59 249.06,356.88 248.78,357.05 L242.86,360.46 C242.511824,360.639721 242.098176,360.639721 241.75,360.46 L236,357.09 C235.66,356.9 235.63,356.62 235.91,356.45 Z" id="Path" fill="#7D84A1"></path>
                        <path d="M227.45,361.34 L233.37,357.92 C233.720415,357.749748 234.129585,357.749748 234.48,357.92 L240.24,361.24 C240.56,361.43 240.6,361.72 240.32,361.88 L234.4,365.3 C234.049585,365.470252 233.640415,365.470252 233.29,365.3 L227.53,362 C227.2,361.79 227.17,361.5 227.45,361.34 Z" id="Path" fill="#7D84A1"></path>
                        <path d="M219,366.2 L224.92,362.78 C225.270415,362.609748 225.679585,362.609748 226.03,362.78 L231.79,366.11 C232.11,366.29 232.15,366.58 231.87,366.74 L225.94,370.2 C225.589585,370.370252 225.180415,370.370252 224.83,370.2 L219.07,366.87 C218.74,366.67 218.71,366.38 219,366.2 Z" id="Path" fill="#7D84A1"></path>
                        <path d="M210.53,371.11 L216.45,367.69 C216.800415,367.519748 217.209585,367.519748 217.56,367.69 L223.32,371.02 C223.64,371.21 223.68,371.5 223.4,371.66 L217.48,375.08 C217.122819,375.239315 216.711411,375.220783 216.37,375.03 L210.61,371.71 C210.28,371.56 210.25,371.27 210.53,371.11 Z" id="Path" fill="#7D84A1"></path>
                        <path d="M202.07,376 L207.99,372.58 C208.347181,372.420685 208.758589,372.439217 209.1,372.63 L214.86,375.95 C215.18,376.14 215.22,376.43 214.94,376.59 L209,380 C208.649585,380.170252 208.240415,380.170252 207.89,380 L202.13,376.67 C201.82,376.44 201.79,376.2 202.07,376 Z" id="Path" fill="#7D84A1"></path>
                        <path d="M193.61,380.88 L199.53,377.46 C199.880415,377.289748 200.289585,377.289748 200.64,377.46 L206.4,380.79 C206.72,380.98 206.76,381.27 206.48,381.43 L200.56,384.85 C200.202819,385.009315 199.791411,384.990783 199.45,384.8 L193.69,381.47 C193.36,381.33 193.33,381 193.61,380.88 Z" id="Path" fill="#7D84A1"></path>
                        <path d="M198,386.35 L192.08,389.77 C191.730657,389.944851 191.319343,389.944851 190.97,389.77 L185.21,386.45 C184.88,386.26 184.85,385.97 185.13,385.81 L191.05,382.39 C191.407181,382.230685 191.818589,382.249217 192.16,382.44 L197.92,385.76 C198.26,385.9 198.3,386.2 198,386.35 Z" id="Path" fill="#7D84A1"></path>
                        <path d="M300.11,358.25 L294.19,361.67 C293.832819,361.829315 293.421411,361.810783 293.08,361.62 L287.32,358.3 C287,358.11 286.96,357.82 287.24,357.66 L293.16,354.24 C293.510415,354.069748 293.919585,354.069748 294.27,354.24 L300.03,357.57 C300.36,357.8 300.39,358.09 300.11,358.25 Z" id="Path" fill="#7D84A1"></path>
                        <path d="M291.65,363.13 L285.73,366.55 C285.379585,366.720252 284.970415,366.720252 284.62,366.55 L278.86,363.2 C278.54,363.01 278.5,362.72 278.78,362.56 L284.7,359.14 C285.057181,358.980685 285.468589,358.999217 285.81,359.19 L291.57,362.51 C291.9,362.68 291.93,363 291.65,363.13 Z" id="Path" fill="#7D84A1"></path>
                        <path d="M283.19,368 L277.27,371.42 C276.912819,371.579315 276.501411,371.560783 276.16,371.37 L270.4,368.04 C270.08,367.86 270.04,367.57 270.32,367.4 L276.24,363.99 C276.588176,363.810279 277.001824,363.810279 277.35,363.99 L283.11,367.32 C283.44,367.57 283.47,367.85 283.19,368 Z" id="Path" fill="#7D84A1"></path>
                        <path d="M274.73,372.9 L268.81,376.32 C268.452819,376.479315 268.041411,376.460783 267.7,376.27 L261.94,373 C261.62,372.81 261.58,372.52 261.86,372.36 L267.78,368.94 C268.137181,368.780685 268.548589,368.799217 268.89,368.99 L274.65,372.31 C275,372.45 275,372.74 274.73,372.9 Z" id="Path" fill="#7D84A1"></path>
                        <path d="M266.27,377.79 L260.35,381.2 C260.001824,381.379721 259.588176,381.379721 259.24,381.2 L253.48,377.87 C253.16,377.68 253.12,377.4 253.4,377.23 L259.32,373.82 C259.668176,373.640279 260.081824,373.640279 260.43,373.82 L266.19,377.15 C266.52,377.34 266.55,377.62 266.27,377.79 Z" id="Path" fill="#7D84A1"></path>
                        <path d="M257.81,382.67 L251.89,386.09 C251.540657,386.264851 251.129343,386.264851 250.78,386.09 L245,382.72 C244.68,382.53 244.64,382.24 244.92,382.08 L250.84,378.66 C251.189343,378.485149 251.600657,378.485149 251.95,378.66 L257.71,381.98 C258.06,382.2 258.09,382.51 257.81,382.67 Z" id="Path" fill="#7D84A1"></path>
                        <path d="M249.35,387.56 L243.43,391 C243.081824,391.179721 242.668176,391.179721 242.32,391 L236.56,387.67 C236.24,387.48 236.2,387.2 236.48,387.03 L242.4,383.62 C242.748176,383.440279 243.161824,383.440279 243.51,383.62 L249.27,386.95 C249.6,387.11 249.63,387.39 249.35,387.56 Z" id="Path" fill="#7D84A1"></path>
                        <path d="M245.39,392.1 L251.3,388.69 L253.85,387.22 L259.76,383.8 L263.7,381.53 L268.23,378.92 L272.05,376.71 L274.7,375.2 L280.62,371.78 L285.15,369.17 C285.494665,368.990363 285.905335,368.990363 286.25,369.17 L292,372.5 C292.33,372.69 292.37,372.97 292.08,373.14 L287.55,375.75 L281.63,379.2 L279,380.72 L273.08,384.14 L269.25,386.34 L266.71,387.81 L266.42,387.98 L264.72,388.98 L260.79,391.2 L258.25,392.67 L252.33,396.08 C251.985335,396.259637 251.574665,396.259637 251.23,396.08 L245.46,392.75 C245.14,392.55 245.1,392.27 245.39,392.1 Z" id="Path" fill="#7D84A1"></path>
                        <path d="M240.89,392.44 L235,395.86 C234.642819,396.019315 234.231411,396.000783 233.89,395.81 L228.13,392.49 C227.81,392.3 227.77,392.01 228.05,391.85 L233.97,388.43 C234.320415,388.259748 234.729585,388.259748 235.08,388.43 L240.84,391.75 C241.14,392 241.17,392.28 240.89,392.44 Z" id="Path" fill="#7D84A1"></path>
                        <path d="M235,397.75 L240.91,394.33 L242.53,393.4 C242.883763,393.240837 243.292135,393.2594 243.63,393.45 L249.39,396.78 C249.72,396.96 249.76,397.25 249.47,397.41 L247.86,398.34 L242,401.76 C241.653039,401.930004 241.246961,401.930004 240.9,401.76 L235.13,398.43 C234.78,398.2 234.74,397.91 235,397.75 Z" id="Path" fill="#7D84A1"></path>
                        <path d="M226.35,402.76 L232.27,399.34 C232.623763,399.180837 233.032135,399.1994 233.37,399.39 L239.13,402.72 C239.46,402.9 239.5,403.19 239.21,403.35 L233.29,406.77 C232.945335,406.949637 232.534665,406.949637 232.19,406.77 L226.43,403.44 C226.1,403.2 226.06,402.92 226.35,402.76 Z" id="Path" fill="#7D84A1"></path>
                        <path d="M232.43,397.33 L226.51,400.74 C226.161824,400.919721 225.748176,400.919721 225.4,400.74 L219.64,397.41 C219.32,397.22 219.28,396.94 219.56,396.77 L225.48,393.35 C225.829343,393.175149 226.240657,393.175149 226.59,393.35 L232.35,396.68 C232.68,396.87 232.71,397.2 232.43,397.33 Z" id="Path" fill="#7D84A1"></path>
                        <path d="M211.1,401.62 L217,398.2 C217.350415,398.029748 217.759585,398.029748 218.11,398.2 L223.87,401.53 C224.19,401.72 224.23,402.01 223.95,402.17 L218,405.59 C217.642819,405.749315 217.231411,405.730783 216.89,405.54 L211.13,402.22 C210.85,402.07 210.82,401.78 211.1,401.62 Z" id="Path" fill="#7D84A1"></path>
                        <path d="M191.16,413.13 L194.16,411.39 L198.09,409.12 L204,405.7 L208.53,403.08 C208.879343,402.905149 209.290657,402.905149 209.64,403.08 L215.4,406.41 C215.72,406.59 215.76,406.88 215.48,407.04 L209.56,410.46 L205,413.13 L204,413.72 L198.08,417.14 C197.730657,417.314851 197.319343,417.314851 196.97,417.14 L191.21,413.82 C190.92,413.58 190.88,413.29 191.16,413.13 Z" id="Path" fill="#7D84A1"></path>
                        <path d="M176.69,390.64 L182.61,387.23 C182.958176,387.050279 183.371824,387.050279 183.72,387.23 L189.48,390.56 C189.8,390.75 189.84,391.03 189.56,391.2 L183.64,394.61 C183.291824,394.789721 182.878176,394.789721 182.53,394.61 L176.77,391.28 C176.44,391.09 176.41,390.81 176.69,390.64 Z" id="Path" fill="#7D84A1"></path>
                        <path d="M289.3,346.87 L295.06,350.2 C295.38,350.39 295.42,350.68 295.14,350.84 L289.22,354.26 C288.862819,354.419315 288.451411,354.400783 288.11,354.21 L282.35,350.89 C282.02,350.7 281.99,350.41 282.27,350.25 L288.19,346.83 C288.546526,346.672252 288.955753,346.686999 289.3,346.87 Z" id="Path" fill="#7D84A1"></path>
                        <path d="M280.84,351.76 L286.6,355.09 C286.92,355.27 286.96,355.56 286.68,355.72 L280.76,359.14 C280.409585,359.310252 280.000415,359.310252 279.65,359.14 L273.89,355.81 C273.56,355.62 273.53,355.33 273.81,355.17 L279.73,351.75 C280.080916,351.578289 280.492234,351.581994 280.84,351.76 Z" id="Path" fill="#7D84A1"></path>
                        <path d="M278.22,360.61 L272.3,364 C271.950657,364.174851 271.539343,364.174851 271.19,364 L265.43,360.67 C265.1,360.49 265.07,360.2 265.35,360.04 L271.27,356.62 C271.620415,356.449748 272.029585,356.449748 272.38,356.62 L278.14,359.95 C278.46,360.2 278.5,360.45 278.22,360.61 Z" id="Path" fill="#7D84A1"></path>
                        <path d="M269.76,365.49 L263.84,368.91 C263.489585,369.080252 263.080415,369.080252 262.73,368.91 L257,365.54 C256.67,365.35 256.64,365.06 256.92,364.9 L262.84,361.48 C263.189343,361.305149 263.600657,361.305149 263.95,361.48 L269.71,364.8 C270,365 270,365.33 269.76,365.49 Z" id="Path" fill="#7D84A1"></path>
                        <path d="M261.3,370.38 L255.38,373.8 C255.022819,373.959315 254.611411,373.940783 254.27,373.75 L248.51,370.42 C248.18,370.24 248.15,369.95 248.43,369.78 L254.35,366.37 C254.698176,366.190279 255.111824,366.190279 255.46,366.37 L261.22,369.7 C261.54,369.93 261.58,370.2 261.3,370.38 Z" id="Path" fill="#7D84A1"></path>
                        <path d="M252.84,375.26 L246.92,378.68 C246.562819,378.839315 246.151411,378.820783 245.81,378.63 L240.05,375.31 C239.72,375.12 239.69,374.83 239.97,374.67 L245.89,371.25 C246.247181,371.090685 246.658589,371.109217 247,371.3 L252.76,374.62 C253.08,374.81 253.12,375.1 252.84,375.26 Z" id="Path" fill="#7D84A1"></path>
                        <path d="M244.38,380.2 L238.46,383.61 C238.111824,383.789721 237.698176,383.789721 237.35,383.61 L231.59,380.2 C231.26,380.01 231.23,379.73 231.51,379.56 L237.43,376.15 C237.778176,375.970279 238.191824,375.970279 238.54,376.15 L244.3,379.48 C244.62,379.7 244.66,380 244.38,380.2 Z" id="Path" fill="#7D84A1"></path>
                        <path d="M235.92,385 L230,388.45 C229.642819,388.609315 229.231411,388.590783 228.89,388.4 L223.13,385.08 C222.8,384.89 222.77,384.6 223.05,384.44 L229,381 C229.357181,380.840685 229.768589,380.859217 230.11,381.05 L235.87,384.37 C236.16,384.58 236.2,384.87 235.92,385 Z" id="Path" fill="#7D84A1"></path>
                        <path d="M227.46,389.92 L221.54,393.33 C221.191824,393.509721 220.778176,393.509721 220.43,393.33 L214.67,390 C214.34,389.81 214.31,389.53 214.59,389.36 L220.51,385.95 C220.858176,385.770279 221.271824,385.770279 221.62,385.95 L227.38,389.28 C227.7,389.47 227.74,389.75 227.46,389.92 Z" id="Path" fill="#7D84A1"></path>
                        <path d="M206.13,394.2 L212.05,390.78 C212.407181,390.620685 212.818589,390.639217 213.16,390.83 L218.92,394.15 C219.24,394.34 219.28,394.63 219,394.79 L213.08,398.2 C212.729585,398.370252 212.320415,398.370252 211.97,398.2 L206.21,394.88 C205.88,394.66 205.85,394.37 206.13,394.2 Z" id="Path" fill="#7D84A1"></path>
                        <path d="M210.54,399.68 L204.62,403.1 C204.271824,403.279721 203.858176,403.279721 203.51,403.1 L197.75,399.77 C197.42,399.58 197.39,399.29 197.67,399.13 L203.59,395.71 C203.940415,395.539748 204.349585,395.539748 204.7,395.71 L210.46,399.04 C210.78,399.2 210.82,399.52 210.54,399.68 Z" id="Path" fill="#7D84A1"></path>
                        <path d="M182.26,408 L184.91,406.47 L190.83,403.05 L195.13,400.57 C195.480415,400.399748 195.889585,400.399748 196.24,400.57 L202,403.9 C202.32,404.09 202.36,404.38 202.08,404.54 L197.77,407 L191.85,410.42 L189.21,412 C188.852819,412.159315 188.441411,412.140783 188.1,411.95 L182.34,408.63 C182,408.44 182,408.2 182.26,408 Z" id="Path" fill="#7D84A1"></path>
                        <path d="M288,344.68 L282.08,348.1 C281.733039,348.270004 281.326961,348.270004 280.98,348.1 L275.22,344.77 C274.89,344.58 274.85,344.29 275.14,344.13 L281.06,340.71 C281.406961,340.539996 281.813039,340.539996 282.16,340.71 L287.92,344.04 C288.24,344.2 288.28,344.52 288,344.68 Z" id="Path" fill="#7D84A1"></path>
                        <path d="M266.67,349 L272.59,345.58 C272.934665,345.400363 273.345335,345.400363 273.69,345.58 L279.45,348.91 C279.78,349.1 279.82,349.39 279.53,349.55 L273.61,353 C273.256237,353.159163 272.847865,353.1406 272.51,352.95 L266.75,349.62 C266.42,349.43 266.38,349.14 266.67,349 Z" id="Path" fill="#7D84A1"></path>
                        <path d="M258.21,353.86 L264.13,350.44 C264.483763,350.280837 264.892135,350.2994 265.23,350.49 L270.99,353.81 C271.32,354 271.36,354.29 271.07,354.45 L265.15,357.87 C264.803039,358.040004 264.396961,358.040004 264.05,357.87 L258.29,354.54 C258,354.31 257.92,354 258.21,353.86 Z" id="Path" fill="#7D84A1"></path>
                        <path d="M249.75,358.74 L255.67,355.33 C256.014665,355.150363 256.425335,355.150363 256.77,355.33 L262.53,358.66 C262.86,358.85 262.9,359.13 262.61,359.3 L256.69,362.72 C256.336237,362.879163 255.927865,362.8606 255.59,362.67 L249.83,359.34 C249.5,359.2 249.46,358.91 249.75,358.74 Z" id="Path" fill="#7D84A1"></path>
                        <path d="M241.29,363.63 L247.21,360.21 C247.563763,360.050837 247.972135,360.0694 248.31,360.26 L254.07,363.58 C254.4,363.77 254.44,364.06 254.15,364.22 L248.23,367.64 C247.876237,367.799163 247.467865,367.7806 247.13,367.59 L241.37,364.27 C241,364.08 241,363.79 241.29,363.63 Z" id="Path" fill="#7D84A1"></path>
                        <path d="M232.83,368.51 L238.75,365.1 C239.094665,364.920363 239.505335,364.920363 239.85,365.1 L245.61,368.43 C245.94,368.62 245.98,368.9 245.69,369.07 L239.77,372.48 C239.425335,372.659637 239.014665,372.659637 238.67,372.48 L232.91,369.2 C232.58,369 232.54,368.68 232.83,368.51 Z" id="Path" fill="#7D84A1"></path>
                        <path d="M224.37,373.4 L230.29,369.98 C230.635862,369.80532 231.044138,369.80532 231.39,369.98 L237.15,373.3 C237.48,373.49 237.52,373.78 237.23,373.94 L231.31,377.36 C230.963039,377.530004 230.556961,377.530004 230.21,377.36 L224.45,374.04 C224.12,373.85 224.08,373.56 224.37,373.4 Z" id="Path" fill="#7D84A1"></path>
                        <path d="M228.77,378.88 L222.85,382.29 C222.505335,382.469637 222.094665,382.469637 221.75,382.29 L216,378.92 C215.67,378.73 215.63,378.45 215.92,378.28 L221.84,374.87 C222.184665,374.690363 222.595335,374.690363 222.94,374.87 L228.7,378.2 C229,378.43 229.05,378.71 228.77,378.88 Z" id="Path" fill="#7D84A1"></path>
                        <path d="M213.29,387.13 L207.53,383.81 C207.2,383.62 207.16,383.33 207.45,383.17 L213.37,379.75 C213.723763,379.590837 214.132135,379.6094 214.47,379.8 L220.23,383.12 C220.56,383.31 220.59,383.6 220.31,383.76 L214.39,387.2 C214.032285,387.348313 213.62603,387.32246 213.29,387.13 Z" id="Path" fill="#7D84A1"></path>
                        <path d="M211.85,388.65 L205.93,392.06 C205.585335,392.239637 205.174665,392.239637 204.83,392.06 L199.06,388.73 C198.74,388.54 198.7,388.25 198.99,388.09 L204.9,384.67 C205.257181,384.510685 205.668589,384.529217 206.01,384.72 L211.77,388.05 C212.1,388.2 212.13,388.48 211.85,388.65 Z" id="Path" fill="#7D84A1"></path>
                        <path d="M196.37,396.9 L190.6,393.58 C190.28,393.39 190.24,393.1 190.53,392.94 L196.44,389.52 C196.790415,389.349748 197.199585,389.349748 197.55,389.52 L203.31,392.85 C203.64,393.04 203.67,393.33 203.39,393.49 L197.47,396.91 C197.122551,397.081543 196.714272,397.077832 196.37,396.9 Z" id="Path" fill="#7D84A1"></path>
                        <path d="M194.93,398.41 L189,401.83 C188.649585,402.000252 188.240415,402.000252 187.89,401.83 L182.13,398.5 C181.81,398.31 181.77,398.02 182.05,397.86 L188,394.4 C188.357181,394.240685 188.768589,394.259217 189.11,394.45 L194.87,397.77 C195.18,398 195.21,398.25 194.93,398.41 Z" id="Path" fill="#7D84A1"></path>
                        <path d="M173.6,402.71 L179.52,399.29 C179.868176,399.110279 180.281824,399.110279 180.63,399.29 L186.39,402.62 C186.72,402.81 186.75,403.1 186.47,403.26 L180.55,406.68 C180.199585,406.850252 179.790415,406.850252 179.44,406.68 L173.68,403.35 C173.36,403.2 173.32,402.87 173.6,402.71 Z" id="Path" fill="#7D84A1"></path>
                        <path d="M164.7,397.57 L168.23,395.57 L174.15,392.15 C174.500415,391.979748 174.909585,391.979748 175.26,392.15 L181.02,395.47 C181.34,395.66 181.38,395.95 181.1,396.11 L177.57,398.11 L171.65,401.53 C171.300657,401.704851 170.889343,401.704851 170.54,401.53 L164.78,398.25 C164.46,398 164.42,397.73 164.7,397.57 Z" id="Path" fill="#7D84A1"></path>
                        <path d="M84,434.13 L96.39,427 C96.8721519,426.727331 97.3734707,426.49004 97.89,426.29 C99.4651252,425.581126 101.163656,425.187067 102.89,425.13 C104.62898,424.981541 106.378818,425.018415 108.11,425.24 C116.283722,426.098544 124.199212,428.602111 131.38,432.6 C141.58,438.49 146.95,446.31 144.71,450.21 C144.049884,451.500251 143.000251,452.549884 141.71,453.21 L129.32,460.37 C124.26,463.29 115.32,462.92 109.5,459.55 L85.4,445.6 C79.56,442.2 78.92,437.05 84,434.13 Z" id="Path" fill="#B7BBC8"></path>
                        <path d="M80.57,437.2 L80.57,433 L83.21,432.77 C83.45,432.6 83.7,432.43 83.98,432.27 L96.37,425.17 C96.853133,424.899228 97.3543154,424.662001 97.87,424.46 C99.4451252,423.751126 101.143656,423.357067 102.87,423.3 C104.60898,423.151541 106.358818,423.188415 108.09,423.41 C116.263722,424.268544 124.179212,426.772111 131.36,430.77 C137.96,434.58 142.52,439.2 144.36,443.05 L145.23,442.48 L145.23,446.56 C145.219166,447.194614 145.050787,447.816588 144.74,448.37 C144.074421,449.656264 143.026264,450.704421 141.74,451.37 L129.35,458.52 C124.29,461.44 115.35,461.07 109.53,457.7 L85.4,443.7 C82.23,441.87 80.6,439.52 80.58,437.28 L80.57,437.2 Z" id="Path" fill="url(#linearGradient-1)"></path>
                        <path d="M84,428.36 L96.37,421.2 C96.8521519,420.927331 97.3534707,420.69004 97.87,420.49 C99.4419619,419.771795 101.142387,419.377296 102.87,419.33 C104.60898,419.181541 106.358818,419.218415 108.09,419.44 C116.262104,420.299779 124.176705,422.799664 131.36,426.79 C141.56,432.69 146.93,440.51 144.69,444.41 C144.029884,445.700251 142.980251,446.749884 141.69,447.41 L129.3,454.57 C124.24,457.49 115.3,457.12 109.48,453.75 L85.4,439.75 C79.56,436.43 78.92,431.28 84,428.36 Z" id="Path" fill="url(#linearGradient-3)"></path>
                        <polygon id="Path" fill="url(#linearGradient-4)" points="111.14 337.34 142.28 319.37 142.28 249.34 111.14 267.32"></polygon>
                        <polygon id="Path" fill="url(#linearGradient-2)" points="114.65 339.27 145.79 321.3 145.79 251.27 114.65 269.25"></polygon>
                        <polygon id="Path" fill="url(#linearGradient-5)" points="114.65 339.27 111.14 337.34 111.14 267.32 114.65 269.25"></polygon>
                        <polygon id="Path" fill="url(#linearGradient-6)" points="145.79 251.27 142.28 249.34 111.14 267.32 114.65 269.25"></polygon>
                        <path d="M110.34,347.09 L110.34,342.5 L111.554262,342.5 C112.527776,341.171211 113.789708,340.074437 115.247642,339.29 L143.580421,323.12 C149.591017,319.69 159.15333,319.36 165.84189,322.36 L190.046178,333.2 C191.797144,333.909972 192.690888,332.901946 193.835062,334.39184 L195.48,336.14 L195.48,339.87 C195.368693,341.87 193.992529,343.87 191.311034,345.37 L154.245688,366.51 C148.174378,369.97 138.197193,369.63 132.905034,365.79 L113.901835,352 C112.118217,350.851764 110.864027,349.055446 110.410832,347 L110.34,347.09 Z" id="Path" fill="#B7BBC8"></path>
                        <path d="M110.34,345.09 L110.34,340.5 L111.54,340.5 C112.502079,339.171211 113.74919,338.074437 115.19,337.29 L143.19,321.12 C149.13,317.69 158.58,317.36 165.19,320.36 L189.11,331.2 C190.840401,331.909972 192.349265,333.070106 193.48,334.56 L194.48,334.14 L194.48,337.87 C194.37,339.87 193.01,341.87 190.36,343.37 L153.73,364.51 C147.73,367.97 137.87,367.63 132.64,363.79 L113.86,350 C112.097332,348.851764 110.857872,347.055446 110.41,345 L110.34,345.09 Z" id="Path" fill="url(#linearGradient-2)"></path>
                        <path d="M153.75,361.11 L190.38,340 C196.38,336.54 195.77,330.84 189.11,327.82 L165.21,317 C158.6,314 149.15,314.33 143.21,317.76 L115.21,333.93 C109.27,337.36 108.7,342.82 113.89,346.63 L132.67,360.44 C137.89,364.2 147.76,364.57 153.75,361.11 Z" id="Path" fill="url(#linearGradient-7)"></path>
                        <path d="M26.23,184.28 L238.28,61.84 C239.257222,61.1660634 240.506068,61.0235524 241.61,61.46 C241.756526,61.5279955 241.897029,61.6082826 242.03,61.7 L249.69,66.2 L243.69,70.68 L243.69,235.49 C243.69,239.49 241.27,244.1 238.28,245.82 L58.07,349.87 L58.53,350.62 L30.77,373.2 L22.89,368.63 C22.7478733,368.559716 22.6108683,368.479518 22.48,368.39 C21.48,367.66 20.86,366.2 20.86,364.19 L20.86,194.61 C20.82,190.63 23.24,186 26.23,184.28 Z" id="Path" fill="url(#linearGradient-8)"></path>
                        <path d="M34.56,373.09 L246.61,250.66 C249.61,248.94 252.02,244.31 252.02,240.33 L252.02,70.77 C252.02,66.77 249.6,64.96 246.61,66.68 L34.61,189.11 C31.61,190.84 29.2,195.46 29.2,199.45 L29.2,369 C29.15,373 31.57,374.82 34.56,373.09 Z" id="Path" fill="url(#linearGradient-9)"></path>
                        <path d="M29.15,199.45 L29.15,369 C29.15,373 31.57,374.81 34.56,373.08 L149.56,306.67 L170.69,294.47 L187.45,284.8 L229.69,260.41 L246.59,250.65 C249.59,248.93 252,244.3 252,240.32 L252,70.77 C252,66.77 249.58,64.96 246.59,66.68 L70.38,168.43 L34.56,189.11 C32.7095659,190.331465 31.2593613,192.07032 30.39,194.11 C29.6017873,195.781622 29.179056,197.602094 29.15,199.45 Z" id="Path" fill="url(#linearGradient-7)"></path>
                        <polygon id="Path" fill="#202592" points="29.15 356.46 252.02 227.79 252.02 86.11 29.15 214.79"></polygon>
                        <g id="Group" opacity="0.17" transform="translate(29.000000, 168.000000)">
                            <path d="M1.39,26.12 L158.47,116.81 L200.71,92.42 L41.38,0.42 L5.56,21.1 C3.70127207,22.3209191 2.24928911,24.0688698 1.39,26.12 Z" id="Path" fill="#E9ECF3"></path>
                            <polygon id="Path" fill="#D1D3D4" points="0.15 44.75 0.15 69.15 120.58 138.68 141.71 126.48"></polygon>
                        </g>
                        <path d="M202.2,1.39 L61.28,82.74 C57.69,84.82 54.77,90.39 54.77,95.18 L54.77,305.28 C54.77,310.08 57.69,312.28 61.28,310.2 L202.2,228.86 C205.79,226.78 208.71,221.21 208.71,216.42 L208.71,6.32 C208.69,1.57 205.77,-0.68 202.2,1.39 Z" id="Path" fill="#FFFFFF" opacity="0.6"></path>
                        <polygon id="Path" fill="#383FDA" points="155.61 228.06 105.74 256.85 105.74 263.5 155.61 234.7"></polygon>
                        <polygon id="Path" fill="#A7A9AC" points="77.27 262.07 73.61 264.18 73.61 270.83 77.27 268.72"></polygon>
                        <polygon id="Path" fill="#00A651" points="131.5 230.76 101.29 248.2 101.29 254.85 131.5 237.41"></polygon>
                        <polygon id="Path" fill="#91C46C" points="168.14 209.61 137.93 227.05 137.93 233.69 168.14 216.26"></polygon>
                        <polygon id="Path" fill="#A7A9AC" points="77.27 250.85 73.61 252.96 73.61 259.61 77.27 257.5"></polygon>
                        <polygon id="Path" fill="#E6E7E8" points="164.02 200.77 160.36 202.88 160.36 209.53 164.02 207.42"></polygon>
                        <polygon id="Path" fill="#BCBEC0" points="127.65 221.76 104.2 235.3 104.2 241.95 127.65 228.41"></polygon>
                        <polygon id="Path" fill="#A7A9AC" points="77.27 239.63 73.61 241.75 73.61 248.39 77.27 246.28"></polygon>
                        <polygon id="Path" fill="#E6E7E8" points="119.48 215.26 96.83 228.34 96.83 234.99 119.48 221.91"></polygon>
                        <polygon id="Path" fill="#A7A9AC" points="77.27 228.42 73.61 230.53 73.61 237.18 77.27 235.06"></polygon>
                        <polygon id="Path" fill="#E6E7E8" points="143.45 190.21 128.96 198.57 128.96 205.22 143.45 196.86"></polygon>
                        <polygon id="Path" fill="#A7A9AC" points="196.93 159.33 149.53 186.7 149.53 193.35 196.93 165.98"></polygon>
                        <polygon id="Path" fill="#A7A9AC" points="77.27 217.2 73.61 219.31 73.61 225.96 77.27 223.85"></polygon>
                        <polygon id="Path" fill="#E6E7E8" points="100.71 203.73 97.05 205.85 97.05 212.49 100.71 210.38"></polygon>
                        <polygon id="Path" fill="#00A651" points="133.78 184.64 105.65 200.88 105.65 207.53 133.78 191.29"></polygon>
                        <polygon id="Path" fill="#E6E7E8" points="148.7 176.03 135.49 183.65 135.49 190.3 148.7 182.67"></polygon>
                        <polygon id="Path" fill="#E6E7E8" points="195.66 148.91 153.6 173.2 153.6 179.84 195.66 155.56"></polygon>
                        <polygon id="Path" fill="#A7A9AC" points="77.27 205.98 73.61 208.1 73.61 214.74 77.27 212.63"></polygon>
                        <polygon id="Path" fill="#E6E7E8" points="110.57 186.76 92.12 197.41 92.12 204.06 110.57 193.41"></polygon>
                        <polygon id="Path" fill="#383FDA" points="160.74 157.79 115.93 183.66 115.93 190.31 160.74 164.44"></polygon>
                        <polygon id="Path" fill="#A7A9AC" points="77.27 194.76 73.61 196.88 73.61 203.53 77.27 201.41"></polygon>
                        <polygon id="Path" fill="#E6E7E8" points="175.02 138.33 171.36 140.45 171.36 147.09 175.02 144.98"></polygon>
                        <polygon id="Path" fill="#E6E7E8" points="112.98 174.15 95.78 184.08 95.78 190.72 112.98 180.8"></polygon>
                        <polygon id="Path" fill="#A7A9AC" points="168.39 142.16 118.58 170.91 118.58 177.56 168.39 148.8"></polygon>
                        <polygon id="Path" fill="#A7A9AC" points="77.27 183.55 73.61 185.66 73.61 192.31 77.27 190.2"></polygon>
                        <polygon id="Path" fill="#A7A9AC" points="128.96 153.7 105.65 167.17 105.65 173.81 128.96 160.35"></polygon>
                        <polygon id="Path" fill="#E6E7E8" points="155.11 138.61 131.79 152.07 131.79 158.72 155.11 145.26"></polygon>
                        <polygon id="Path" fill="#A7A9AC" points="77.27 172.33 70.92 176 70.92 182.65 77.27 178.98"></polygon>
                        <polygon id="Path" fill="#E6E7E8" points="145.25 133.09 112.75 151.85 112.75 158.49 145.25 139.73"></polygon>
                        <polygon id="Path" fill="#E6E7E8" points="155.94 126.91 147.77 131.63 147.77 138.28 155.94 133.56"></polygon>
                        <polygon id="Path" fill="#383FDA" points="184.7 110.3 159.93 124.61 159.93 131.25 184.7 116.95"></polygon>
                        <polygon id="Path" fill="#A7A9AC" points="77.27 161.72 70.92 165.38 70.92 172.03 77.27 168.36"></polygon>
                        <polygon id="Path" fill="#C6E070" points="131.97 130.13 122.63 135.53 122.63 142.18 131.97 136.78"></polygon>
                        <polygon id="Path" fill="#BCBEC0" points="168.44 109.08 133.66 129.16 133.66 135.81 168.44 115.73"></polygon>
                        <polygon id="Path" fill="#A7A9AC" points="77.27 151.1 70.92 154.77 70.92 161.42 77.27 157.75"></polygon>
                        <polygon id="Path" fill="#E6E7E8" points="136.77 116.75 119.21 126.89 119.21 133.54 136.77 123.4"></polygon>
                        <polygon id="Path" fill="#E6E7E8" points="145.25 111.86 138.99 115.47 138.99 122.11 145.25 118.51"></polygon>
                        <polygon id="Path" fill="#A7A9AC" points="77.27 140.49 70.92 144.16 70.92 150.8 77.27 147.13"></polygon>
                        <polygon id="Path" fill="#E6E7E8" points="124.8 113.05 112.75 120 112.75 126.65 124.8 119.7"></polygon>
                        <polygon id="Path" fill="#383FDA" points="177.98 82.34 134.31 107.56 134.31 114.21 177.98 88.99"></polygon>
                        <polygon id="Path" fill="#E6E7E8" points="132.27 108.73 126.25 112.21 126.25 118.86 132.27 115.38"></polygon>
                        <polygon id="Path" fill="#A7A9AC" points="77.27 129.87 70.92 133.54 70.92 140.19 77.27 136.52"></polygon>
                        <polygon id="Path" fill="#E6E7E8" points="108.01 112.13 104.83 113.96 104.83 120.61 108.01 118.78"></polygon>
                        <polygon id="Path" fill="#C6E070" points="131.79 98.4 111.39 110.18 111.39 116.82 131.79 105.04"></polygon>
                        <polygon id="Path" fill="#E6E7E8" points="185.03 67.66 135.05 96.52 135.05 103.17 185.03 74.3"></polygon>
                        <polygon id="Path" fill="#A7A9AC" points="77.27 119.26 70.92 122.93 70.92 129.58 77.27 125.91"></polygon>
                        <polygon id="Path" fill="#91C46C" points="117.3 96.71 96.86 108.52 96.86 115.16 117.3 103.36"></polygon>
                        <polygon id="Path" fill="#383FDA" points="166.96 68.05 133.23 87.52 133.23 94.17 166.96 74.69"></polygon>
                        <polygon id="Path" fill="#E6E7E8" points="129.26 89.81 121.12 94.51 121.12 101.16 129.26 96.46"></polygon>
                        <polygon id="Path" fill="#A7A9AC" points="77.27 108.65 70.92 112.31 70.92 118.96 77.27 115.29"></polygon>
                        <polygon id="Path" fill="#E6E7E8" points="112.75 88.16 108.21 90.78 108.21 97.43 112.75 94.81"></polygon>
                        <polygon id="Path" fill="#E6E7E8" points="178.99 49.92 154.13 64.27 154.13 70.92 178.99 56.57"></polygon>
                        <polygon id="Path" fill="#E6E7E8" points="145.25 69.4 118.85 84.64 118.85 91.29 145.25 76.05"></polygon>
                        <polygon id="Path" fill="#A7A9AC" points="77.27 98.03 70.92 101.7 70.92 108.35 77.27 104.68"></polygon>
                        <polygon id="Path" fill="#C6E070" points="125.19 70.37 111.39 78.33 111.39 84.98 125.19 77.01"></polygon>
                        <polygon id="Path" fill="#E6E7E8" points="135.63 64.34 129.87 67.66 129.87 74.31 135.63 70.99"></polygon>
                        <polygon id="Path" fill="#A7A9AC" points="102.9 258.49 82.36 270.35 82.36 277 102.9 265.14"></polygon>
                        <polygon id="Path" fill="#E6E7E8" points="97.62 239.11 93.95 241.22 93.95 247.87 97.62 245.75"></polygon>
                        <polygon id="Path" fill="#E6E7E8" points="155.75 205.54 132.3 219.08 132.3 225.73 155.75 212.19"></polygon>
                        <polygon id="Path" fill="#00A651" points="92.55 230.81 88.89 232.93 88.89 239.57 92.55 237.46"></polygon>
                        <polygon id="Path" fill="#383FDA" points="183.44 178.64 122.54 213.81 122.54 220.45 183.44 185.29"></polygon>
                        <polygon id="Path" fill="#91C46C" points="127.18 199.6 93.95 218.79 93.95 225.43 127.18 206.25"></polygon>
                        <polygon id="Path" fill="#E6E7E8" points="90.72 198.22 87.06 200.33 87.06 206.98 90.72 204.86"></polygon>
                        <polygon id="Path" fill="#E6E7E8" points="98.38 249.88 88.89 255.36 88.89 262.01 98.38 256.53"></polygon>
                        <polygon id="Path" fill="#A7A9AC" points="77.27 273.29 73.61 275.4 73.61 282.05 77.27 279.93"></polygon>
                        <path d="M290.29,29.44 L149.37,110.79 C145.78,112.87 142.86,118.44 142.86,123.23 L142.86,333.33 C142.86,338.13 145.78,340.33 149.37,338.25 L290.29,256.91 C293.88,254.83 296.8,249.26 296.8,244.47 L296.8,34.37 C296.78,29.62 293.86,27.37 290.29,29.44 Z" id="Path" fill="#202592" opacity="0.6"></path>
                        <polygon id="Path" fill="#383FDA" points="243.7 256.11 193.83 284.89 193.83 291.55 243.7 262.75"></polygon>
                        <polygon id="Path" fill="#A7A9AC" points="165.36 290.12 161.7 292.23 161.7 298.88 165.36 296.76"></polygon>
                        <polygon id="Path" fill="#00A651" points="219.59 258.81 189.38 276.25 189.38 282.89 219.59 265.45"></polygon>
                        <polygon id="Path" fill="#91C46C" points="256.23 237.65 226.02 255.1 226.02 261.74 256.23 244.31"></polygon>
                        <polygon id="Path" fill="#A7A9AC" points="165.36 278.89 161.7 281 161.7 287.65 165.36 285.55"></polygon>
                        <polygon id="Path" fill="#E6E7E8" points="252.11 228.81 248.45 230.93 248.45 237.57 252.11 235.46"></polygon>
                        <polygon id="Path" fill="#BCBEC0" points="215.74 249.81 192.29 263.35 192.29 270 215.74 256.45"></polygon>
                        <polygon id="Path" fill="#A7A9AC" points="165.36 267.68 161.7 269.8 161.7 276.44 165.36 274.32"></polygon>
                        <polygon id="Path" fill="#E6E7E8" points="207.57 243.31 184.92 256.38 184.92 263.04 207.57 249.95"></polygon>
                        <polygon id="Path" fill="#A7A9AC" points="165.36 256.46 161.7 258.57 161.7 265.23 165.36 263.11"></polygon>
                        <polygon id="Path" fill="#E6E7E8" points="231.54 218.25 217.05 226.62 217.05 233.26 231.54 224.9"></polygon>
                        <polygon id="Path" fill="#A7A9AC" points="285.02 187.38 237.62 214.75 237.62 221.39 285.02 194.02"></polygon>
                        <polygon id="Path" fill="#A7A9AC" points="165.36 245.25 161.7 247.36 161.7 254 165.36 251.89"></polygon>
                        <polygon id="Path" fill="#E6E7E8" points="188.8 231.77 185.14 233.89 185.14 240.54 188.8 238.43"></polygon>
                        <polygon id="Path" fill="#00A651" points="221.87 212.69 193.74 228.93 193.74 235.57 221.87 219.33"></polygon>
                        <polygon id="Path" fill="#E6E7E8" points="236.79 204.07 223.58 211.69 223.58 218.35 236.79 210.71"></polygon>
                        <polygon id="Path" fill="#E6E7E8" points="283.75 176.95 241.69 201.25 241.69 207.88 283.75 183.61"></polygon>
                        <polygon id="Path" fill="#A7A9AC" points="165.36 234.02 161.7 236.14 161.7 242.79 165.36 240.68"></polygon>
                        <polygon id="Path" fill="#E6E7E8" points="198.66 214.81 180.21 225.45 180.21 232.11 198.66 221.45"></polygon>
                        <polygon id="Path" fill="#383FDA" points="248.83 185.83 204.02 211.7 204.02 218.36 248.83 192.49"></polygon>
                        <polygon id="Path" fill="#A7A9AC" points="165.36 222.81 161.7 224.93 161.7 231.57 165.36 229.45"></polygon>
                        <polygon id="Path" fill="#E6E7E8" points="263.11 166.38 259.45 168.5 259.45 175.13 263.11 173.02"></polygon>
                        <polygon id="Path" fill="#E6E7E8" points="201.07 202.19 183.87 212.13 183.87 218.76 201.07 208.85"></polygon>
                        <polygon id="Path" fill="#A7A9AC" points="256.48 170.2 206.67 198.95 206.67 205.61 256.48 176.85"></polygon>
                        <polygon id="Path" fill="#A7A9AC" points="165.36 211.6 161.7 213.7 161.7 220.36 165.36 218.25"></polygon>
                        <polygon id="Path" fill="#A7A9AC" points="217.05 181.75 193.74 195.21 193.74 201.86 217.05 188.39"></polygon>
                        <polygon id="Path" fill="#E6E7E8" points="243.2 166.65 219.88 180.12 219.88 186.76 243.2 173.31"></polygon>
                        <polygon id="Path" fill="#A7A9AC" points="165.36 200.38 159.01 204.05 159.01 210.69 165.36 207.02"></polygon>
                        <polygon id="Path" fill="#E6E7E8" points="233.34 161.13 200.84 179.89 200.84 186.54 233.34 167.77"></polygon>
                        <polygon id="Path" fill="#E6E7E8" points="244.03 154.95 235.86 159.68 235.86 166.32 244.03 161.61"></polygon>
                        <polygon id="Path" fill="#383FDA" points="272.79 138.34 248.02 152.65 248.02 159.3 272.79 145"></polygon>
                        <polygon id="Path" fill="#A7A9AC" points="165.36 189.76 159.01 193.43 159.01 200.07 165.36 196.4"></polygon>
                        <polygon id="Path" fill="#C6E070" points="220.06 158.18 210.72 163.57 210.72 170.23 220.06 164.82"></polygon>
                        <polygon id="Path" fill="#BCBEC0" points="256.53 137.13 221.75 157.2 221.75 163.86 256.53 143.78"></polygon>
                        <polygon id="Path" fill="#A7A9AC" points="165.36 179.14 159.01 182.81 159.01 189.46 165.36 185.8"></polygon>
                        <polygon id="Path" fill="#E6E7E8" points="224.86 144.79 207.3 154.94 207.3 161.58 224.86 151.44"></polygon>
                        <polygon id="Path" fill="#E6E7E8" points="233.34 139.91 227.08 143.51 227.08 150.15 233.34 146.56"></polygon>
                        <polygon id="Path" fill="#A7A9AC" points="165.36 168.54 159.01 172.2 159.01 178.85 165.36 175.18"></polygon>
                        <polygon id="Path" fill="#E6E7E8" points="212.89 141.09 200.84 148.05 200.84 154.69 212.89 147.75"></polygon>
                        <polygon id="Path" fill="#383FDA" points="266.07 110.38 222.4 135.6 222.4 142.25 266.07 117.03"></polygon>
                        <polygon id="Path" fill="#E6E7E8" points="220.36 136.78 214.34 140.25 214.34 146.9 220.36 143.43"></polygon>
                        <polygon id="Path" fill="#A7A9AC" points="165.36 157.92 159.01 161.58 159.01 168.24 165.36 164.56"></polygon>
                        <polygon id="Path" fill="#E6E7E8" points="196.1 140.18 192.92 142 192.92 148.65 196.1 146.82"></polygon>
                        <polygon id="Path" fill="#C6E070" points="219.88 126.44 199.48 138.22 199.48 144.87 219.88 133.09"></polygon>
                        <polygon id="Path" fill="#E6E7E8" points="273.12 95.71 223.14 124.56 223.14 131.22 273.12 102.34"></polygon>
                        <polygon id="Path" fill="#A7A9AC" points="165.36 147.31 159.01 150.98 159.01 157.63 165.36 153.95"></polygon>
                        <polygon id="Path" fill="#91C46C" points="205.39 124.75 184.95 136.56 184.95 143.21 205.39 131.41"></polygon>
                        <polygon id="Path" fill="#383FDA" points="255.05 96.09 221.32 115.56 221.32 122.22 255.05 102.74"></polygon>
                        <polygon id="Path" fill="#E6E7E8" points="217.35 117.85 209.21 122.56 209.21 129.21 217.35 124.5"></polygon>
                        <polygon id="Path" fill="#A7A9AC" points="165.36 136.69 159.01 140.35 159.01 147 165.36 143.34"></polygon>
                        <polygon id="Path" fill="#E6E7E8" points="200.84 116.21 196.3 118.82 196.3 125.47 200.84 122.85"></polygon>
                        <polygon id="Path" fill="#E6E7E8" points="267.08 77.97 242.22 92.31 242.22 98.97 267.08 84.62"></polygon>
                        <polygon id="Path" fill="#E6E7E8" points="233.34 97.44 206.94 112.69 206.94 119.34 233.34 104.09"></polygon>
                        <polygon id="Path" fill="#A7A9AC" points="165.36 126.07 159.01 129.75 159.01 136.4 165.36 132.72"></polygon>
                        <polygon id="Path" fill="#C6E070" points="213.28 98.41 199.48 106.38 199.48 113.03 213.28 105.06"></polygon>
                        <polygon id="Path" fill="#E6E7E8" points="223.72 92.38 217.96 95.71 217.96 102.35 223.72 99.03"></polygon>
                        <polygon id="Path" fill="#A7A9AC" points="190.99 286.54 170.45 298.39 170.45 305.05 190.99 293.19"></polygon>
                        <polygon id="Path" fill="#E6E7E8" points="185.71 267.15 182.04 269.26 182.04 275.92 185.71 273.8"></polygon>
                        <polygon id="Path" fill="#E6E7E8" points="243.84 233.58 220.39 247.13 220.39 253.77 243.84 240.24"></polygon>
                        <polygon id="Path" fill="#00A651" points="180.64 258.86 176.98 260.98 176.98 267.62 180.64 265.5"></polygon>
                        <polygon id="Path" fill="#383FDA" points="271.53 206.69 210.63 241.86 210.63 248.5 271.53 213.33"></polygon>
                        <polygon id="Path" fill="#91C46C" points="215.27 227.64 182.04 246.83 182.04 253.48 215.27 234.3"></polygon>
                        <polygon id="Path" fill="#E6E7E8" points="178.81 226.26 175.15 228.38 175.15 235.02 178.81 232.9"></polygon>
                        <polygon id="Path" fill="#E6E7E8" points="186.47 277.93 176.98 283.4 176.98 290.06 186.47 284.57"></polygon>
                        <polygon id="Path" fill="#A7A9AC" points="165.36 301.33 161.7 303.44 161.7 310.1 165.36 307.98"></polygon>
                        <path d="M28.49,128.25 L28.66,128.25 C29.91,128.34 30.18,130.37 29.21,131.82 C28.52,132.82 27.79,133.82 27.08,134.82 L18.57,146.71 C17.99,147.53 17.51,147.96 17.05,148.02 C16.59,148.08 16.15,147.76 15.64,147.1 L11.85,142.16 C11.0754005,141.230367 11.0382014,139.8912 11.76,138.92 C12.0021221,138.507642 12.4103074,138.219726 12.88,138.13 C13.4328573,138.106433 13.9558562,138.381293 14.25,138.85 C15.25,140.14 16.25,141.44 17.25,142.85 C20.54,138.25 23.71,133.77 26.94,129.37 C27.302048,128.819422 27.8535936,128.420886 28.49,128.25 Z M21.53,111.13 C32.59,109.74 41.06,120.79 40.41,135.77 C39.76,150.75 30.25,164.05 19.19,165.43 C8.13,166.81 -0.34,155.77 0.31,140.79 C0.96,125.81 10.47,112.51 21.53,111.13 Z M19.34,161.91 C28.96,160.7 37.25,149.12 37.81,136.09 C38.37,123.06 31,113.44 21.38,114.65 C11.76,115.86 3.47,127.44 2.91,140.47 C2.35,153.5 9.72,163.12 19.34,161.91 Z" id="Combined-Shape" fill="#A7D671"></path>
                    </g>
                </g>
            </g>
        </g>
    </g>
</svg>