<?xml version="1.0" encoding="UTF-8"?>
<svg width="50px" height="50px" viewBox="0 0 50 50" version="1.1" xmlns="http://www.w3.org/2000/svg" xmlns:xlink="http://www.w3.org/1999/xlink">
    <!-- Generator: sketchtool 52.6 (67491) - http://www.bohemiancoding.com/sketch -->
    <title>Icon: A pencil</title>
    <desc>Created with sketchtool.</desc>
    <g class="Mock-Up" stroke="none" stroke-width="1" fill="none" fill-rule="evenodd">
        <g class="sitediff-Mock-Up" transform="translate(-1086.000000, -2200.000000)">
            <g class="Features" transform="translate(0.000000, 1803.000000)">
                <g class="Customizations" transform="translate(1086.000000, 397.000000)">
                    <path d="M49.2727243,8.62068966 L0.727275682,8.62068966 C0.325612414,8.62068966 0,8.30437129 0,7.91417281 L0,0.706516848 C0,0.316318367 0.325612414,0 0.727275682,0 L49.2727243,0 C49.6743876,0 50,0.316318367 50,0.706516848 L50,7.91417281 C50,8.30437129 49.6743876,8.62068966 49.2727243,8.62068966 Z M1.45495766,7.20805066 L48.5450423,7.20805066 L48.5450423,1.41263899 L1.45495766,1.41263899 L1.45495766,7.20805066 Z" class="Shape" fill="#363636" fill-rule="nonzero"></path>
                    <path d="M49.2727243,50 L0.727275682,50 C0.325705298,49.9997771 0.000224153211,49.6761528 0,49.2768733 L0,8.19398705 C0.000224304275,7.794773 0.32577103,7.47126431 0.727275682,7.47126437 L49.2727243,7.47126437 C49.674229,7.47126431 49.9997757,7.794773 50,8.19398705 L50,49.2788932 C49.9986574,49.6773837 49.6735033,49.9997797 49.2727243,50 Z M1.45495766,48.5541506 L48.5450423,48.5541506 L48.5450423,8.91711372 L1.45495766,8.91711372 L1.45495766,48.5541506 Z" class="Shape" fill="#363636" fill-rule="nonzero"></path>
                    <path d="M4.06994036,5.17241379 C3.74903572,5.17206021 3.48893007,4.91509242 3.48839304,4.59788215 C3.48690848,4.42551567 3.56440756,4.26174204 3.69920428,4.15238882 C3.834001,4.0430356 4.01161696,3.99984833 4.18235118,4.03491179 C4.22010011,4.03946815 4.25679232,4.05032738 4.29086336,4.06702647 C4.32567667,4.08252511 4.35933291,4.10044734 4.39157826,4.12065799 C4.42300616,4.14151213 4.45286549,4.16458796 4.48092212,4.18970455 C4.58927875,4.29930957 4.65031957,4.44623984 4.65116279,4.59948788 C4.65028244,4.75168831 4.58917784,4.89750417 4.48092212,5.0057386 C4.45362794,5.03080208 4.42367262,5.05287535 4.39157826,5.07157369 C4.36014161,5.09311822 4.32635864,5.11110793 4.29086336,5.12520521 C4.25615336,5.1408301 4.21974463,5.15246746 4.18235118,5.15988907 C4.1454534,5.16809374 4.10775999,5.17229351 4.06994036,5.17241379 Z" class="Path" fill="#363636"></path>
                    <path d="M9.30232595,4.59786191 C9.30215326,4.44534383 9.36336884,4.29902343 9.47246943,4.19117679 C9.58157001,4.08333016 9.72959172,4.02281817 9.88388315,4.02298887 C10.0381448,4.02281799 10.1861332,4.0833402 10.2951823,4.19119613 C10.4042313,4.29905206 10.4653745,4.4453734 10.4651155,4.59786191 C10.4642231,4.91481204 10.2045185,5.17153166 9.88388315,5.17241379 C9.56312091,5.17170805 9.30321914,4.91493701 9.30232595,4.59786191 Z" class="Path" fill="#363636"></path>
                    <path d="M16.2789116,5.17241379 C16.124937,5.17153767 15.9774215,5.11072654 15.8679255,5.00299077 C15.8413586,4.97512636 15.8168214,4.94541282 15.7945003,4.91407601 C15.7739994,4.88264561 15.7571077,4.84902481 15.7441423,4.81384484 C15.72839,4.77930959 15.716724,4.74306949 15.7093791,4.70585382 C15.7016692,4.66905614 15.6977503,4.63157193 15.697683,4.5939829 C15.6972516,4.51698709 15.7130799,4.44076004 15.7441423,4.37024104 C15.757904,4.33540865 15.7747566,4.30186567 15.7945003,4.27000986 C15.8168579,4.2399201 15.8413985,4.21149922 15.8679255,4.18497502 C16.085277,3.968993 16.4764448,3.968993 16.6895728,4.18497502 C16.7162049,4.21149412 16.7408539,4.23991476 16.7633229,4.27000986 C16.7828163,4.30460578 16.8019848,4.33467514 16.8175795,4.37024104 C16.8297719,4.40567188 16.8400744,4.44171914 16.8484441,4.47823205 C16.8564584,4.51629877 16.8604869,4.55508961 16.860465,4.5939829 C16.8602819,4.63158248 16.8562542,4.66906591 16.8484441,4.70585382 C16.8405921,4.74249673 16.8302808,4.77857461 16.8175795,4.81384484 C16.8018409,4.84846177 16.783712,4.8819523 16.7633229,4.91407601 C16.740887,4.94541548 16.7162416,4.97512858 16.6895728,5.00299077 C16.5802351,5.11076556 16.4328014,5.17159106 16.2789116,5.17241379 Z" class="Path" fill="#363636"></path>
                    <path d="M31.2382761,50 L19.3431193,50 C19.1472654,50 18.9594331,49.9246777 18.8209435,49.7906031 C18.6824538,49.6565284 18.6046512,49.4746842 18.6046512,49.2850741 L18.6046512,25.4275696 C18.6046512,25.0327269 18.9352746,24.7126437 19.3431193,24.7126437 L31.2382761,24.7126437 C31.6461208,24.7126437 31.9767442,25.0327269 31.9767442,25.4275696 L31.9767442,49.2850741 C31.9767442,49.4746842 31.8989415,49.6565284 31.7604519,49.7906031 C31.6219622,49.9246777 31.43413,50 31.2382761,50 Z M20.0828257,48.5709475 L30.499808,48.5709475 L30.499808,26.1452928 L20.0828257,26.1452928 L20.0828257,48.5709475 Z" class="Shape" fill="#383FDA" fill-rule="nonzero"></path>
                    <path d="M27.6933161,19.8965515 L22.7024251,19.8965515 C22.4597777,19.8967495 22.2342447,19.7633465 22.1060152,19.5437744 C21.9777856,19.3242023 21.9650496,19.0496086 22.0723354,18.8176259 L24.5679771,13.4175616 C24.6862273,13.1618932 24.930444,13 25.1978706,13 C25.4652973,13 25.709514,13.1618932 25.8277642,13.4175616 L28.3230135,18.8176259 C28.4302684,19.0495419 28.4175724,19.3240497 28.2894373,19.5435967 C28.1613022,19.7631438 27.9358938,19.8966049 27.6933161,19.8965515 Z M23.83078,18.3998559 L26.5645689,18.3998559 L25.1972821,15.4415925 L23.83078,18.3998559 Z" class="Shape" fill="#383FDA" fill-rule="nonzero"></path>
                    <path d="M31.238207,25.8620677 L19.344426,25.8620677 C19.089015,25.8625387 18.8514927,25.7337885 18.7163968,25.5216412 C18.5813009,25.3094939 18.5678186,25.0440798 18.6807484,24.8198638 L22.0032641,18.220047 C22.1275969,17.9728465 22.3845992,17.8162243 22.6661163,17.816092 L27.9165167,17.816092 C28.197941,17.8161867 28.4548401,17.9728435 28.5789562,18.220047 L31.9006465,24.8198638 C32.0133171,25.0435644 32.0001719,25.3083155 31.8658705,25.5202698 C31.731569,25.732224 31.4950944,25.8614225 31.2402707,25.8620677 L31.238207,25.8620677 Z M20.5314515,24.4163127 L30.0511815,24.4163127 L27.4571428,19.2626548 L23.1254902,19.2626548 L20.5314515,24.4163127 Z" class="Shape" fill="#383FDA" fill-rule="nonzero"></path>
                    <path d="M23.2559764,50 C22.9349177,50.0000001 22.674598,49.6797724 22.6744186,49.2846071 L22.6744186,25.4115192 C22.681883,25.0228975 22.9399836,24.7126437 23.255814,24.7126437 C23.5716444,24.7126437 23.8297449,25.0228975 23.8372093,25.4115192 L23.8372093,49.2846071 C23.8370301,49.6796163 23.5769082,49.9997794 23.2559764,50 Z" class="Path" fill="#383FDA"></path>
                    <path d="M26.7440236,50 C26.5898711,50 26.4420322,49.9246285 26.3330299,49.7904663 C26.2240276,49.6563041 26.1627907,49.4743411 26.1627907,49.2846071 L26.1627907,25.4115192 C26.1702551,25.0228975 26.4283556,24.7126437 26.744186,24.7126437 C27.0600164,24.7126437 27.318117,25.0228975 27.3255814,25.4115192 L27.3255814,49.2846071 C27.325402,49.6797724 27.0650823,50.0000001 26.7440236,50 Z" class="Path" fill="#383FDA"></path>
                </g>
            </g>
        </g>
    </g>
</svg>