<?xml version="1.0" encoding="UTF-8"?>
<svg width="50px" height="50px" viewBox="0 0 50 50" version="1.1" xmlns="http://www.w3.org/2000/svg" xmlns:xlink="http://www.w3.org/1999/xlink">
    <!-- Generator: sketchtool 52.6 (67491) - http://www.bohemiancoding.com/sketch -->
    <title>Icon: Option list icon with 3 options.</title>
    <g class="Mock-Up" stroke="none" stroke-width="1" fill="none" fill-rule="evenodd">
        <g class="sitediff-Mock-Up" transform="translate(-695.000000, -2200.000000)">
            <g class="Features" transform="translate(0.000000, 1803.000000)">
                <g class="RuleBasedTesting" transform="translate(695.000000, 397.000000)">
                    <path d="M49.1298214,50 L0.870664913,50 C0.389809959,50 0,49.669022 0,49.2607399 L0,0.738847199 C-3.6067566e-08,0.542821192 0.0917459885,0.35482993 0.25504133,0.216257346 C0.418336672,0.077684762 0.63979496,-0.000109457356 0.870664913,1.15593057e-07 L37.3923828,1.15593057e-07 C37.6232527,-0.000109457356 37.844711,0.077684762 38.0080064,0.216257346 C38.1713017,0.35482993 38.2630477,0.542821192 38.2630477,0.738847199 L38.2630477,9.96596935 L49.1298214,9.96596935 C49.3606913,9.96596932 49.5820984,10.0438686 49.7453025,10.1825186 C49.9085066,10.3211687 50.0001289,10.5092035 49.9999999,10.7052294 L49.9999999,49.2607399 C50.0001289,49.4567659 49.9085066,49.6448007 49.7453025,49.7834507 C49.5820984,49.9221007 49.3606913,50 49.1298214,50 Z M1.74084342,48.5218928 L48.2596428,48.5218928 L48.2596428,11.4440765 L37.3923828,11.4440765 C36.9117965,11.4440765 36.5222043,11.1132834 36.5222043,10.7052294 L36.5222043,1.47975925 L1.74084342,1.47975925 L1.74084342,48.5218928 Z" class="Shape" fill="#363636" fill-rule="nonzero"></path>
                    <path d="M49.1027989,11.9047618 L37.0077982,11.9047618 C36.5125716,11.9047618 36.1111111,11.5606528 36.1111111,11.1361728 L36.1111111,0.768599373 C36.1111168,0.4577379 36.3295875,0.177488015 36.6646528,0.0585271396 C36.9997181,-0.0604337359 37.3853942,0.00532111485 37.6418447,0.225130932 L49.7368454,10.5922748 C49.9936489,10.812049 50.0705911,11.1428282 49.9317579,11.4302154 C49.7929247,11.7176025 49.4656909,11.904931 49.1027989,11.9047618 Z M37.9049865,10.3671542 L46.9375176,10.3671542 L37.9049865,2.62498446 L37.9049865,10.3671542 Z" class="Shape" fill="#363636" fill-rule="nonzero"></path>
                    <path d="M39.2222222,22.0952381 C36.7369408,22.0952381 34.7222222,20.0805195 34.7222222,17.5952381 C34.7222222,15.1099567 36.7369408,13.0952381 39.2222222,13.0952381 C41.7075036,13.0952381 43.7222222,15.1099567 43.7222222,17.5952381 C43.7200955,20.079638 41.7066221,22.0931113 39.2222222,22.0952381 Z M39.2222222,14.6312381 C37.5845401,14.6312381 36.2569365,15.9588417 36.2569365,17.5965238 C36.2569365,19.2342059 37.5845401,20.5618095 39.2222222,20.5618095 C40.8599043,20.5618095 42.1875079,19.2342059 42.1875079,17.5965238 C42.1858543,15.9595272 40.8592188,14.6328917 39.2222222,14.6312381 Z" class="Shape" fill="#363636" fill-rule="nonzero"></path>
                    <path d="M39.2222222,34 C36.7369408,34 34.7222222,31.9852814 34.7222222,29.5 C34.7222222,27.0147186 36.7369408,25 39.2222222,25 C41.7075036,25 43.7222222,27.0147186 43.7222222,29.5 C43.7200955,31.9843999 41.7066221,33.9978732 39.2222222,34 Z M39.2222222,26.536 C37.5845401,26.536 36.2569365,27.8636036 36.2569365,29.5012857 C36.2569365,31.1389678 37.5845401,32.4665714 39.2222222,32.4665714 C40.8599043,32.4665714 42.1875079,31.1389678 42.1875079,29.5012857 C42.1860905,27.8641217 40.859386,26.5372255 39.2222222,26.5355714 L39.2222222,26.536 Z" class="Shape" fill="#383FDA" fill-rule="nonzero"></path>
                    <path d="M39.2222222,45.9047619 C36.7369408,45.9047619 34.7222222,43.8900433 34.7222222,41.4047619 C34.7222222,38.9194805 36.7369408,36.9047619 39.2222222,36.9047619 C41.7075036,36.9047619 43.7222222,38.9194805 43.7222222,41.4047619 C43.7200955,43.8891618 41.7066221,45.9026352 39.2222222,45.9047619 Z M39.2222222,38.4407619 C37.5845401,38.4407619 36.2569365,39.7683655 36.2569365,41.4060476 C36.2569365,43.0437297 37.5845401,44.3713333 39.2222222,44.3713333 C40.8599043,44.3713333 42.1875079,43.0437297 42.1875079,41.4060476 C42.1858543,39.769051 40.8592188,38.4424156 39.2222222,38.4407619 Z" class="Shape" fill="#363636" fill-rule="nonzero"></path>
                    <path d="M39.3271544,30.5974415 L36.7147427,27.7435858 C36.5565308,27.5205117 36.5520876,27.2435195 36.703087,27.0169493 C36.8540863,26.7903792 37.1375877,26.6486525 37.4467989,26.6451564 C37.7560102,26.6416603 38.0439547,26.7769259 38.2021666,27 L40.0720756,28.8069064 L44.2247697,22.9731488 C44.4698784,22.6286427 45.0012246,22.5161862 45.4115646,22.7219704 C45.8219047,22.9277545 45.9558512,23.3738529 45.7107424,23.7183591 L40.8136108,30.5982537 C40.6575984,30.8179852 40.3753177,30.9525277 40.0706245,30.9523808 C39.7656907,30.9520941 39.4833648,30.8173092 39.3271544,30.5974415 Z" class="Path" fill="#383FDA"></path>
                    <path d="M31.0753652,14.2855473 L9.16228091,14.2855473 C8.70133042,14.2779073 8.33333333,14.0137357 8.33333333,13.6904762 C8.33333333,13.3672167 8.70133042,13.1030451 9.16228091,13.0954051 L31.0753652,13.0954051 C31.3833871,13.0902998 31.6711793,13.2025898 31.8273308,13.3888053 C31.9834823,13.5750208 31.9834823,13.8059316 31.8273308,13.9921471 C31.6711793,14.1783625 31.3833871,14.2906526 31.0753652,14.2855473 Z" class="Path" fill="#363636"></path>
                    <path d="M31.0753652,17.8569759 L9.16228091,17.8569759 C8.70133042,17.8493359 8.33333333,17.5851642 8.33333333,17.2619048 C8.33333333,16.9386453 8.70133042,16.6744736 9.16228091,16.6668336 L31.0753652,16.6668336 C31.3833871,16.6617283 31.6711793,16.7740184 31.8273308,16.9602339 C31.9834823,17.1464493 31.9834823,17.3773602 31.8273308,17.5635757 C31.6711793,17.7497911 31.3833871,17.8620812 31.0753652,17.8569759 Z" class="Path" fill="#363636"></path>
                    <path d="M22.7900099,21.4285714 L9.15443456,21.4285714 C8.69784717,21.4209293 8.33333333,21.1566835 8.33333333,20.8333333 C8.33333333,20.5099832 8.69784717,20.2457374 9.15443456,20.2380952 L22.7900099,20.2380952 C23.2465973,20.2457374 23.6111111,20.5099832 23.6111111,20.8333333 C23.6111111,21.1566835 23.2465973,21.4209293 22.7900099,21.4285714 Z" class="Path" fill="#363636"></path>
                    <path d="M31.0753652,26.1903092 L9.16228091,26.1903092 C8.70133042,26.1826692 8.33333333,25.9184976 8.33333333,25.5952381 C8.33333333,25.2719786 8.70133042,25.007807 9.16228091,25.000167 L31.0753652,25.000167 C31.3833871,24.9950617 31.6711793,25.1073517 31.8273308,25.2935672 C31.9834823,25.4797827 31.9834823,25.7106935 31.8273308,25.896909 C31.6711793,26.0831244 31.3833871,26.1954145 31.0753652,26.1903092 Z" class="Path" fill="#363636"></path>
                    <path d="M31.0753652,29.7617378 L9.16228091,29.7617378 C8.70133042,29.7540978 8.33333333,29.4899261 8.33333333,29.1666667 C8.33333333,28.8434072 8.70133042,28.5792356 9.16228091,28.5715955 L31.0753652,28.5715955 C31.3833871,28.5664902 31.6711793,28.6787803 31.8273308,28.8649958 C31.9834823,29.0512112 31.9834823,29.2821221 31.8273308,29.4683376 C31.6711793,29.654553 31.3833871,29.7668431 31.0753652,29.7617378 Z" class="Path" fill="#363636"></path>
                    <path d="M31.0958712,33.3333333 L9.18190655,33.3333333 C8.71325251,33.3333333 8.33333333,33.0668362 8.33333333,32.7380952 C8.33333333,32.4093543 8.71325251,32.1428571 9.18190655,32.1428571 L31.0958712,32.1428571 C31.5645253,32.1428571 31.9444444,32.4093543 31.9444444,32.7380952 C31.9444444,33.0668362 31.5645253,33.3333333 31.0958712,33.3333333 Z" class="Path" fill="#363636"></path>
                    <path d="M31.0958712,38.0952381 L9.18190655,38.0952381 C8.71325251,38.0952381 8.33333333,37.8287409 8.33333333,37.5 C8.33333333,37.1712591 8.71325251,36.9047619 9.18190655,36.9047619 L31.0958712,36.9047619 C31.5645253,36.9047619 31.9444444,37.1712591 31.9444444,37.5 C31.9444444,37.8287409 31.5645253,38.0952381 31.0958712,38.0952381 Z" class="Path" fill="#363636"></path>
                    <path d="M26.9227671,41.6666667 L9.18834399,41.6666667 C8.71613463,41.6666666 8.33333333,41.4001695 8.33333333,41.0714286 C8.33333333,40.7426877 8.71613463,40.4761905 9.18834399,40.4761905 L26.9227671,40.4761905 C27.3949765,40.4761905 27.7777778,40.7426877 27.7777778,41.0714286 C27.7777778,41.4001695 27.3949765,41.6666666 26.9227671,41.6666667 Z" class="Path" fill="#363636"></path>
                    <path d="M31.0753652,45.2379283 L9.16228091,45.2379283 C8.70133042,45.2302883 8.33333333,44.9661166 8.33333333,44.6428571 C8.33333333,44.3195977 8.70133042,44.055426 9.16228091,44.047786 L31.0753652,44.047786 C31.3833871,44.0426807 31.6711793,44.1549708 31.8273308,44.3411863 C31.9834823,44.5274017 31.9834823,44.7583126 31.8273308,44.944528 C31.6711793,45.1307435 31.3833871,45.2430336 31.0753652,45.2379283 Z" class="Path" fill="#363636"></path>
                    <path d="M6.25019213,15.4761904 C6.06593152,15.4763022 5.88918815,15.3969173 5.7588962,15.2555232 C5.62860426,15.114129 5.55545264,14.9223254 5.55555566,14.7223639 L5.55555566,13.8312484 C5.56447149,13.4219773 5.87275733,13.0952381 6.2499981,13.0952381 C6.62723887,13.0952381 6.9355247,13.4219773 6.94444053,13.8312484 L6.94444053,14.7202582 C6.94505942,14.9205112 6.8721889,15.1127926 6.74192493,15.2546304 C6.61166096,15.3964683 6.43472239,15.4761915 6.25019213,15.4761904 Z" class="Path" fill="#363636"></path>
                    <path d="M6.25019403,27.3809523 C6.06593292,27.3810642 5.88918907,27.301609 5.75889676,27.1600897 C5.62860446,27.0185705 5.55545264,26.826597 5.55555566,26.6264585 L5.55555566,25.7366618 C5.56447152,25.3270284 5.87275819,25 6.25,25 C6.62724181,25 6.93552848,25.3270284 6.94444434,25.7366618 L6.94444434,26.6264585 C6.94454729,26.826524 6.87144873,27.0184335 6.74124038,27.1599406 C6.61103203,27.3014478 6.43438792,27.3809523 6.25019403,27.3809523 Z" class="Path" fill="#363636"></path>
                    <path d="M6.25019398,39.2857142 C6.06605176,39.2858244 5.8894163,39.2075852 5.75917169,39.0682199 C5.62892708,38.9288547 5.55575032,38.7397881 5.55575035,38.5426408 L5.55575035,37.6658225 C5.54979416,37.3960849 5.68079926,37.1440627 5.89805063,37.0073194 C6.115302,36.8705761 6.384698,36.8705761 6.60194937,37.0073194 C6.81920074,37.1440627 6.95020584,37.3960849 6.94424965,37.6658225 L6.94424965,38.5426408 C6.94424965,38.7397161 6.87112614,38.9287197 6.74096545,39.068073 C6.61080476,39.2074263 6.43426899,39.2857142 6.25019398,39.2857142 Z" class="Path" fill="#363636"></path>
                </g>
            </g>
        </g>
    </g>
</svg>