<?xml version="1.0" encoding="UTF-8"?>
<svg width="50px" height="50px" viewBox="0 0 50 50" version="1.1" xmlns="http://www.w3.org/2000/svg" xmlns:xlink="http://www.w3.org/1999/xlink">
    <!-- Generator: sketchtool 52.6 (67491) - http://www.bohemiancoding.com/sketch -->
    <title>Icon: Circling arrow.</title>
    <g class="Mock-Up" stroke="none" stroke-width="1" fill="none" fill-rule="evenodd">
        <g class="sitediff-Mock-Up" transform="translate(-695.000000, -2002.000000)" fill-rule="nonzero">
            <g class="Features" transform="translate(0.000000, 1803.000000)">
                <g class="SafeUpgrades" transform="translate(695.000000, 199.000000)">
                    <path d="M47.7522376,41.2371134 L2.24776241,41.2371134 C1.00675654,41.2357428 0.00112113493,40.2113723 0,38.9474747 L0,2.28922433 C0.00134533608,1.02548861 1.00691519,0.00137015197 2.24776241,0 L47.7522376,0 C48.9930848,0.00137015197 49.9986547,1.02548861 50,2.28922433 L50,38.9474747 C49.9988789,40.2113723 48.9932435,41.2357428 47.7522376,41.2371134 Z M2.24776241,1.48250582 C1.81054547,1.48296293 1.45628605,1.84394237 1.45606184,2.28922433 L1.45606184,38.9474747 C1.45573789,39.1616496 1.53896703,39.3671835 1.68743974,39.5188612 C1.83591245,39.6705388 2.03746659,39.7559355 2.24776241,39.7562649 L47.7522376,39.7562649 C48.1893616,39.7555799 48.5434901,39.3947339 48.5439382,38.9495464 L48.5439382,2.28922433 C48.5437139,1.84394237 48.1894545,1.48296293 47.7522376,1.48250582 L2.24776241,1.48250582 Z M46.2318959,38.1403419 L3.76810415,38.1403419 C3.5750392,38.1404519 3.38985067,38.0623911 3.25333311,37.9233554 C3.11681556,37.7843197 3.04016864,37.5957152 3.04027665,37.399089 L3.04027665,3.83761009 C3.04016871,3.64094582 3.11680266,3.45229878 3.2533085,3.31319726 C3.38981433,3.17409575 3.57500179,3.09594281 3.76810415,3.09594284 L46.2318959,3.09594284 C46.4249982,3.09594281 46.6101857,3.17409575 46.7466915,3.31319726 C46.8831973,3.45229878 46.9598313,3.64094582 46.9597234,3.83761009 L46.9597234,37.399089 C46.9598314,37.5957152 46.8831844,37.7843197 46.7466669,37.9233554 C46.6101493,38.0623911 46.4249608,38.1404519 46.2318959,38.1403419 Z M4.49593165,36.6578361 L45.504882,36.6578361 L45.504882,4.578863 L4.49593165,4.578863 L4.49593165,36.6578361 Z" class="Shape" fill="#444444"></path>
                    <path d="M35.1221963,49.9999999 L13.867291,49.9999999 C13.6720641,50.0001156 13.4848018,49.9179794 13.3467555,49.7716846 C13.2087092,49.6253899 13.131204,49.4269384 13.1313132,49.2200465 L13.1313132,46.1412142 C13.1312041,45.9342822 13.2086962,45.735786 13.3467306,45.589422 C13.4847651,45.4430581 13.6720263,45.3608248 13.867291,45.3608249 L35.1221963,45.3608249 C35.3175323,45.3607091 35.5048992,45.4428913 35.6430226,45.5892678 C35.7811461,45.7356443 35.8586946,45.9342066 35.8585854,46.1412142 L35.8585854,49.2191745 C35.8588039,49.4262576 35.7813036,49.6249321 35.6431683,49.7714029 C35.505033,49.9178737 35.3176036,50.0001158 35.1221963,49.9999999 Z M14.6032687,48.4400931 L34.3862185,48.4400931 L34.3862185,46.9220396 L14.6032687,46.9220396 L14.6032687,48.4400931 Z" class="Shape" fill="#444444"></path>
                    <path d="M32.1011504,46.9050918 L17.3937991,46.9050918 C17.1456945,46.9051972 16.914677,46.7729325 16.781066,46.5542831 C16.6474551,46.3356337 16.6297098,46.0608071 16.7339997,45.8253543 L19.4841119,39.6137833 C19.604044,39.3456849 19.861721,39.1746352 20.1447239,39.1752594 L29.3510382,39.1752594 C29.6342156,39.1753505 29.8916217,39.3472597 30.0108376,39.6159079 L32.7609498,45.827479 C32.8652397,46.0629318 32.8474944,46.3377583 32.7138835,46.5564077 C32.5802725,46.7750571 32.349255,46.9073218 32.1011504,46.9072164 L32.1011504,46.9050918 Z M18.5313843,45.384281 L30.9635652,45.384281 L28.8866597,40.6939456 L20.6091024,40.6939456 L18.5313843,45.384281 Z" class="Shape" fill="#444444"></path>
                    <path d="M25.9171995,31.9587629 C19.3230063,31.9587629 13.9580656,26.5248024 13.9580656,19.8453608 C13.9594113,18.3964865 14.2173938,16.9596096 14.7197522,15.6030184 L14.2186426,15.7890533 C14.0362175,15.8570926 13.8345737,15.8489079 13.658109,15.7663013 C13.4816443,15.6836947 13.3448278,15.5334395 13.2777837,15.3486187 L12.1663431,12.282564 C12.099168,12.0977921 12.1072487,11.8935541 12.1888061,11.7148192 C12.2703635,11.5360843 12.4187103,11.3975077 12.6011835,11.3296011 L18.3931923,9.17507613 C19.6080869,8.72267215 20.9550567,9.35334716 21.4018952,10.583804 L23.5290544,16.4503267 C23.5964568,16.6350859 23.5884853,16.8394197 23.5068999,17.018216 C23.4253145,17.1970123 23.2768248,17.3355667 23.0942139,17.4032897 L20.0671029,18.529029 C19.8846779,18.5970683 19.683034,18.5888836 19.5065694,18.506277 C19.3301047,18.4236704 19.1932882,18.2734151 19.1262441,18.0885943 L18.9703888,17.658518 C18.7533569,18.3655141 18.6430268,19.1016639 18.6431335,19.8420462 C18.6431335,23.902497 21.9050502,27.2072068 25.914336,27.2072068 C29.9236219,27.2072068 33.1888111,23.9066403 33.1888111,19.8453608 C33.1888111,15.7840813 29.9268944,12.4806146 25.9171995,12.4806146 C25.7230367,12.4806146 25.5368322,12.4024631 25.3995767,12.2633641 C25.2623213,12.1242651 25.1852664,11.9356215 25.185375,11.7389608 L25.185375,8.4731982 C25.185375,8.06382296 25.513024,7.73195876 25.9171995,7.73195876 C32.5118018,7.73195876 37.8787879,13.1659192 37.8787879,19.8453608 C37.8787879,26.5248024 32.5118018,31.9587629 25.9171995,31.9587629 Z M16.1240862,13.5491761 C16.3837599,13.5493792 16.6239267,13.6887901 16.7553696,13.9156203 C16.8868125,14.1424505 16.8898909,14.4228064 16.7634612,14.6525414 C15.8864159,16.239342 15.424274,18.0268307 15.4208965,19.8453608 C15.4208965,25.7073259 20.1288723,30.4758697 25.9159723,30.4758697 C31.7030723,30.4758697 36.4130934,25.7073259 36.4130934,19.8453608 C36.4130934,14.2332377 32.0961877,9.62255439 26.6494331,9.24054054 L26.6494331,11.0283819 C31.1250577,11.4058381 34.6524602,15.2164469 34.6524602,19.8453608 C34.6524602,24.7241168 30.7339877,28.6930003 25.9171995,28.6930003 C21.1004114,28.6930003 17.1819388,24.7241168 17.1819388,19.8453608 C17.1813914,18.2519941 17.6071891,16.6882623 18.4140548,15.3204441 C18.5587972,15.0752662 18.8296989,14.9360819 19.1105174,14.9626147 C19.391336,14.9891474 19.6321475,15.1766802 19.7296209,15.4447437 L20.251184,16.8837177 L21.9034139,16.2692638 L20.0286504,11.098404 C19.9476717,10.876773 19.7836161,10.6964619 19.5721293,10.5966483 C19.3609017,10.4969018 19.119085,10.4867586 18.900438,10.5684737 L13.7940289,12.4685989 L14.4010874,14.1420847 L15.8708725,13.5930952 C15.952049,13.563405 16.0377817,13.5485349 16.1240862,13.5491761 Z" class="Shape" fill="#383FDA"></path>
                </g>
            </g>
        </g>
    </g>
</svg>