<?xml version="1.0" encoding="UTF-8"?>
<svg width="50px" height="50px" viewBox="0 0 50 50" version="1.1" xmlns="http://www.w3.org/2000/svg" xmlns:xlink="http://www.w3.org/1999/xlink">
    <!-- Generator: sketchtool 52.6 (67491) - http://www.bohemiancoding.com/sketch -->
    <title>Icon: A clock in the shape of a gear.</title>
    <g class="Mock-Up" stroke="none" stroke-width="1" fill="none" fill-rule="evenodd">
        <g class="sitediff-Mock-Up" transform="translate(-1086.000000, -2002.000000)">
            <g class="Features" transform="translate(0.000000, 1803.000000)">
                <g class="simpleeasytouse" transform="translate(1086.000000, 199.000000)">
                    <path d="M3.96802396,4.76189436 C3.8642735,4.76245047 3.76160255,4.74070527 3.66688773,4.69811519 C3.56964682,4.66013251 3.48130181,4.60226954 3.40744046,4.52818606 C3.25929815,4.37807669 3.17568642,4.1754727 3.17460317,3.96398569 C3.1747442,3.75243939 3.25850783,3.54962774 3.40744046,3.40023132 C3.6983762,3.10185184 4.23279322,3.09694575 4.52905095,3.40023132 C4.67798359,3.54962774 4.76174722,3.75243939 4.76188824,3.96398569 C4.76325896,4.1759636 4.67927174,4.37947748 4.52905095,4.52818606 C4.45713347,4.6021291 4.37054934,4.6600264 4.27492568,4.69811519 C4.17803962,4.74026085 4.07358548,4.76196811 3.96802396,4.76189436 Z" class="Path" fill="#363636"></path>
                    <path d="M8.73015985,3.96825397 C8.7298059,3.75765665 8.81328533,3.55558298 8.96215878,3.40666798 C9.11103224,3.25775298 9.31304953,3.17425025 9.52358808,3.1746043 C9.7341673,3.17425055 9.93622996,3.25773917 10.0851738,3.40664131 C10.2341176,3.55554345 10.3176958,3.75761581 10.3174598,3.96825397 C10.3176958,4.17889213 10.2341176,4.38096449 10.0851738,4.52986663 C9.93622996,4.67876877 9.7341673,4.76225739 9.52358808,4.76190364 C9.31304953,4.76225769 9.11103224,4.67875496 8.96215878,4.52983996 C8.81328533,4.38092496 8.7298059,4.17885129 8.73015985,3.96825397 Z" class="Path" fill="#363636"></path>
                    <path d="M15.8730055,4.76189605 C15.769088,4.76240293 15.6662535,4.74079557 15.5713423,4.69851123 C15.4742328,4.6607093 15.3860189,4.60320707 15.3122668,4.52963281 C15.1640835,4.38045159 15.0804486,4.17910033 15.0793651,3.96892097 C15.0795061,3.7586827 15.163293,3.55712507 15.3122668,3.40865239 C15.3488452,3.37062759 15.3896235,3.3368724 15.4338193,3.30803454 C15.4778949,3.28021748 15.5238458,3.25548402 15.5713423,3.23401171 C15.6189376,3.21337857 15.6688286,3.1984982 15.7199558,3.18968666 C15.9526708,3.14365981 16.1937854,3.20418394 16.3770966,3.35464094 C16.5604079,3.50509794 16.6666477,3.72967305 16.6666459,3.96670472 C16.6681845,4.17731708 16.5843301,4.37958225 16.4341877,4.52741655 C16.2856621,4.67685953 16.0837899,4.76120806 15.8730055,4.76189605 Z" class="Path" fill="#363636"></path>
                    <path d="M49.2720182,8.7301577 L0.727169321,8.7301577 C0.534349391,8.73026663 0.349389977,8.65292362 0.213007585,8.51515476 C0.0766251943,8.3773859 -3.01232164e-08,8.19048499 0,7.99559594 L0,0.734972358 C-1.44325385e-16,0.329058333 0.325564794,0 0.727169321,0 L49.2728307,0 C49.6744352,0 50,0.329058333 50,0.734972358 L50,7.99559594 C50.0000003,8.19062744 49.9232635,8.37765301 49.7867053,8.51544553 C49.6501471,8.65323805 49.4649788,8.73048475 49.2720182,8.7301577 Z M1.4539324,7.26103418 L48.5452551,7.26103418 L48.5452551,1.47158711 L1.4539324,1.47158711 L1.4539324,7.26103418 Z" class="Shape" fill="#363636" fill-rule="nonzero"></path>
                    <path d="M43.5988788,50 L0.727169321,50 C0.534312026,50 0.349353664,49.9240885 0.212982963,49.7889651 C0.076612262,49.6538418 -2.74218232e-15,49.4705752 0,49.2794819 L0,7.86297286 C-3.01232165e-08,7.67191656 0.0766251943,7.48869131 0.213007585,7.35363187 C0.349389977,7.21857242 0.534349391,7.14275046 0.727169321,7.14285726 L49.2728307,7.14285726 C49.4656506,7.14275046 49.65061,7.21857242 49.7869924,7.35363187 C49.9233748,7.48869131 50,7.67191656 50,7.86297286 L50,43.6586354 C50,43.8496917 49.9233748,44.032917 49.7869924,44.1679764 C49.65061,44.3030359 49.4656506,44.3788578 49.2728307,44.378751 L44.3256419,44.378751 L44.3256419,49.2794819 C44.3256419,49.6772559 44.0003246,49.9997778 43.5988788,50 Z M1.4539324,48.5593663 L42.8729282,48.5593663 L42.8729282,43.6586354 C42.8729282,43.2607043 43.198493,42.9381173 43.6000975,42.9381173 L48.5464738,42.9381173 L48.5464738,8.58349099 L1.4539324,8.58349099 L1.4539324,48.5593663 Z" class="Shape" fill="#363636" fill-rule="nonzero"></path>
                    <path d="M43.5854903,49.9999999 C43.1833553,49.9993269 42.8575911,49.6733693 42.8571429,49.2712201 L42.8571429,43.5859227 C42.8571429,43.3926383 42.9339221,43.2072703 43.0705901,43.0705975 C43.2072581,42.9339248 43.3926197,42.8571429 43.5858974,42.8571429 L49.2714041,42.8571429 C49.5660495,42.8572156 49.8316608,43.0347139 49.9444606,43.3069221 C50.0572605,43.5791302 49.995052,43.8924827 49.7868249,44.1009543 L44.1009111,49.7862516 C43.9643397,49.9231739 43.7788763,50.0000867 43.5854903,49.9999999 Z M44.3142448,44.3142955 L44.3142448,47.5127841 L47.5126222,44.3142955 L44.3142448,44.3142955 Z" class="Shape" fill="#363636" fill-rule="nonzero"></path>
                    <path d="M24.6193057,43.6507937 C24.2161703,43.6507937 23.8893013,43.324082 23.889076,42.9209154 L23.884586,39.5091018 C22.3211082,39.4077949 20.7932949,38.9970903 19.3897342,38.3008021 L17.6786537,41.2668511 C17.5819176,41.4347157 17.422381,41.5571981 17.2352338,41.6072814 C17.0480867,41.6573648 16.8487049,41.6309343 16.6810676,41.53382 C14.272251,40.1426603 12.2691614,38.1456071 10.8706594,35.7409214 C10.6682118,35.3918995 10.7867725,34.9448419 11.1355666,34.7420332 L14.0952625,33.021839 C13.3897381,31.6176948 12.9733297,30.0861645 12.8707296,28.5180655 L9.46326298,28.5319446 C9.26962561,28.5295946 9.08419659,28.453373 8.94487741,28.3188593 C8.80737042,28.1817149 8.73011524,27.9954655 8.73017599,27.8012499 C8.72607535,25.0181429 9.4526295,22.2827256 10.8371888,19.8685179 C11.0385417,19.5189051 11.4851233,19.3986622 11.8347749,19.5999162 L14.8018179,21.3070476 C15.66718,20.0014761 16.7828982,18.8805375 18.0843822,18.0091244 L16.3618727,15.0479739 C16.2643258,14.8805586 16.2373054,14.6812366 16.2867603,14.4938904 C16.3362153,14.3065442 16.458091,14.1465334 16.6255555,14.0490856 C18.3165024,13.0681555 20.1750964,12.410233 22.1065644,12.1088667 C22.9164571,11.9779526 23.7352414,11.9097152 24.55563,11.904762 L24.5576709,11.904762 C24.9603293,11.9045354 25.2871835,12.2303193 25.2883088,12.6330075 L25.2981051,16.0452293 C26.8623245,16.1396515 28.3917842,16.546475 29.7962223,17.2416908 L31.4987311,14.2723762 C31.5951318,14.1044002 31.7543373,13.9816292 31.9412907,13.9310974 C32.128244,13.8805655 32.3276145,13.9064165 32.4955009,14.002958 C34.9080782,15.3883452 36.9160485,17.3811315 38.3197871,19.7832022 C38.4174026,19.9505185 38.4445475,20.1497663 38.3952488,20.337101 C38.34595,20.5244356 38.224247,20.6845067 38.0569208,20.7820904 L35.0992658,22.5079995 C35.8097241,23.9146088 36.2295198,25.4499533 36.3335949,27.0223865 L39.739837,26.9946282 C39.9214761,27.004017 40.1218913,27.0689223 40.2602635,27.2060807 C40.3985208,27.3433229 40.476252,27.5300982 40.4761894,27.7249147 L40.4761894,27.7759409 C40.4771918,30.5618275 39.7451763,33.2989336 38.3536659,35.7123467 C38.1516024,36.0614635 37.70488,36.1807815 37.3556716,35.9789074 L34.3914858,34.2644282 C33.5236975,35.5683831 32.4058983,36.6872404 31.1027989,37.5562283 L32.8179612,40.5202363 C32.9150784,40.6878259 32.9416424,40.8871361 32.8918086,41.0743144 C32.8419749,41.2614927 32.719826,41.4212039 32.5522375,41.5183081 C30.1411073,42.9125337 27.4056881,43.647967 24.6205303,43.6507937 L24.6193057,43.6507937 Z M19.1109489,36.5920379 C19.239094,36.5919591 19.3649829,36.6257575 19.4758597,36.6900081 C20.3812115,37.2124318 21.3607441,37.5941172 22.3808597,37.8219726 C23.1103275,37.9862464 23.8556546,38.0697515 24.6033868,38.0709803 C25.0084149,38.0698257 25.3388603,38.3950165 25.3442292,38.8000421 L25.3487191,42.1698102 C27.3805923,42.0648268 29.3672773,41.5311819 31.1783117,40.6039192 L29.4811092,37.6770583 C29.2790446,37.3281432 29.397779,36.8814845 29.7464247,36.6789865 C31.307274,35.7725398 32.604392,34.4741953 33.509414,32.9124389 C33.7116056,32.5637151 34.1579895,32.4446214 34.5070001,32.6462864 L37.4352663,34.339947 C38.3678718,32.5138722 38.9004109,30.5099114 38.997362,28.4617326 L35.6319376,28.4894908 C35.4278488,28.5033699 35.2502915,28.4147885 35.1119193,28.2780384 C34.9737894,28.1410113 34.8959384,27.954595 34.8955852,27.7600207 C34.8896706,25.9468611 34.4038014,24.1675963 33.4873724,22.6031122 C33.3895739,22.4357467 33.3622831,22.2363755 33.4115069,22.0488817 C33.4607307,21.8613879 33.5824346,21.7011393 33.7498306,21.6034076 L36.6723823,19.8983172 C35.5598413,18.1969081 34.1016483,16.748755 32.3926401,15.6480416 L30.7093156,18.5814339 C30.6127666,18.749479 30.4533836,18.8722504 30.2662713,18.9227073 C30.079159,18.9731641 29.8796654,18.9471677 29.7117296,18.8504438 C28.1578406,17.9553288 26.3966156,17.4828644 24.6033868,17.4800851 C24.2009237,17.4800851 23.8392783,17.1559669 23.8380538,16.7534725 L23.8286657,13.3857455 C23.3433425,13.4143201 22.843325,13.4673874 22.3359602,13.5490292 C20.8251107,13.786108 19.3617656,14.2627656 18.001114,14.9610253 L19.7032146,17.8850288 C19.8010743,18.0525297 19.8283132,18.2520736 19.7789274,18.4396775 C19.7295417,18.6272814 19.6075854,18.7875444 19.4399401,18.8851416 C17.8811287,19.7946682 16.5867142,21.0953744 15.6847061,22.6586287 C15.5879506,22.8265766 15.4284027,22.9491676 15.2412096,22.9993959 C15.0540166,23.0496242 14.8545359,23.023369 14.6867118,22.926414 L11.7559966,21.2401013 C10.8351369,23.0520955 10.3078026,25.0383433 10.2085953,27.0685141 L13.5752442,27.054635 L13.5781014,27.054635 C13.9810776,27.0546348 14.3078807,27.3810979 14.3083312,27.7841051 C14.312688,29.5928489 14.7948251,31.3683329 15.7059313,32.9308084 C15.8032547,33.0984585 15.8298909,33.2979417 15.7799646,33.4852565 C15.7300382,33.6725713 15.6076513,33.8323282 15.4397995,33.9292884 L12.515207,35.629072 C13.624847,37.3323047 15.0801892,38.7831704 16.7867856,39.8875118 L18.4774573,36.9573852 C18.5742745,36.789394 18.7338869,36.6667752 18.9211463,36.6165304 C18.9830942,36.6002209 19.0468904,36.5919885 19.1109489,36.5920379 Z" class="Shape" fill="#383FDA" fill-rule="nonzero"></path>
                    <path d="M25.0147182,31.7460317 C24.7438118,31.7461082 24.4975367,31.5763499 24.3836863,31.3110593 L22.2871196,26.4407114 C22.1252197,26.0643686 22.2766706,25.6176421 22.6253948,25.4429198 C22.974119,25.2681976 23.3880616,25.4316432 23.5499616,25.807986 L24.9894302,29.1500523 L27.2350013,23.4723183 C27.3859432,23.0907582 27.7949217,22.9134963 28.1484803,23.0763926 C28.5020389,23.239289 28.6662922,23.6806581 28.5153503,24.0622182 L25.6550872,31.2896465 C25.5471409,31.5625398 25.3005206,31.7413456 25.0256115,31.7460317 L25.0147182,31.7460317 Z" class="Path" fill="#383FDA"></path>
                </g>
            </g>
        </g>
    </g>
</svg>