<svg width="138" height="31" xmlns="http://www.w3.org/2000/svg" xmlns:xlink="http://www.w3.org/1999/xlink"><g class="Mock-Up" fill="none" fill-rule="evenodd"><g class="sitediff-Mock-Up"><g class="#1"><g class="Navbar-/-#09"><g class="Navbar"><g class="Atoms-/-Logo-/-Brand-/-bright"><g class="logo-bright-bg"><g class="Group"><g class="Rectangle-Copy-4" transform="translate(0 7.552)"><use class="Mask" fill="#87C05D" xlink:href="#path-1"/><path d="M20.966-2.683l20.43 11.227c.191.076.278.2.192.276l-20.43 11.226a1.084 1.084 0 01-.695 0L.033 8.82c-.086-.076.001-.2.193-.276l20.43-11.227a.239.239 0 01.31 0z" fill="#568D3A" opacity=".5" mask="url(#mask-2)"/></g><path d="M20.986.057l20.45 11.263c.191.076.278.2.192.277l-20.45 11.262a1.082 1.082 0 01-.695 0L.033 11.597c-.086-.077.001-.2.193-.277L20.676.057a.239.239 0 01.31 0z" class="Rectangle-Copy-3" fill="#383FDA" opacity=".899"/></g><g class="Group-2" fill="#FFF"><path d="M51.43 19.849c.017-.295.111-.63.283-1.003.171-.373.369-.664.591-.872 1.372.764 2.486 1.146 3.344 1.146.874 0 1.521-.148 1.941-.443.42-.295.63-.686.63-1.172 0-.764-.54-1.354-1.62-1.77l-1.44-.548c-2.177-.833-3.266-2.074-3.266-3.723 0-1.198.424-2.14 1.273-2.826.849-.686 1.959-1.029 3.33-1.029 1.39 0 2.77.313 4.14.938 0 .347-.072.712-.218 1.094-.145.382-.338.677-.578.885-1.218-.573-2.358-.86-3.42-.86-.567 0-1.017.14-1.351.417-.334.278-.501.625-.501 1.042 0 .417.124.738.372.964.25.225.656.45 1.222.677l1.543.599c2.178.85 3.266 2.152 3.266 3.906 0 1.198-.454 2.144-1.363 2.838-.909.695-2.143 1.042-3.703 1.042s-3.052-.434-4.475-1.302zm16.82-9.662v10.625c-.327.07-.768.105-1.325.105-.557 0-.999-.035-1.325-.105v-9.53c0-.487-.085-.834-.257-1.042-.171-.209-.463-.313-.874-.313h-.283a4.538 4.538 0 01-.129-.963c0-.26.043-.59.129-.99.566-.07 1.106-.104 1.62-.104h.36c.652 0 1.162.208 1.53.625.369.416.553.98.553 1.692zm-3.215-4.661c-.155-.312-.232-.694-.232-1.146 0-.712.129-1.133.386-1.263.257-.13.686-.204 1.286-.221.686.017 1.123.104 1.311.26.189.157.292.564.309 1.224-.017.625-.12 1.025-.309 1.198-.188.174-.625.27-1.311.287-.669 0-1.149-.113-1.44-.339zm14.581 2.396c.086.295.129.634.129 1.015 0 .382-.043.712-.129.99l-3.163-.052v7.786c0 .764.352 1.146 1.055 1.146h1.774c.137.382.206.769.206 1.16 0 .39-.017.646-.052.767-.994.122-1.954.183-2.88.183-1.8 0-2.7-.894-2.7-2.683V9.901l-1.903.026a4.317 4.317 0 01-.103-.976c0-.356.034-.7.103-1.03l1.903.053V5.682c0-.625.102-1.067.308-1.328.206-.26.575-.39 1.106-.39h1.003l.18.182V8l3.163-.078zm13.22 7.318h-7.562c.052 1.198.304 2.118.759 2.76.454.642 1.221.964 2.302.964.514 0 1.067-.079 1.658-.235a8.229 8.229 0 001.84-.755c.428.4.71.972.848 1.719-1.372.972-2.983 1.458-4.835 1.458-.977 0-1.8-.174-2.469-.52a4.44 4.44 0 01-1.633-1.433c-.42-.608-.724-1.333-.913-2.175a12.438 12.438 0 01-.283-2.72c0-.956.12-1.846.36-2.67.24-.825.583-1.532 1.029-2.123a4.793 4.793 0 011.659-1.393c.66-.338 1.401-.508 2.224-.508.823 0 1.556.14 2.199.417a4.646 4.646 0 011.633 1.159 4.996 4.996 0 011.016 1.77 6.92 6.92 0 01.347 2.227c0 .348-.013.69-.038 1.029a8.712 8.712 0 01-.142 1.029zm-4.939-5.625c-1.628 0-2.503 1.224-2.623 3.671h5.195v-.338c0-.99-.21-1.793-.63-2.409-.42-.616-1.067-.924-1.942-.924zM101.63 7.74c.926 0 1.895.286 2.907.859v-6.77l.18-.157h1.003c.531 0 .9.13 1.105.39.206.26.309.704.309 1.329v13.75c0 1.215.24 2.04.72 2.474a2.747 2.747 0 01-.386.78c-.188.279-.385.478-.591.6-.977-.191-1.655-.73-2.032-1.615-1.011 1.18-2.246 1.771-3.703 1.771-1.458 0-2.563-.595-3.318-1.784-.754-1.19-1.131-2.843-1.131-4.96 0-1.06.133-2.002.398-2.826.266-.825.622-1.524 1.068-2.097a4.493 4.493 0 011.568-1.302 4.257 4.257 0 011.903-.442zm.103 11.171c1.115 0 2.05-.546 2.804-1.64v-6.459c-.96-.625-1.792-.937-2.495-.937-.772 0-1.406.39-1.903 1.172-.497.781-.746 1.936-.746 3.463 0 1.51.223 2.622.669 3.334.445.712 1.003 1.067 1.671 1.067zm13.682-8.724v10.625c-.326.07-.767.105-1.324.105-.558 0-1-.035-1.325-.105v-9.53c0-.487-.086-.834-.257-1.042-.172-.209-.463-.313-.874-.313h-.283a4.538 4.538 0 01-.129-.963c0-.26.043-.59.129-.99.565-.07 1.105-.104 1.62-.104h.36c.651 0 1.161.208 1.53.625.369.416.553.98.553 1.692zM112.2 5.526c-.154-.312-.231-.694-.231-1.146 0-.712.128-1.133.386-1.263.257-.13.685-.204 1.285-.221.686.017 1.123.104 1.312.26.189.157.292.564.309 1.224-.017.625-.12 1.025-.309 1.198-.189.174-.626.27-1.312.287-.668 0-1.148-.113-1.44-.339zm8.924 15.286V9.875l-2.211.052a3.331 3.331 0 01-.078-.469 5.296 5.296 0 01-.025-.52c0-.4.034-.738.103-1.016l2.083.026c-.103-1.06-.155-1.832-.155-2.318 0-.59.09-1.133.27-1.627.18-.495.442-.925.785-1.29a3.536 3.536 0 011.234-.846c.48-.2 1.02-.3 1.62-.3 1.2 0 2.315.2 3.344.6 0 .78-.206 1.389-.618 1.823a11.156 11.156 0 00-1.118-.287 5.009 5.009 0 00-.965-.104c-.72 0-1.238.195-1.556.586-.317.39-.475.976-.475 1.758 0 .295.017.607.051.937.034.33.077.695.129 1.094l3.626-.052c.034.156.06.317.077.482a5.178 5.178 0 010 1.054c-.017.174-.043.33-.077.47l-3.446-.053v10.937c-.189.035-.395.061-.617.079a8.946 8.946 0 01-1.39 0 4.941 4.941 0 01-.59-.079zm9.85 0V9.875l-2.212.052a3.331 3.331 0 01-.077-.469 5.296 5.296 0 01-.026-.52c0-.4.035-.738.103-1.016l2.083.026c-.102-1.06-.154-1.832-.154-2.318 0-.59.09-1.133.27-1.627.18-.495.442-.925.785-1.29a3.536 3.536 0 011.234-.846c.48-.2 1.02-.3 1.62-.3 1.2 0 2.315.2 3.343.6 0 .78-.205 1.389-.617 1.823a11.156 11.156 0 00-1.118-.287 5.009 5.009 0 00-.965-.104c-.72 0-1.239.195-1.556.586-.317.39-.476.976-.476 1.758 0 .295.018.607.052.937.034.33.077.695.128 1.094l3.627-.052c.034.156.06.317.077.482a5.178 5.178 0 010 1.054c-.017.174-.043.33-.077.47l-3.446-.053v10.937c-.19.035-.395.061-.618.079a8.946 8.946 0 01-1.388 0 4.941 4.941 0 01-.592-.079z" class="sitediff"/></g></g></g></g></g></g></g></g></svg>