<svg width="50" height="50" xmlns="http://www.w3.org/2000/svg"><g class="Mock-Up" fill="none" fill-rule="evenodd"><g class="sitediff-Mock-Up"><g class="Features"><g class="Collaborative"><path d="M14 15a4.28 4.28 0 01-1.916-.458C10.211 13.613 9 11.438 9 9c0-3.308 2.243-6 5-6s5 2.692 5 6c0 2.438-1.21 4.613-3.084 5.542A4.286 4.286 0 0114 15zm0-10.609c-1.97 0-3.572 2.068-3.572 4.61 0 1.89.926 3.619 2.304 4.302.82.407 1.716.407 2.536 0 1.378-.684 2.303-2.412 2.303-4.302 0-2.542-1.6-4.61-3.571-4.61zM22.282 25H4.718C4.322 25 4 24.66 4 24.241v-3.754C4.003 18.01 5.9 16.003 8.243 16H11.9c.19 0 .373.08.507.222.135.143.21.336.21.537v.187c0 .264.106.515.291.692a.852.852 0 00.681.236c.445-.045.794-.485.794-1.001v-.114c0-.419.321-.759.718-.759h3.656c2.342.003 4.24 2.01 4.243 4.487v3.754c0 .42-.321.759-.718.759zM5.436 23.482h16.127v-2.995c-.001-1.64-1.257-2.968-2.808-2.97h-3.014c-.246.996-1.043 1.77-2.016 1.867-1.15.12-2.209-.677-2.479-1.866H8.243c-1.55 0-2.807 1.33-2.808 2.97v2.994zM36 37a4.281 4.281 0 01-1.916-.458C32.21 35.613 31 33.438 31 31c0-3.308 2.243-6 5-6s5 2.692 5 5.999c0 2.438-1.21 4.613-3.084 5.542-.592.3-1.25.457-1.916.459zm0-10.61c-1.97 0-3.572 2.068-3.572 4.61 0 1.89.926 3.62 2.304 4.303.82.406 1.716.406 2.535 0 1.378-.684 2.305-2.413 2.305-4.303 0-2.542-1.603-4.61-3.572-4.61zM45.282 47H27.718c-.397 0-.718-.34-.718-.759v-3.754c.002-2.477 1.9-4.484 4.243-4.487h3.656c.397 0 .719.34.719.76v.185c0 .264.105.516.29.693a.852.852 0 00.681.236c.445-.045.793-.485.793-1.001v-.114c0-.201.076-.394.21-.537A.699.699 0 0138.1 38h3.657c2.342.003 4.24 2.01 4.243 4.487v3.754c0 .42-.322.759-.718.759zm-16.846-1.517h16.128V42.49c-.001-1.64-1.258-2.969-2.809-2.97H38.74c-.246.996-1.043 1.77-2.014 1.867-1.151.119-2.21-.678-2.48-1.867h-3.003c-1.551 0-2.808 1.33-2.808 2.97v2.994z" class="Shape" fill="#383FDA" fill-rule="nonzero"/><path d="M49.284 50H.716A.716.716 0 010 49.284V.716C0 .321.32 0 .716 0L37.12.026a.716.716 0 01.715.717v11.449h11.45c.394 0 .714.32.715.715v36.377c0 .395-.32.716-.716.716zM1.433 48.567h47.134V13.623H37.118a.717.717 0 01-.716-.716V1.457l-34.97-.024v47.134z" class="Shape" fill="#363636" fill-rule="nonzero"/><path d="M49.263 14H36.738a.738.738 0 01-.738-.738V.737a.738.738 0 011.26-.521L49.783 12.74A.738.738 0 0149.263 14zm-11.789-1.475h10.007L37.475 2.518l-.001 10.007z" class="Shape" fill="#363636" fill-rule="nonzero"/><path d="M24.287 40H15.73c-.403 0-.73-.31-.73-.692V26.675c.01-.375.333-.675.73-.675.396 0 .72.3.73.675v11.94h7.827c.397.01.713.317.713.692 0 .376-.316.683-.713.692V40z" class="Path" fill="#363636"/><path class="Path" fill="#363636" d="M21 37l2.164 2.5L21 42h1.837L25 39.5 22.837 37zM36.266 24c-.406 0-.735-.314-.735-.702v-2.894h-8.814c-.399-.009-.717-.32-.717-.702 0-.381.318-.693.717-.702h9.549c.405 0 .734.314.734.702v3.596a.687.687 0 01-.215.496.752.752 0 01-.52.206z"/><path class="Path" fill="#363636" d="M29 22l-2.165-2.5L29 17h-1.837L25 19.5l2.163 2.5z"/></g></g></g></g></svg>