<svg width="340" height="463" xmlns="http://www.w3.org/2000/svg"><defs><linearGradient x1="13.067%" y1="2.207%" x2="100%" y2="92.17%" id="a"><stop stop-color="#E9ECF3" offset="0%"/><stop stop-color="#D1D6E3" offset="100%"/></linearGradient><linearGradient x1="13.067%" y1="2.207%" x2="47.696%" y2="93.9%" id="b"><stop stop-color="#F9F9FB" offset="0%"/><stop stop-color="#F0F1F5" offset="100%"/></linearGradient><linearGradient x1="13.067%" y1="2.207%" x2="47.889%" y2="94.41%" id="c"><stop stop-color="#F9F9FB" offset="0%"/><stop stop-color="#F0F1F5" offset="99.447%"/></linearGradient><linearGradient x1="95.379%" y1="40.766%" x2="-5.087%" y2="61.198%" id="d"><stop stop-color="#CCC6FF" offset="1%"/><stop stop-color="#E2D8F6" offset="100%"/></linearGradient><linearGradient x1="13.067%" y1="2.207%" x2="47.889%" y2="94.41%" id="e"><stop stop-color="#F3F4F8" offset="0%"/><stop stop-color="#E9ECF3" offset="100%"/></linearGradient><linearGradient x1="-1661.991%" y1="-61.477%" x2="-1561.991%" y2="-61.477%" id="f"><stop stop-color="#E2D8F6" offset="0%"/><stop stop-color="#CCC6FF" offset="99%"/></linearGradient><linearGradient x1="13.067%" y1="2.207%" x2="46.533%" y2="90.821%" id="g"><stop stop-color="#FFF" offset="0%"/><stop stop-color="#F9F9FB" offset="100%"/></linearGradient><linearGradient x1="0%" y1="40.684%" x2="9.38%" y2="97.652%" id="h"><stop stop-color="#FFF" offset="0%"/><stop stop-color="#D1D6E3" offset="100%"/></linearGradient><linearGradient x1="-269.351%" y1="68.401%" x2="-169.351%" y2="68.401%" id="i"><stop stop-color="#E2D8F6" offset="0%"/><stop stop-color="#CCC6FF" offset="99%"/></linearGradient></defs><g fill="none" fill-rule="evenodd"><path d="M219.22 434.85L336.77 367c3.65-2.11 3.19-5.78-1-8.21l-50.39-29.1c-4.21-2.43-10.57-2.69-14.22-.58L153.59 397c-3.65 2.11-3.19 5.78 1 8.21L205 434.26c4.21 2.43 10.58 2.74 14.22.59z" fill="#B7BBC8"/><path d="M150.13 393.41l3.46-.21 116.55-67.29c3.65-2.1 10-1.84 14.22.59l50.39 29.09a8.89 8.89 0 012 1.61l1.44-.74v3.74a4.14 4.14 0 01-2.42 3.63l-117.55 67.84c-3.64 2.1-10 1.84-14.22-.59L153.61 402c-2.3-1.33-3.44-3-3.44-4.65l-.04-3.94z" fill="url(#a)"/><path d="M218.22 427.85L335.77 360c3.65-2.11 3.19-5.78-1-8.21l-50.39-29.1c-4.21-2.43-10.57-2.69-14.22-.58L152.59 390c-3.65 2.11-3.19 5.78 1 8.21L204 427.26c4.21 2.43 10.58 2.74 14.22.59z" fill="url(#b)"/><path d="M282.31 327.41l-7.09 4.09a.93.93 0 01-.83 0l-2.4-1.39c-.24-.14-.26-.35-.05-.47l7.09-4.1a.91.91 0 01.82 0l2.4 1.38c.24.15.27.37.06.49zM273.65 332.41l-7.1 4.09a.91.91 0 01-.82 0l-2.4-1.39c-.24-.14-.27-.35-.06-.47l7.09-4.1a.93.93 0 01.83 0l2.4 1.38c.24.15.27.37.06.49zM265 337.41l-7.09 4.09a.91.91 0 01-.82 0l-2.4-1.39c-.24-.14-.27-.35-.06-.47l7.09-4.1a.93.93 0 01.83 0l2.39 1.38c.23.15.25.37.06.49zM256.32 342.41l-7.09 4.09a.91.91 0 01-.82 0l-2.4-1.38c-.24-.15-.27-.36-.06-.48l7.09-4.09a.93.93 0 01.83 0l2.39 1.38c.25.14.27.36.06.48zM247.66 347.41l-7.09 4.09a.91.91 0 01-.82 0l-2.4-1.38c-.24-.14-.27-.36-.06-.48l7.09-4.09a.85.85 0 01.82 0l2.4 1.38c.24.14.27.36.06.48zM239 352.41l-7.09 4.1a.93.93 0 01-.83 0l-2.39-1.38c-.25-.14-.27-.36-.06-.48l7.09-4.09a.91.91 0 01.82 0l2.4 1.39c.24.13.27.34.06.46zM230.34 357.41l-7.09 4.1a.93.93 0 01-.83 0l-2.4-1.38c-.24-.14-.26-.36 0-.48l7.09-4.09a.91.91 0 01.82 0l2.4 1.39c.19.13.22.34.01.46zM221.68 362.41l-7.1 4.1a.91.91 0 01-.82 0l-2.4-1.38c-.24-.14-.27-.36-.06-.48l7.09-4.09a.93.93 0 01.83 0l2.4 1.39c.24.13.27.34.06.46zM213 367.41l-7.09 4.1a.91.91 0 01-.82 0l-2.4-1.38c-.24-.14-.27-.36-.06-.48l7.09-4.09a.93.93 0 01.83 0l2.39 1.39c.26.13.28.34.06.46zM204.35 372.41l-7.09 4.1a.91.91 0 01-.82 0l-2.4-1.38c-.24-.14-.27-.35-.06-.48l7.09-4.09a.93.93 0 01.83 0l2.39 1.39c.25.13.27.34.06.46zM195.69 377.42l-7.09 4.09a.91.91 0 01-.82 0l-2.4-1.39c-.24-.14-.27-.35-.06-.47l7.09-4.1a.91.91 0 01.82 0l2.4 1.38c.24.15.27.36.06.49zM187 382.42l-7.09 4.09a.93.93 0 01-.83 0l-2.39-1.39c-.25-.14-.27-.35-.06-.47l7.09-4.1a.91.91 0 01.82 0l2.4 1.38c.27.15.3.36.06.49zM178.37 387.42l-7.09 4.09a.93.93 0 01-.83 0l-2.4-1.39c-.24-.14-.26-.35-.05-.47l7.09-4.1a.91.91 0 01.82 0l2.4 1.38c.24.15.27.37.06.49zM159.33 394.62l7.09-4.1a.93.93 0 01.83 0l2.4 1.38c.24.14.27.36.06.48l-7.1 4.09a.91.91 0 01-.82 0l-2.4-1.39c-.24-.08-.27-.34-.06-.46zM220.69 410l7.09-4.1a.93.93 0 01.83 0l2.39 1.38c.25.14.27.36.06.48l-7.06 4.17a.91.91 0 01-.82 0l-2.4-1.39c-.27-.17-.3-.34-.09-.54zM211.85 415.14l7.09-4.09a.93.93 0 01.83 0l2.39 1.39c.25.14.27.35.06.47l-7.09 4.1a.91.91 0 01-.82 0l-2.4-1.38c-.24-.15-.27-.37-.06-.49zM218.75 410.94l-7.09 4.06a.91.91 0 01-.82 0l-2.4-1.39c-.25-.14-.27-.35-.06-.47l7.09-4.1a.91.91 0 01.82 0l2.4 1.38c.24.18.31.4.06.52zM203 420.2l7.1-4a.93.93 0 01.83 0l2.4 1.39c.24.14.27.35.06.47l-7.1 4.1a.91.91 0 01-.82 0l-2.4-1.38c-.24-.2-.27-.41-.07-.58zM291.08 332.62l-5.92 3.38c-.35.17-.76.17-1.11 0l-5.76-3.32c-.32-.19-.36-.48-.08-.64l5.92-3.42c.35-.17.76-.17 1.11 0L291 332c.33.2.36.46.08.62zM269.75 336.91l5.92-3.41a1.21 1.21 0 011.11 0l5.76 3.33c.33.19.36.47.08.64l-5.92 3.42a1.24 1.24 0 01-1.11-.05l-5.76-3.33c-.32-.14-.36-.43-.08-.6zM300 337.76l-3.53 2-5.94 3.44a1.25 1.25 0 01-1.1 0l-5.76-3.32c-.33-.19-.36-.48-.08-.64l1.81-1 2.27-1.31 1.84-1.06.15-.09 3.37-1.95a1.24 1.24 0 011.11 0l5.76 3.32c.33.16.36.45.1.61zM308.88 342.9l-5.88 3.42-4.39 2.53-.9.52a1.21 1.21 0 01-1.11 0l-5.76-3.37c-.33-.19-.36-.47-.08-.64l1.75-1 3.54-2L302 339a1.22 1.22 0 011.1 0l5.76 3.32c.27.13.31.42.02.58zM317.79 348l-5.92 3.42-2.54 1.47-5.92 3.42-.38.21a1.21 1.21 0 01-1.11 0l-5.76-3.36c-.32-.19-.36-.47-.08-.64l.38-.22 5.92-3.41 2.54-1.47 5.92-3.42a1.24 1.24 0 011.11 0l5.76 3.32c.29.27.36.56.08.68zM314.57 352.2l5.2-3c.33-.17.72-.17 1.05 0l5.82 3.36c.31.18.35.45.08.61l-5.21 3a1.17 1.17 0 01-1 0l-5.83-3.37c-.35-.21-.38-.49-.11-.6zM307.05 356.5l5.2-3c.33-.17.72-.17 1.05 0l5.83 3.36c.3.18.34.45.07.61l-5.2 3c-.33.17-.72.17-1.05 0l-5.83-3.37c-.3-.17-.34-.44-.07-.6zM298 361.74l5.92-3.42a1.22 1.22 0 011.1.05l5.76 3.32c.33.19.36.48.08.64l-5.92 3.42a1.22 1.22 0 01-1.1-.05l-5.76-3.32c-.35-.18-.39-.48-.08-.64zM287.69 367.68l1.18-.68 5.92-3.41a1.21 1.21 0 011.11 0l5.76 3.33c.33.19.36.48.08.64l-5.92 3.44-1.19.68a1.25 1.25 0 01-1.1 0l-5.76-3.33c-.33-.22-.37-.51-.08-.67zM261.29 341.8l5.92-3.42a1.24 1.24 0 011.11.05l5.76 3.32c.33.19.36.48.08.64l-5.92 3.42a1.24 1.24 0 01-1.11-.05l-5.76-3.32c-.32-.19-.37-.44-.08-.64zM252.83 346.68l5.92-3.41a1.21 1.21 0 011.11 0l5.76 3.33c.33.19.36.47.08.64l-5.92 3.41a1.21 1.21 0 01-1.11 0l-5.76-3.33c-.32-.19-.36-.47-.08-.64zM244.37 351.57l5.92-3.42a1.24 1.24 0 011.11.05l5.76 3.32c.32.19.36.48.08.64l-5.92 3.42a1.24 1.24 0 01-1.11-.05l-5.76-3.33c-.33-.2-.36-.47-.08-.63zM235.91 356.45l5.92-3.42a1.24 1.24 0 011.11.05l5.76 3.33c.32.18.36.47.08.64l-5.92 3.41a1.21 1.21 0 01-1.11 0l-5.75-3.37c-.34-.19-.37-.47-.09-.64zM227.45 361.34l5.92-3.42c.35-.17.76-.17 1.11 0l5.76 3.32c.32.19.36.48.08.64l-5.92 3.42c-.35.17-.76.17-1.11 0l-5.76-3.3c-.33-.21-.36-.5-.08-.66zM219 366.2l5.92-3.42c.35-.17.76-.17 1.11 0l5.76 3.33c.32.18.36.47.08.63l-5.93 3.46c-.35.17-.76.17-1.11 0l-5.76-3.33c-.33-.2-.36-.49-.07-.67zM210.53 371.11l5.92-3.42c.35-.17.76-.17 1.11 0l5.76 3.33c.32.19.36.48.08.64l-5.92 3.42a1.24 1.24 0 01-1.11-.05l-5.76-3.32c-.33-.15-.36-.44-.08-.6zM202.07 376l5.92-3.42a1.24 1.24 0 011.11.05l5.76 3.32c.32.19.36.48.08.64L209 380c-.35.17-.76.17-1.11 0l-5.76-3.33c-.31-.23-.34-.47-.06-.67zM193.61 380.88l5.92-3.42c.35-.17.76-.17 1.11 0l5.76 3.33c.32.19.36.48.08.64l-5.92 3.42a1.24 1.24 0 01-1.11-.05l-5.76-3.33c-.33-.14-.36-.47-.08-.59zM198 386.35l-5.92 3.42a1.24 1.24 0 01-1.11 0l-5.76-3.32c-.33-.19-.36-.48-.08-.64l5.92-3.42a1.24 1.24 0 011.11.05l5.76 3.32c.34.14.38.44.08.59zM300.11 358.25l-5.92 3.42a1.24 1.24 0 01-1.11-.05l-5.76-3.32c-.32-.19-.36-.48-.08-.64l5.92-3.42c.35-.17.76-.17 1.11 0l5.76 3.33c.33.23.36.52.08.68zM291.65 363.13l-5.92 3.42c-.35.17-.76.17-1.11 0l-5.76-3.35c-.32-.19-.36-.48-.08-.64l5.92-3.42a1.24 1.24 0 011.11.05l5.76 3.32c.33.17.36.49.08.62zM283.19 368l-5.92 3.42a1.24 1.24 0 01-1.11-.05l-5.76-3.33c-.32-.18-.36-.47-.08-.64l5.92-3.41a1.21 1.21 0 011.11 0l5.76 3.33c.33.25.36.53.08.68zM274.73 372.9l-5.92 3.42a1.24 1.24 0 01-1.11-.05l-5.76-3.27c-.32-.19-.36-.48-.08-.64l5.92-3.42a1.24 1.24 0 011.11.05l5.76 3.32c.35.14.35.43.08.59zM266.27 377.79l-5.92 3.41a1.21 1.21 0 01-1.11 0l-5.76-3.33c-.32-.19-.36-.47-.08-.64l5.92-3.41a1.21 1.21 0 011.11 0l5.76 3.33c.33.19.36.47.08.64zM257.81 382.67l-5.92 3.42a1.24 1.24 0 01-1.11 0l-5.78-3.37c-.32-.19-.36-.48-.08-.64l5.92-3.42a1.24 1.24 0 011.11 0l5.76 3.32c.35.22.38.53.1.69zM249.35 387.56l-5.92 3.44a1.21 1.21 0 01-1.11 0l-5.76-3.33c-.32-.19-.36-.47-.08-.64l5.92-3.41a1.21 1.21 0 011.11 0l5.76 3.33c.33.16.36.44.08.61zM245.39 392.1l5.91-3.41 2.55-1.47 5.91-3.42 3.94-2.27 4.53-2.61 3.82-2.21 2.65-1.51 5.92-3.42 4.53-2.61a1.19 1.19 0 011.1 0l5.75 3.33c.33.19.37.47.08.64l-4.53 2.61-5.92 3.45-2.63 1.52-5.92 3.42-3.83 2.2-2.54 1.47-.29.17-1.7 1-3.93 2.22-2.54 1.47-5.92 3.41a1.19 1.19 0 01-1.1 0l-5.77-3.33c-.32-.2-.36-.48-.07-.65zM240.89 392.44l-5.89 3.42a1.24 1.24 0 01-1.11-.05l-5.76-3.32c-.32-.19-.36-.48-.08-.64l5.92-3.42c.35-.17.76-.17 1.11 0l5.76 3.32c.3.25.33.53.05.69zM235 397.75l5.91-3.42 1.62-.93a1.22 1.22 0 011.1.05l5.76 3.33c.33.18.37.47.08.63l-1.61.93-5.86 3.42a1.25 1.25 0 01-1.1 0l-5.77-3.33c-.35-.23-.39-.52-.13-.68zM226.35 402.76l5.92-3.42a1.22 1.22 0 011.1.05l5.76 3.33c.33.18.37.47.08.63l-5.92 3.42a1.19 1.19 0 01-1.1 0l-5.76-3.33c-.33-.24-.37-.52-.08-.68zM232.43 397.33l-5.92 3.41a1.21 1.21 0 01-1.11 0l-5.76-3.33c-.32-.19-.36-.47-.08-.64l5.92-3.42a1.24 1.24 0 011.11 0l5.76 3.33c.33.19.36.52.08.65zM211.1 401.62l5.9-3.42c.35-.17.76-.17 1.11 0l5.76 3.33c.32.19.36.48.08.64l-5.95 3.42a1.24 1.24 0 01-1.11-.05l-5.76-3.32c-.28-.15-.31-.44-.03-.6zM191.16 413.13l3-1.74 3.93-2.27 5.91-3.42 4.53-2.62a1.24 1.24 0 011.11 0l5.76 3.33c.32.18.36.47.08.63l-5.92 3.42-4.56 2.67-1 .59-5.92 3.42a1.24 1.24 0 01-1.11 0l-5.76-3.32c-.29-.24-.33-.53-.05-.69zM176.69 390.64l5.92-3.41a1.21 1.21 0 011.11 0l5.76 3.33c.32.19.36.47.08.64l-5.92 3.41a1.21 1.21 0 01-1.11 0l-5.76-3.33c-.33-.19-.36-.47-.08-.64zM289.3 346.87l5.76 3.33c.32.19.36.48.08.64l-5.92 3.42a1.24 1.24 0 01-1.11-.05l-5.76-3.32c-.33-.19-.36-.48-.08-.64l5.92-3.42a1.27 1.27 0 011.11.04zM280.84 351.76l5.76 3.33c.32.18.36.47.08.63l-5.92 3.42c-.35.17-.76.17-1.11 0l-5.76-3.33c-.33-.19-.36-.48-.08-.64l5.92-3.42a1.24 1.24 0 011.11.01zM278.22 360.61L272.3 364a1.24 1.24 0 01-1.11 0l-5.76-3.33c-.33-.18-.36-.47-.08-.63l5.92-3.42c.35-.17.76-.17 1.11 0l5.76 3.33c.32.25.36.5.08.66zM269.76 365.49l-5.92 3.42c-.35.17-.76.17-1.11 0l-5.73-3.37c-.33-.19-.36-.48-.08-.64l5.92-3.42a1.24 1.24 0 011.11 0l5.76 3.32c.29.2.29.53.05.69zM261.3 370.38l-5.92 3.42a1.24 1.24 0 01-1.11-.05l-5.76-3.33c-.33-.18-.36-.47-.08-.64l5.92-3.41a1.21 1.21 0 011.11 0l5.76 3.33c.32.23.36.5.08.68zM252.84 375.26l-5.92 3.42a1.24 1.24 0 01-1.11-.05l-5.76-3.32c-.33-.19-.36-.48-.08-.64l5.92-3.42a1.24 1.24 0 011.11.05l5.76 3.32c.32.19.36.48.08.64zM244.38 380.2l-5.92 3.41a1.21 1.21 0 01-1.11 0l-5.76-3.41c-.33-.19-.36-.47-.08-.64l5.92-3.41a1.21 1.21 0 011.11 0l5.76 3.33c.32.22.36.52.08.72zM235.92 385l-5.92 3.45a1.24 1.24 0 01-1.11-.05l-5.76-3.32c-.33-.19-.36-.48-.08-.64L229 381a1.24 1.24 0 011.11.05l5.76 3.32c.29.21.33.5.05.63zM227.46 389.92l-5.92 3.41a1.21 1.21 0 01-1.11 0l-5.76-3.33c-.33-.19-.36-.47-.08-.64l5.92-3.41a1.21 1.21 0 011.11 0l5.76 3.33c.32.19.36.47.08.64zM206.13 394.2l5.92-3.42a1.24 1.24 0 011.11.05l5.76 3.32c.32.19.36.48.08.64l-5.92 3.41c-.35.17-.76.17-1.11 0l-5.76-3.32c-.33-.22-.36-.51-.08-.68zM210.54 399.68l-5.92 3.42a1.21 1.21 0 01-1.11 0l-5.76-3.33c-.33-.19-.36-.48-.08-.64l5.92-3.42c.35-.17.76-.17 1.11 0l5.76 3.33c.32.16.36.48.08.64zM182.26 408l2.65-1.53 5.92-3.42 4.3-2.48c.35-.17.76-.17 1.11 0l5.76 3.33c.32.19.36.48.08.64l-4.31 2.46-5.92 3.42-2.64 1.58a1.24 1.24 0 01-1.11-.05l-5.76-3.32c-.34-.19-.34-.43-.08-.63zM288 344.68l-5.92 3.42a1.25 1.25 0 01-1.1 0l-5.76-3.33c-.33-.19-.37-.48-.08-.64l5.92-3.42a1.25 1.25 0 011.1 0l5.76 3.33c.32.16.36.48.08.64zM266.67 349l5.92-3.42a1.19 1.19 0 011.1 0l5.76 3.33c.33.19.37.48.08.64l-5.92 3.45a1.22 1.22 0 01-1.1-.05l-5.76-3.33c-.33-.19-.37-.48-.08-.62zM258.21 353.86l5.92-3.42a1.22 1.22 0 011.1.05l5.76 3.32c.33.19.37.48.08.64l-5.92 3.42a1.25 1.25 0 01-1.1 0l-5.76-3.33c-.29-.23-.37-.54-.08-.68zM249.75 358.74l5.92-3.41a1.19 1.19 0 011.1 0l5.76 3.33c.33.19.37.47.08.64l-5.92 3.42a1.22 1.22 0 01-1.1-.05l-5.76-3.33c-.33-.14-.37-.43-.08-.6zM241.29 363.63l5.92-3.42a1.22 1.22 0 011.1.05l5.76 3.32c.33.19.37.48.08.64l-5.92 3.42a1.22 1.22 0 01-1.1-.05l-5.76-3.32c-.37-.19-.37-.48-.08-.64zM232.83 368.51l5.92-3.41a1.19 1.19 0 011.1 0l5.76 3.33c.33.19.37.47.08.64l-5.92 3.41a1.19 1.19 0 01-1.1 0l-5.76-3.28c-.33-.2-.37-.52-.08-.69zM224.37 373.4l5.92-3.42a1.22 1.22 0 011.1 0l5.76 3.32c.33.19.37.48.08.64l-5.92 3.42a1.25 1.25 0 01-1.1 0l-5.76-3.32c-.33-.19-.37-.48-.08-.64zM228.77 378.88l-5.92 3.41a1.19 1.19 0 01-1.1 0l-5.75-3.37c-.33-.19-.37-.47-.08-.64l5.92-3.41a1.19 1.19 0 011.1 0l5.76 3.33c.3.23.35.51.07.68zM213.29 387.13l-5.76-3.32c-.33-.19-.37-.48-.08-.64l5.92-3.42a1.22 1.22 0 011.1.05l5.76 3.32c.33.19.36.48.08.64l-5.92 3.44a1.25 1.25 0 01-1.1-.07zM211.85 388.65l-5.92 3.41a1.19 1.19 0 01-1.1 0l-5.77-3.33c-.32-.19-.36-.48-.07-.64l5.91-3.42a1.24 1.24 0 011.11.05l5.76 3.33c.33.15.36.43.08.6zM196.37 396.9l-5.77-3.32c-.32-.19-.36-.48-.07-.64l5.91-3.42c.35-.17.76-.17 1.11 0l5.76 3.33c.33.19.36.48.08.64l-5.92 3.42a1.22 1.22 0 01-1.1-.01zM194.93 398.41l-5.93 3.42c-.35.17-.76.17-1.11 0l-5.76-3.33c-.32-.19-.36-.48-.08-.64l5.95-3.46a1.24 1.24 0 011.11.05l5.76 3.32c.31.23.34.48.06.64zM173.6 402.71l5.92-3.42a1.21 1.21 0 011.11 0l5.76 3.33c.33.19.36.48.08.64l-5.92 3.42c-.35.17-.76.17-1.11 0l-5.76-3.33c-.32-.15-.36-.48-.08-.64zM164.7 397.57l3.53-2 5.92-3.42c.35-.17.76-.17 1.11 0l5.76 3.32c.32.19.36.48.08.64l-3.53 2-5.92 3.42a1.24 1.24 0 01-1.11 0l-5.76-3.28c-.32-.25-.36-.52-.08-.68z" fill="#7D84A1"/><path d="M84 434.13L96.39 427c.482-.273.983-.51 1.5-.71a13.25 13.25 0 015-1.16 24.62 24.62 0 015.22.11 60.92 60.92 0 0123.27 7.36c10.2 5.89 15.57 13.71 13.33 17.61a6.9 6.9 0 01-3 3l-12.39 7.16c-5.06 2.92-14 2.55-19.82-.82L85.4 445.6c-5.84-3.4-6.48-8.55-1.4-11.47z" fill="#B7BBC8"/><path d="M80.57 437.2V433l2.64-.23c.24-.17.49-.34.77-.5l12.39-7.1c.483-.27.984-.508 1.5-.71a13.25 13.25 0 015-1.16 24.62 24.62 0 015.22.11 60.92 60.92 0 0123.27 7.36c6.6 3.81 11.16 8.43 13 12.28l.87-.57v4.08a3.83 3.83 0 01-.49 1.81 7 7 0 01-3 3l-12.39 7.15c-5.06 2.92-14 2.55-19.82-.82l-24.13-14c-3.17-1.83-4.8-4.18-4.82-6.42l-.01-.08z" fill="url(#a)"/><path d="M84 428.36l12.37-7.16c.482-.273.983-.51 1.5-.71a12.88 12.88 0 015-1.16 24.62 24.62 0 015.22.11 61.08 61.08 0 0123.27 7.35c10.2 5.9 15.57 13.72 13.33 17.62a6.9 6.9 0 01-3 3l-12.39 7.16c-5.06 2.92-14 2.55-19.82-.82l-24.08-14c-5.84-3.32-6.48-8.47-1.4-11.39z" fill="url(#c)"/><path fill="url(#d)" d="M111.14 337.34l31.14-17.97v-70.03l-31.14 17.98z"/><path fill="url(#b)" d="M114.65 339.27l31.14-17.97v-70.03l-31.14 17.98z"/><path fill="url(#e)" d="M114.65 339.27l-3.51-1.93v-70.02l3.51 1.93z"/><path fill="url(#f)" d="M145.79 251.27l-3.51-1.93-31.14 17.98 3.51 1.93z"/><path d="M110.34 347.09v-4.59h1.214a11.09 11.09 0 013.694-3.21l28.332-16.17c6.011-3.43 15.573-3.76 22.262-.76l24.204 10.84c1.751.71 2.645-.298 3.79 1.192l1.644 1.748v3.73c-.111 2-1.487 4-4.169 5.5l-37.065 21.14c-6.072 3.46-16.049 3.12-21.341-.72L113.902 352a8 8 0 01-3.491-5l-.071.09z" fill="#B7BBC8"/><path d="M110.34 345.09v-4.59h1.2a11 11 0 013.65-3.21l28-16.17c5.94-3.43 15.39-3.76 22-.76l23.92 10.84c1.73.71 3.24 1.87 4.37 3.36l1-.42v3.73c-.11 2-1.47 4-4.12 5.5l-36.63 21.14c-6 3.46-15.86 3.12-21.09-.72L113.86 350a8 8 0 01-3.45-5l-.07.09z" fill="url(#b)"/><path d="M153.75 361.11L190.38 340c6-3.46 5.39-9.16-1.27-12.18L165.21 317c-6.61-3-16.06-2.67-22 .76l-28 16.17c-5.94 3.43-6.51 8.89-1.32 12.7l18.78 13.81c5.22 3.76 15.09 4.13 21.08.67z" fill="url(#g)"/><path d="M26.23 184.28L238.28 61.84a3.56 3.56 0 013.33-.38c.147.068.287.148.42.24l7.66 4.5-6 4.48v164.81c0 4-2.42 8.61-5.41 10.33L58.07 349.87l.46.75-27.76 22.58-7.88-4.57a3.38 3.38 0 01-.41-.24c-1-.73-1.62-2.19-1.62-4.2V194.61c-.04-3.98 2.38-8.61 5.37-10.33z" fill="url(#h)"/><path d="M34.56 373.09l212.05-122.43c3-1.72 5.41-6.35 5.41-10.33V70.77c0-4-2.42-5.81-5.41-4.09l-212 122.43c-3 1.73-5.41 6.35-5.41 10.34V369c-.05 4 2.37 5.82 5.36 4.09z" fill="url(#i)"/><path d="M29.15 199.45V369c0 4 2.42 5.81 5.41 4.08l115-66.41 21.13-12.2 16.76-9.67 42.24-24.39 16.9-9.76c3-1.72 5.41-6.35 5.41-10.33V70.77c0-4-2.42-5.81-5.41-4.09L70.38 168.43l-35.82 20.68a11.3 11.3 0 00-4.17 5 13 13 0 00-1.24 5.34z" fill="url(#g)"/><path fill="#202592" d="M29.15 356.46l222.87-128.67V86.11L29.15 214.79z"/><g opacity=".17"><path d="M30.39 194.12l157.08 90.69 42.24-24.39-159.33-92-35.82 20.68a11.17 11.17 0 00-4.17 5.02z" fill="#E9ECF3"/><path fill="#D1D3D4" d="M29.15 212.75v24.4l120.43 69.53 21.13-12.2z"/></g><path d="M202.2 1.39L61.28 82.74c-3.59 2.08-6.51 7.65-6.51 12.44v210.1c0 4.8 2.92 7 6.51 4.92l140.92-81.34c3.59-2.08 6.51-7.65 6.51-12.44V6.32c-.02-4.75-2.94-7-6.51-4.93z" fill="#FFF" opacity=".6"/><path fill="#383FDA" d="M155.61 228.06l-49.87 28.79v6.65l49.87-28.8z"/><path fill="#A7A9AC" d="M77.27 262.07l-3.66 2.11v6.65l3.66-2.11z"/><path fill="#00A651" d="M131.5 230.76l-30.21 17.44v6.65l30.21-17.44z"/><path fill="#91C46C" d="M168.14 209.61l-30.21 17.44v6.64l30.21-17.43z"/><path fill="#A7A9AC" d="M77.27 250.85l-3.66 2.11v6.65l3.66-2.11z"/><path fill="#E6E7E8" d="M164.02 200.77l-3.66 2.11v6.65l3.66-2.11z"/><path fill="#BCBEC0" d="M127.65 221.76L104.2 235.3v6.65l23.45-13.54z"/><path fill="#A7A9AC" d="M77.27 239.63l-3.66 2.12v6.64l3.66-2.11z"/><path fill="#E6E7E8" d="M119.48 215.26l-22.65 13.08v6.65l22.65-13.08z"/><path fill="#A7A9AC" d="M77.27 228.42l-3.66 2.11v6.65l3.66-2.12z"/><path fill="#E6E7E8" d="M143.45 190.21l-14.49 8.36v6.65l14.49-8.36z"/><path fill="#A7A9AC" d="M196.93 159.33l-47.4 27.37v6.65l47.4-27.37zM77.27 217.2l-3.66 2.11v6.65l3.66-2.11z"/><path fill="#E6E7E8" d="M100.71 203.73l-3.66 2.12v6.64l3.66-2.11z"/><path fill="#00A651" d="M133.78 184.64l-28.13 16.24v6.65l28.13-16.24z"/><path fill="#E6E7E8" d="M148.7 176.03l-13.21 7.62v6.65l13.21-7.63zM195.66 148.91L153.6 173.2v6.64l42.06-24.28z"/><path fill="#A7A9AC" d="M77.27 205.98l-3.66 2.12v6.64l3.66-2.11z"/><path fill="#E6E7E8" d="M110.57 186.76l-18.45 10.65v6.65l18.45-10.65z"/><path fill="#383FDA" d="M160.74 157.79l-44.81 25.87v6.65l44.81-25.87z"/><path fill="#A7A9AC" d="M77.27 194.76l-3.66 2.12v6.65l3.66-2.12z"/><path fill="#E6E7E8" d="M175.02 138.33l-3.66 2.12v6.64l3.66-2.11zM112.98 174.15l-17.2 9.93v6.64l17.2-9.92z"/><path fill="#A7A9AC" d="M168.39 142.16l-49.81 28.75v6.65l49.81-28.76zM77.27 183.55l-3.66 2.11v6.65l3.66-2.11zM128.96 153.7l-23.31 13.47v6.64l23.31-13.46z"/><path fill="#E6E7E8" d="M155.11 138.61l-23.32 13.46v6.65l23.32-13.46z"/><path fill="#A7A9AC" d="M77.27 172.33L70.92 176v6.65l6.35-3.67z"/><path fill="#E6E7E8" d="M145.25 133.09l-32.5 18.76v6.64l32.5-18.76zM155.94 126.91l-8.17 4.72v6.65l8.17-4.72z"/><path fill="#383FDA" d="M184.7 110.3l-24.77 14.31v6.64l24.77-14.3z"/><path fill="#A7A9AC" d="M77.27 161.72l-6.35 3.66v6.65l6.35-3.67z"/><path fill="#C6E070" d="M131.97 130.13l-9.34 5.4v6.65l9.34-5.4z"/><path fill="#BCBEC0" d="M168.44 109.08l-34.78 20.08v6.65l34.78-20.08z"/><path fill="#A7A9AC" d="M77.27 151.1l-6.35 3.67v6.65l6.35-3.67z"/><path fill="#E6E7E8" d="M136.77 116.75l-17.56 10.14v6.65l17.56-10.14zM145.25 111.86l-6.26 3.61v6.64l6.26-3.6z"/><path fill="#A7A9AC" d="M77.27 140.49l-6.35 3.67v6.64l6.35-3.67z"/><path fill="#E6E7E8" d="M124.8 113.05L112.75 120v6.65l12.05-6.95z"/><path fill="#383FDA" d="M177.98 82.34l-43.67 25.22v6.65l43.67-25.22z"/><path fill="#E6E7E8" d="M132.27 108.73l-6.02 3.48v6.65l6.02-3.48z"/><path fill="#A7A9AC" d="M77.27 129.87l-6.35 3.67v6.65l6.35-3.67z"/><path fill="#E6E7E8" d="M108.01 112.13l-3.18 1.83v6.65l3.18-1.83z"/><path fill="#C6E070" d="M131.79 98.4l-20.4 11.78v6.64l20.4-11.78z"/><path fill="#E6E7E8" d="M185.03 67.66l-49.98 28.86v6.65l49.98-28.87z"/><path fill="#A7A9AC" d="M77.27 119.26l-6.35 3.67v6.65l6.35-3.67z"/><path fill="#91C46C" d="M117.3 96.71l-20.44 11.81v6.64l20.44-11.8z"/><path fill="#383FDA" d="M166.96 68.05l-33.73 19.47v6.65l33.73-19.48z"/><path fill="#E6E7E8" d="M129.26 89.81l-8.14 4.7v6.65l8.14-4.7z"/><path fill="#A7A9AC" d="M77.27 108.65l-6.35 3.66v6.65l6.35-3.67z"/><path fill="#E6E7E8" d="M112.75 88.16l-4.54 2.62v6.65l4.54-2.62zM178.99 49.92l-24.86 14.35v6.65l24.86-14.35zM145.25 69.4l-26.4 15.24v6.65l26.4-15.24z"/><path fill="#A7A9AC" d="M77.27 98.03l-6.35 3.67v6.65l6.35-3.67z"/><path fill="#C6E070" d="M125.19 70.37l-13.8 7.96v6.65l13.8-7.97z"/><path fill="#E6E7E8" d="M135.63 64.34l-5.76 3.32v6.65l5.76-3.32z"/><path fill="#A7A9AC" d="M102.9 258.49l-20.54 11.86V277l20.54-11.86z"/><path fill="#E6E7E8" d="M97.62 239.11l-3.67 2.11v6.65l3.67-2.12zM155.75 205.54l-23.45 13.54v6.65l23.45-13.54z"/><path fill="#00A651" d="M92.55 230.81l-3.66 2.12v6.64l3.66-2.11z"/><path fill="#383FDA" d="M183.44 178.64l-60.9 35.17v6.64l60.9-35.16z"/><path fill="#91C46C" d="M127.18 199.6l-33.23 19.19v6.64l33.23-19.18z"/><path fill="#E6E7E8" d="M90.72 198.22l-3.66 2.11v6.65l3.66-2.12zM98.38 249.88l-9.49 5.48v6.65l9.49-5.48z"/><path fill="#A7A9AC" d="M77.27 273.29l-3.66 2.11v6.65l3.66-2.12z"/><path d="M290.29 29.44l-140.92 81.35c-3.59 2.08-6.51 7.65-6.51 12.44v210.1c0 4.8 2.92 7 6.51 4.92l140.92-81.34c3.59-2.08 6.51-7.65 6.51-12.44V34.37c-.02-4.75-2.94-7-6.51-4.93z" fill="#202592" opacity=".6"/><path fill="#383FDA" d="M243.7 256.11l-49.87 28.78v6.66l49.87-28.8z"/><path fill="#A7A9AC" d="M165.36 290.12l-3.66 2.11v6.65l3.66-2.12z"/><path fill="#00A651" d="M219.59 258.81l-30.21 17.44v6.64l30.21-17.44z"/><path fill="#91C46C" d="M256.23 237.65l-30.21 17.45v6.64l30.21-17.43z"/><path fill="#A7A9AC" d="M165.36 278.89L161.7 281v6.65l3.66-2.1z"/><path fill="#E6E7E8" d="M252.11 228.81l-3.66 2.12v6.64l3.66-2.11z"/><path fill="#BCBEC0" d="M215.74 249.81l-23.45 13.54V270l23.45-13.55z"/><path fill="#A7A9AC" d="M165.36 267.68l-3.66 2.12v6.64l3.66-2.12z"/><path fill="#E6E7E8" d="M207.57 243.31l-22.65 13.07v6.66l22.65-13.09z"/><path fill="#A7A9AC" d="M165.36 256.46l-3.66 2.11v6.66l3.66-2.12z"/><path fill="#E6E7E8" d="M231.54 218.25l-14.49 8.37v6.64l14.49-8.36z"/><path fill="#A7A9AC" d="M285.02 187.38l-47.4 27.37v6.64l47.4-27.37zM165.36 245.25l-3.66 2.11V254l3.66-2.11z"/><path fill="#E6E7E8" d="M188.8 231.77l-3.66 2.12v6.65l3.66-2.11z"/><path fill="#00A651" d="M221.87 212.69l-28.13 16.24v6.64l28.13-16.24z"/><path fill="#E6E7E8" d="M236.79 204.07l-13.21 7.62v6.66l13.21-7.64zM283.75 176.95l-42.06 24.3v6.63l42.06-24.27z"/><path fill="#A7A9AC" d="M165.36 234.02l-3.66 2.12v6.65l3.66-2.11z"/><path fill="#E6E7E8" d="M198.66 214.81l-18.45 10.64v6.66l18.45-10.66z"/><path fill="#383FDA" d="M248.83 185.83l-44.81 25.87v6.66l44.81-25.87z"/><path fill="#A7A9AC" d="M165.36 222.81l-3.66 2.12v6.64l3.66-2.12z"/><path fill="#E6E7E8" d="M263.11 166.38l-3.66 2.12v6.63l3.66-2.11zM201.07 202.19l-17.2 9.94v6.63l17.2-9.91z"/><path fill="#A7A9AC" d="M256.48 170.2l-49.81 28.75v6.66l49.81-28.76zM165.36 211.6l-3.66 2.1v6.66l3.66-2.11zM217.05 181.75l-23.31 13.46v6.65l23.31-13.47z"/><path fill="#E6E7E8" d="M243.2 166.65l-23.32 13.47v6.64l23.32-13.45z"/><path fill="#A7A9AC" d="M165.36 200.38l-6.35 3.67v6.64l6.35-3.67z"/><path fill="#E6E7E8" d="M233.34 161.13l-32.5 18.76v6.65l32.5-18.77zM244.03 154.95l-8.17 4.73v6.64l8.17-4.71z"/><path fill="#383FDA" d="M272.79 138.34l-24.77 14.31v6.65l24.77-14.3z"/><path fill="#A7A9AC" d="M165.36 189.76l-6.35 3.67v6.64l6.35-3.67z"/><path fill="#C6E070" d="M220.06 158.18l-9.34 5.39v6.66l9.34-5.41z"/><path fill="#BCBEC0" d="M256.53 137.13l-34.78 20.07v6.66l34.78-20.08z"/><path fill="#A7A9AC" d="M165.36 179.14l-6.35 3.67v6.65l6.35-3.66z"/><path fill="#E6E7E8" d="M224.86 144.79l-17.56 10.15v6.64l17.56-10.14zM233.34 139.91l-6.26 3.6v6.64l6.26-3.59z"/><path fill="#A7A9AC" d="M165.36 168.54l-6.35 3.66v6.65l6.35-3.67z"/><path fill="#E6E7E8" d="M212.89 141.09l-12.05 6.96v6.64l12.05-6.94z"/><path fill="#383FDA" d="M266.07 110.38L222.4 135.6v6.65l43.67-25.22z"/><path fill="#E6E7E8" d="M220.36 136.78l-6.02 3.47v6.65l6.02-3.47z"/><path fill="#A7A9AC" d="M165.36 157.92l-6.35 3.66v6.66l6.35-3.68z"/><path fill="#E6E7E8" d="M196.1 140.18l-3.18 1.82v6.65l3.18-1.83z"/><path fill="#C6E070" d="M219.88 126.44l-20.4 11.78v6.65l20.4-11.78z"/><path fill="#E6E7E8" d="M273.12 95.71l-49.98 28.85v6.66l49.98-28.88z"/><path fill="#A7A9AC" d="M165.36 147.31l-6.35 3.67v6.65l6.35-3.68z"/><path fill="#91C46C" d="M205.39 124.75l-20.44 11.81v6.65l20.44-11.8z"/><path fill="#383FDA" d="M255.05 96.09l-33.73 19.47v6.66l33.73-19.48z"/><path fill="#E6E7E8" d="M217.35 117.85l-8.14 4.71v6.65l8.14-4.71z"/><path fill="#A7A9AC" d="M165.36 136.69l-6.35 3.66V147l6.35-3.66z"/><path fill="#E6E7E8" d="M200.84 116.21l-4.54 2.61v6.65l4.54-2.62zM267.08 77.97l-24.86 14.34v6.66l24.86-14.35zM233.34 97.44l-26.4 15.25v6.65l26.4-15.25z"/><path fill="#A7A9AC" d="M165.36 126.07l-6.35 3.68v6.65l6.35-3.68z"/><path fill="#C6E070" d="M213.28 98.41l-13.8 7.97v6.65l13.8-7.97z"/><path fill="#E6E7E8" d="M223.72 92.38l-5.76 3.33v6.64l5.76-3.32z"/><path fill="#A7A9AC" d="M190.99 286.54l-20.54 11.85v6.66l20.54-11.86z"/><path fill="#E6E7E8" d="M185.71 267.15l-3.67 2.11v6.66l3.67-2.12zM243.84 233.58l-23.45 13.55v6.64l23.45-13.53z"/><path fill="#00A651" d="M180.64 258.86l-3.66 2.12v6.64l3.66-2.12z"/><path fill="#383FDA" d="M271.53 206.69l-60.9 35.17v6.64l60.9-35.17z"/><path fill="#91C46C" d="M215.27 227.64l-33.23 19.19v6.65l33.23-19.18z"/><path fill="#E6E7E8" d="M178.81 226.26l-3.66 2.12v6.64l3.66-2.12zM186.47 277.93l-9.49 5.47v6.66l9.49-5.49z"/><path fill="#A7A9AC" d="M165.36 301.33l-3.66 2.11v6.66l3.66-2.12z"/><path d="M28.49 128.25h.17c1.25.09 1.52 2.12.55 3.57-.69 1-1.42 2-2.13 3l-8.51 11.89c-.58.82-1.06 1.25-1.52 1.31-.46.06-.9-.26-1.41-.92l-3.79-4.94a2.62 2.62 0 01-.09-3.24c.242-.412.65-.7 1.12-.79a1.54 1.54 0 011.37.72c1 1.29 2 2.59 3 4 3.29-4.6 6.46-9.08 9.69-13.48a2.69 2.69 0 011.55-1.12zm-6.96-17.12c11.06-1.39 19.53 9.66 18.88 24.64-.65 14.98-10.16 28.28-21.22 29.66C8.13 166.81-.34 155.77.31 140.79c.65-14.98 10.16-28.28 21.22-29.66zm-2.19 50.78c9.62-1.21 17.91-12.79 18.47-25.82.56-13.03-6.81-22.65-16.43-21.44-9.62 1.21-17.91 12.79-18.47 25.82-.56 13.03 6.81 22.65 16.43 21.44z" fill="#A7D671"/></g></svg>