<svg width="50" height="50" xmlns="http://www.w3.org/2000/svg"><g class="Mock-Up" fill="none" fill-rule="evenodd"><g class="sitediff-Mock-Up"><g class="Features"><g class="Customizations"><path d="M49.273 8.62H.727A.717.717 0 010 7.915V.707C0 .317.326 0 .727 0h48.546c.401 0 .727.316.727.707v7.207c0 .39-.326.707-.727.707zM1.455 7.209h47.09V1.413H1.455v5.795z" class="Shape" fill="#363636" fill-rule="nonzero"/><path d="M49.273 50H.727A.726.726 0 010 49.277V8.194c0-.4.326-.723.727-.723h48.546c.401 0 .727.324.727.723v41.085a.726.726 0 01-.727.721zM1.455 48.554h47.09V8.917H1.455v39.637z" class="Shape" fill="#363636" fill-rule="nonzero"/><path d="M4.07 5.172a.579.579 0 01-.582-.574.567.567 0 01.211-.446.582.582 0 01.483-.117.339.339 0 01.109.032.81.81 0 01.1.054c.032.02.062.044.09.069.108.11.17.256.17.41a.58.58 0 01-.17.406.517.517 0 01-.09.066.513.513 0 01-.1.053.526.526 0 01-.22.047zM9.302 4.598a.57.57 0 01.17-.407.584.584 0 01.993.407.58.58 0 01-.581.574.58.58 0 01-.582-.574zM16.279 5.172a.59.59 0 01-.484-.258.5.5 0 01-.05-.1.55.55 0 010-.444.629.629 0 01.05-.1.602.602 0 01.969 0c.019.035.038.065.054.1.012.036.022.072.03.108a.56.56 0 01-.03.336.822.822 0 01-.055.1.59.59 0 01-.484.258z" class="Path" fill="#363636"/><path d="M31.238 50H19.343a.751.751 0 01-.522-.21.704.704 0 01-.216-.505V25.428c0-.395.33-.715.738-.715h11.895c.408 0 .739.32.739.715v23.857c0 .19-.078.372-.217.506a.751.751 0 01-.522.209zm-11.155-1.43H30.5V26.146H20.083v22.426zM27.693 19.897h-4.99a.693.693 0 01-.597-.353.791.791 0 01-.034-.726l2.496-5.4a.7.7 0 01.63-.418.7.7 0 01.63.418l2.495 5.4a.791.791 0 01-.034.726.693.693 0 01-.596.353zM23.831 18.4h2.734l-1.368-2.958-1.366 2.958z" class="Shape" fill="#383FDA" fill-rule="nonzero"/><path d="M31.238 25.862H19.344a.742.742 0 01-.628-.34.71.71 0 01-.035-.702l3.322-6.6a.74.74 0 01.663-.404h5.25a.74.74 0 01.663.404l3.322 6.6a.71.71 0 01-.035.7.742.742 0 01-.626.342h-.002zm-10.707-1.446h9.52l-2.594-5.153h-4.332l-2.594 5.153z" class="Shape" fill="#383FDA" fill-rule="nonzero"/><path d="M23.256 50c-.321 0-.581-.32-.582-.715V25.412c.008-.39.266-.7.582-.7.316 0 .574.31.581.7v23.873c0 .395-.26.715-.581.715zM26.744 50a.532.532 0 01-.411-.21.807.807 0 01-.17-.505V25.412c.007-.39.265-.7.581-.7.316 0 .574.31.582.7v23.873c0 .395-.26.715-.582.715z" class="Path" fill="#383FDA"/></g></g></g></g></svg>