<svg width="50" height="50" xmlns="http://www.w3.org/2000/svg"><g class="Mock-Up" fill="none" fill-rule="evenodd"><g class="sitediff-Mock-Up"><g class="Features"><g class="RuleBasedTesting"><path d="M49.13 50H.87c-.48 0-.87-.331-.87-.74V.74C0 .543.092.355.255.216A.954.954 0 01.871 0h36.521c.231 0 .453.078.616.216a.687.687 0 01.255.523v9.227H49.13c.23 0 .452.078.615.217a.687.687 0 01.255.522v38.556a.687.687 0 01-.255.522.954.954 0 01-.615.217zM1.74 48.522h46.52V11.444H37.392c-.48 0-.87-.33-.87-.739V1.48H1.741v47.042z" class="Shape" fill="#363636" fill-rule="nonzero"/><path d="M49.103 11.905H37.008c-.495 0-.897-.344-.897-.769V.77c0-.311.219-.592.554-.71.335-.12.72-.054.977.166l12.095 10.367c.257.22.334.55.195.838-.14.288-.466.475-.83.475zm-11.198-1.538h9.033l-9.033-7.742v7.742zM39.222 22.095a4.5 4.5 0 110-9 4.5 4.5 0 010 9zm0-7.464a2.965 2.965 0 100 5.93 2.965 2.965 0 000-5.93z" class="Shape" fill="#363636" fill-rule="nonzero"/><path d="M39.222 34a4.5 4.5 0 110-9 4.5 4.5 0 010 9zm0-7.464a2.965 2.965 0 100 5.931 2.965 2.965 0 000-5.931z" class="Shape" fill="#383FDA" fill-rule="nonzero"/><path d="M39.222 45.905a4.5 4.5 0 110-9 4.5 4.5 0 010 9zm0-7.464a2.965 2.965 0 100 5.93 2.965 2.965 0 000-5.93z" class="Shape" fill="#363636" fill-rule="nonzero"/><path d="M39.327 30.597l-2.612-2.853a.627.627 0 01-.012-.727c.151-.227.435-.368.744-.372.309-.003.597.132.755.355l1.87 1.807 4.153-5.834c.245-.344.776-.457 1.187-.251.41.206.544.652.299.996l-4.897 6.88c-.156.22-.439.355-.743.354-.305 0-.588-.135-.744-.355z" class="Path" fill="#383FDA"/><path d="M31.075 14.286H9.162c-.46-.008-.829-.272-.829-.596 0-.323.368-.587.83-.595h21.912c.308-.005.596.108.752.294a.447.447 0 010 .603c-.156.186-.444.299-.752.294zM31.075 17.857H9.162c-.46-.008-.829-.272-.829-.595 0-.323.368-.588.83-.595h21.912c.308-.005.596.107.752.293a.447.447 0 010 .604c-.156.186-.444.298-.752.293zM22.79 21.429H9.154c-.456-.008-.82-.272-.82-.596 0-.323.364-.587.82-.595H22.79c.457.008.821.272.821.595 0 .324-.364.588-.821.596zM31.075 26.19H9.162c-.46-.007-.829-.272-.829-.595 0-.323.368-.587.83-.595h21.912c.308-.005.596.107.752.294a.447.447 0 010 .603c-.156.186-.444.298-.752.293zM31.075 29.762H9.162c-.46-.008-.829-.272-.829-.595 0-.324.368-.588.83-.595h21.912c.308-.006.596.107.752.293a.447.447 0 010 .603c-.156.187-.444.299-.752.294zM31.096 33.333H9.182c-.469 0-.849-.266-.849-.595 0-.329.38-.595.849-.595h21.914c.469 0 .848.266.848.595 0 .329-.38.595-.848.595zM31.096 38.095H9.182c-.469 0-.849-.266-.849-.595 0-.329.38-.595.849-.595h21.914c.469 0 .848.266.848.595 0 .329-.38.595-.848.595zM26.923 41.667H9.188c-.472 0-.855-.267-.855-.596 0-.328.383-.595.855-.595h17.735c.472 0 .855.267.855.595 0 .33-.383.596-.855.596zM31.075 45.238H9.162c-.46-.008-.829-.272-.829-.595 0-.323.368-.588.83-.595h21.912c.308-.005.596.107.752.293a.447.447 0 010 .604c-.156.186-.444.298-.752.293zM6.25 15.476a.668.668 0 01-.491-.22.787.787 0 01-.203-.534v-.89c.008-.41.317-.737.694-.737.377 0 .686.327.694.736v.89c.001.2-.072.392-.202.534a.668.668 0 01-.492.221zM6.25 27.381a.667.667 0 01-.491-.22.788.788 0 01-.203-.535v-.89c.008-.409.317-.736.694-.736.377 0 .686.327.694.737v.89c0 .2-.073.391-.203.533a.668.668 0 01-.49.221zM6.25 39.286a.672.672 0 01-.49-.218.77.77 0 01-.204-.525v-.877a.756.756 0 01.342-.659.655.655 0 01.704 0 .756.756 0 01.342.659v.877a.77.77 0 01-.203.525.672.672 0 01-.49.218z" class="Path" fill="#363636"/></g></g></g></g></svg>