<svg width="50" height="50" xmlns="http://www.w3.org/2000/svg"><g class="Mock-Up" fill="none" fill-rule="evenodd"><g class="sitediff-Mock-Up" fill-rule="nonzero"><g class="Features"><g class="SafeUpgrades"><path d="M47.752 41.237H2.248C1.007 41.236 0 40.211 0 38.947V2.29C.001 1.025 1.007.001 2.248 0h45.504C48.993.001 50 1.025 50 2.29v36.657c-.001 1.264-1.007 2.289-2.248 2.29zM2.248 1.483a.8.8 0 00-.792.806v36.658c0 .215.083.42.231.572.149.152.35.237.56.237h45.505a.8.8 0 00.792-.806V2.29a.8.8 0 00-.792-.807H2.248zM46.232 38.14H3.768a.72.72 0 01-.515-.217.748.748 0 01-.213-.524V3.838c0-.197.077-.386.213-.525a.721.721 0 01.515-.217h42.464c.193 0 .378.078.515.217.136.14.213.328.213.525v33.561a.748.748 0 01-.213.524.72.72 0 01-.515.217zM4.496 36.658h41.009V4.578H4.495v32.08zM35.122 50H13.867a.715.715 0 01-.52-.228.804.804 0 01-.216-.552v-3.079c0-.207.078-.405.216-.552a.716.716 0 01.52-.228h21.255c.196 0 .383.082.521.228a.804.804 0 01.216.552v3.078a.804.804 0 01-.216.552.716.716 0 01-.52.229zm-20.519-1.56h19.783v-1.518H14.603v1.518z" class="Shape" fill="#444"/><path d="M32.101 46.905H17.394a.72.72 0 01-.613-.35.79.79 0 01-.047-.73l2.75-6.211a.726.726 0 01.66-.439h9.207c.283 0 .54.172.66.44l2.75 6.212a.79.79 0 01-.047.73.72.72 0 01-.613.35v-.002zm-13.57-1.52h12.433l-2.077-4.691h-8.278l-2.078 4.69z" class="Shape" fill="#444"/><path d="M25.917 31.959c-6.594 0-11.959-5.434-11.959-12.114.001-1.449.26-2.885.762-4.242l-.501.186a.724.724 0 01-.56-.023.739.739 0 01-.381-.417l-1.112-3.066a.75.75 0 01.023-.568.736.736 0 01.412-.385l5.792-2.155a2.336 2.336 0 013.009 1.409l2.127 5.866a.75.75 0 01-.022.568.736.736 0 01-.413.385l-3.027 1.126a.724.724 0 01-.56-.023.739.739 0 01-.38-.417l-.157-.43a7.438 7.438 0 00-.327 2.183c0 4.06 3.262 7.365 7.271 7.365 4.01 0 7.275-3.3 7.275-7.362 0-4.06-3.262-7.364-7.272-7.364a.727.727 0 01-.517-.218.746.746 0 01-.215-.524V8.473c0-.41.328-.741.732-.741 6.595 0 11.962 5.434 11.962 12.113 0 6.68-5.367 12.114-11.962 12.114zm-9.793-18.41c.26 0 .5.14.631.367a.75.75 0 01.008.737 10.779 10.779 0 00-1.342 5.192c0 5.862 4.708 10.63 10.495 10.63 5.787 0 10.497-4.768 10.497-10.63 0-5.612-4.317-10.222-9.764-10.604v1.787c4.476.378 8.003 4.188 8.003 8.817 0 4.88-3.918 8.848-8.735 8.848-4.817 0-8.735-3.969-8.735-8.848 0-1.593.425-3.157 1.232-4.525a.73.73 0 011.316.125l.521 1.439 1.652-.615-1.874-5.17a.893.893 0 00-.457-.502.864.864 0 00-.672-.029l-5.106 1.9.607 1.674 1.47-.549a.721.721 0 01.253-.044z" class="Shape" fill="#383FDA"/></g></g></g></g></svg>