<svg width="50" height="50" xmlns="http://www.w3.org/2000/svg"><g class="Mock-Up" fill="none" fill-rule="evenodd"><g class="sitediff-Mock-Up"><g class="Features"><g class="simpleeasytouse"><path d="M3.968 4.762a.725.725 0 01-.301-.064.754.754 0 01-.26-.17.8.8 0 010-1.128.81.81 0 011.122 0 .8.8 0 01-.561 1.362zM8.73 3.968a.792.792 0 111.587 0 .793.793 0 11-1.587 0zM15.873 4.762a.733.733 0 01-.302-.063.754.754 0 01-.259-.17.792.792 0 01.26-1.296.793.793 0 11.302 1.528z" class="Path" fill="#363636"/><path d="M49.272 8.73H.727a.723.723 0 01-.514-.215.739.739 0 01-.213-.52V.736C0 .329.326 0 .727 0h48.546c.401 0 .727.33.727.735v7.26a.739.739 0 01-.213.52.723.723 0 01-.515.215zM1.454 7.261h47.091v-5.79H1.454v5.79z" class="Shape" fill="#363636" fill-rule="nonzero"/><path d="M43.599 50H.727a.73.73 0 01-.514-.211.717.717 0 01-.213-.51V7.863c0-.191.077-.374.213-.51a.73.73 0 01.514-.21h48.546a.73.73 0 01.514.21.717.717 0 01.213.51v35.796a.717.717 0 01-.213.509.73.73 0 01-.514.21h-4.947v4.901c0 .398-.326.72-.727.721zM1.454 48.56h41.419v-4.901c0-.398.325-.72.727-.72h4.946V8.582H1.454V48.56z" class="Shape" fill="#363636" fill-rule="nonzero"/><path d="M43.585 50a.73.73 0 01-.728-.729v-5.685a.729.729 0 01.729-.729h5.685a.729.729 0 01.516 1.244L44.1 49.786a.728.728 0 01-.516.214zm.73-5.686v3.199l3.198-3.199h-3.199z" class="Shape" fill="#363636" fill-rule="nonzero"/><path d="M24.62 43.65a.73.73 0 01-.73-.73l-.005-3.41a11.836 11.836 0 01-4.495-1.21l-1.711 2.967a.73.73 0 01-.998.267 15.949 15.949 0 01-5.81-5.793.731.731 0 01.265-.999l2.96-1.72a11.738 11.738 0 01-1.225-4.504l-3.408.014a.73.73 0 01-.733-.73 15.898 15.898 0 012.107-7.933.73.73 0 01.998-.27l2.967 1.708a11.843 11.843 0 013.282-3.298l-1.722-2.961a.73.73 0 01.264-.999c1.69-.98 3.55-1.639 5.48-1.94.81-.131 1.63-.2 2.45-.204h.002a.73.73 0 01.73.728l.01 3.412c1.564.095 3.094.501 4.498 1.197l1.703-2.97a.73.73 0 01.997-.269 15.94 15.94 0 015.824 5.78.73.73 0 01-.263 1l-2.958 1.725a11.732 11.732 0 011.235 4.514l3.406-.027c.181.009.382.074.52.211a.73.73 0 01.216.519v.05a15.877 15.877 0 01-2.122 7.937.73.73 0 01-.998.267l-2.965-1.715a11.843 11.843 0 01-3.288 3.292l1.715 2.964a.73.73 0 01-.266.998 15.877 15.877 0 01-7.931 2.133h-.002zm-5.51-7.058c.13 0 .255.034.366.098a10.308 10.308 0 005.127 1.381.739.739 0 01.741.729l.005 3.37a14.425 14.425 0 005.83-1.566l-1.698-2.927a.73.73 0 01.265-.998 10.366 10.366 0 003.763-3.767.73.73 0 01.998-.266l2.928 1.694a14.423 14.423 0 001.562-5.878l-3.365.027a.67.67 0 01-.52-.211.732.732 0 01-.216-.518 10.27 10.27 0 00-1.409-5.157.73.73 0 01.263-1l2.922-1.705a14.484 14.484 0 00-4.28-4.25l-1.683 2.933a.73.73 0 01-.997.27 10.266 10.266 0 00-5.109-1.37c-.402 0-.764-.325-.765-.728l-.01-3.367c-.485.028-.985.081-1.492.163-1.51.237-2.974.714-4.335 1.412l1.702 2.924a.73.73 0 01-.263 1 10.368 10.368 0 00-3.755 3.774.73.73 0 01-.998.267l-2.931-1.686a14.418 14.418 0 00-1.547 5.829l3.366-.014h.003a.73.73 0 01.73.73 10.266 10.266 0 001.398 5.146.73.73 0 01-.266.998l-2.925 1.7a14.5 14.5 0 004.272 4.259l1.69-2.93a.73.73 0 01.634-.366z" class="Shape" fill="#383FDA" fill-rule="nonzero"/><path d="M25.015 31.746a.694.694 0 01-.631-.435l-2.097-4.87c-.162-.377-.01-.823.338-.998.35-.175.763-.011.925.365l1.44 3.342 2.245-5.678c.15-.381.56-.559.913-.396.354.163.518.605.367.986l-2.86 7.228a.698.698 0 01-.63.456h-.01z" class="Path" fill="#383FDA"/></g></g></g></g></svg>