<svg width="719" height="546" xmlns="http://www.w3.org/2000/svg"><defs><linearGradient x1="-141632.46%" y1="-32672.866%" x2="-141485.46%" y2="-32672.866%" id="l"><stop stop-color="#615B6A" offset="36%"/><stop offset="82%"/></linearGradient><linearGradient x1="2619.412%" y1="-54.792%" x2="-1198.627%" y2="100.984%" id="a"><stop stop-color="#EAE8ED" offset="0%"/><stop stop-color="#FCFCFE" offset="16%"/></linearGradient><linearGradient x1="184.859%" y1="-220.866%" x2="237.691%" y2="-326.667%" id="c"><stop stop-color="#615B6A" offset="36%"/><stop offset="82%"/></linearGradient><linearGradient x1="-141719.535%" y1="-33693.423%" x2="-141571.535%" y2="-33693.423%" id="d"><stop stop-color="#615B6A" offset="36%"/><stop offset="82%"/></linearGradient><linearGradient x1="-141398.843%" y1="-32538.95%" x2="-141251.334%" y2="-32538.95%" id="e"><stop stop-color="#615B6A" offset="36%"/><stop offset="82%"/></linearGradient><linearGradient x1="-141540.039%" y1="-32359.919%" x2="-141393.273%" y2="-32359.919%" id="f"><stop stop-color="#615B6A" offset="36%"/><stop offset="82%"/></linearGradient><linearGradient x1="50.001%" y1="42.461%" x2="50.001%" y2="15.724%" id="g"><stop stop-color="#615B6A" offset="36%"/><stop offset="68%"/></linearGradient><linearGradient x1="-141794.845%" y1="-32326.928%" x2="-141648.09%" y2="-32326.928%" id="h"><stop stop-color="#615B6A" offset="36%"/><stop offset="82%"/></linearGradient><linearGradient x1="-141821.578%" y1="-32229.338%" x2="-141674.578%" y2="-32229.338%" id="i"><stop stop-color="#615B6A" offset="36%"/><stop offset="82%"/></linearGradient><linearGradient x1="-141983.58%" y1="-33311.665%" x2="-141836.58%" y2="-33311.665%" id="j"><stop stop-color="#615B6A" offset="36%"/><stop offset="82%"/></linearGradient><linearGradient x1="-141464.624%" y1="-32654.775%" x2="-141318.112%" y2="-32654.775%" id="k"><stop stop-color="#615B6A" offset="36%"/><stop offset="82%"/></linearGradient><linearGradient x1="99.845%" y1="46.639%" x2="-.376%" y2="51.655%" id="b"><stop stop-color="#AD8FFF" offset="35%"/><stop stop-color="#4F2499" offset="42%"/></linearGradient><linearGradient x1="-141548.09%" y1="-33521.633%" x2="-141400.336%" y2="-33521.633%" id="m"><stop stop-color="#615B6A" offset="36%"/><stop offset="82%"/></linearGradient><linearGradient x1="-141897.579%" y1="-32957.077%" x2="-141750.579%" y2="-32957.077%" id="n"><stop stop-color="#615B6A" offset="36%"/><stop offset="82%"/></linearGradient><linearGradient x1="49.996%" y1="111.823%" x2="49.996%" y2="1.75%" id="o"><stop stop-color="#CCBAFF" offset="0%"/><stop stop-color="#383FDA" offset="100%"/></linearGradient><linearGradient x1="49.997%" y1="101.551%" x2="49.997%" y2="-.858%" id="p"><stop stop-color="#383FDA" offset="0%"/><stop stop-color="#1E2153" offset="100%"/></linearGradient><linearGradient x1="115.233%" y1="4.388%" x2="-7.01%" y2="87.671%" id="q"><stop stop-color="#383FDA" offset="43%"/><stop stop-color="#1E2153" offset="66%"/></linearGradient><linearGradient x1="99.999%" y1="50.004%" x2=".001%" y2="50.004%" id="r"><stop stop-color="#383FDA" offset="43%"/><stop stop-color="#1E2153" offset="66%"/></linearGradient><linearGradient x1="50.572%" y1="64.087%" x2="40.717%" y2="43.551%" id="s"><stop stop-color="#B80065" offset="0%"/><stop stop-color="#F52D9B" offset="59%"/></linearGradient><linearGradient x1="49.132%" y1="61.616%" x2="41.797%" y2="43.154%" id="t"><stop stop-color="#8A3500" offset="0%"/><stop stop-color="#F56F2D" offset="59%"/></linearGradient><linearGradient x1="47.987%" y1="58.759%" x2="40.7%" y2="38.97%" id="u"><stop stop-color="#8A6200" offset="0%"/><stop stop-color="#FFC400" offset="59%"/></linearGradient><linearGradient x1="47.655%" y1="63.993%" x2="37.082%" y2="38.107%" id="v"><stop stop-color="#4E8A00" offset="0%"/><stop stop-color="#D7FF00" offset="49%"/></linearGradient></defs><g fill="none" fill-rule="evenodd"><path d="M280.631 401.218a663.273 663.273 0 0115.627-12.673L411.11 454.74c9.164 5.267 22.187 3.025 39.068-6.726l9.566-5.52c.23.046.462.071.695.075a3.206 3.206 0 002.94-2.136l124.706-71.93 10.827 6.246c8.409 4.876 9.692 8.986 3.848 12.332l-164.607 94.917c-5.843 3.381-12.969 2.634-21.378-2.242l-136.143-78.539zm97.183 101.537v-.053c.104.272.151.563.139.854a2.744 2.744 0 01-1.71 2.349l-68.141 39.077a8.634 8.634 0 01-4.116 1.014 8.035 8.035 0 01-4.061-.96L189.83 481.432l2.138-1.772 110.094 63.613a7.403 7.403 0 003.955.907 8.067 8.067 0 003.955-.907l66.27-37.957a2.744 2.744 0 001.657-2.295l-.085-.267zm-187.856-24.236l-2.084 1.761-21.27-12.278a2.637 2.637 0 01-1.604-2.35 2.476 2.476 0 01.588-1.44c.34-.364.737-.67 1.176-.908l3.955-2.296v4.218c.04.305.15.597.32.854v.16a2.52 2.52 0 001.55 2.242l17.37 10.037zm90.94-98.836l13.362 7.709a863.485 863.485 0 00-15.606 12.673l-3.934-2.264c-8.415-4.833-9.698-8.943-3.848-12.331l10.027-5.787zM555.089 279l86.258 49.348 69.851-40.39L719 292.42l-77.654 44.896-94.061-53.811 7.802-4.506z" fill="#1E2153" fill-rule="nonzero"/><path d="M192.7 478.9l109.648 63.064c.328.218.69.38 1.07.48.28.105.566.194.856.267.672.106 1.352.16 2.033.16a8.081 8.081 0 004.013-.96l66.342-38.222a4.47 4.47 0 001.338-1.066v.266a2.73 2.73 0 01-1.605 2.293l-66.343 37.902a8.092 8.092 0 01-3.959.906 7.427 7.427 0 01-3.96-.906L191.92 479.562l.781-.661zm-1.98-1.15l-.78.67-17.388-10.021a2.516 2.516 0 01-1.552-2.24V466c.32.46.741.843 1.23 1.12l18.49 10.63z" fill="#000" fill-rule="nonzero"/><path d="M241 419c-.674.165-1.32.47-1.912.9L236 422l2.941-2.1A5.892 5.892 0 01241 419z" fill="url(#a)"/><path d="M410.97 408.951l10.985 6.316-.48 1.153a95.837 95.837 0 00-1.55 3.627l5.108-2.987 11.401 6.561 1.625-.939a423.07 423.07 0 00-1.731 4.087l-.16.373 21.264-12.504 11.295 6.53c-.46 1.237-.909 2.475-1.357 3.712v-.373l-.962 1.867 97.882-58.041c-.14-.48-.268-.95-.407-1.387l1.07-.64-1.572-.907c-1.78-5.626-3.163-7.653-4.146-6.082a35.225 35.225 0 01-1.816 2.668l-5.236-3.02 15.847-9.282v-1.067l-.61-.395.503-.298-12.663-7.309L566 334.32v-5.868a3.55 3.55 0 01-.268-.533c-1.143-2.24-1.86-3.574-2.137-4.001a9.085 9.085 0 00-2.832-3.041 8.495 8.495 0 00-4.862-1.28h-.427a1.706 1.706 0 00-.107-.246c-3.177-6.401-5.902-9.584-8.175-9.549-1.175 0-2.689.694-4.541 2.08l-1.977 1.527c-.61.385-1.31.605-2.03.64-1.069 0-2.063-1.409-3.1-4.215-.395-1.067-.854-2.486-1.388-4.374-.641-2.209-1.069-3.873-1.39-5.015a43.63 43.63 0 00-3.74-9.282c-1.68-2.845-3.586-4.268-5.716-4.268-1.817 0-3.794 1.067-5.931 3.201a62.553 62.553 0 00-5.557 7.309l-1.367 1.952-13.432-7.714c4.894-4.132 10.155-8.816 15.783-14.051l98.394 56.728c4.41 2.59 5.781 5.666 4.114 9.23-1.817 3.812-7.053 8.222-15.708 13.23l-139.022 80.126h-.267a3.026 3.026 0 00-2.19.906 2.774 2.774 0 00-.588.854l-7.48 4.321c-16.884 9.738-29.903 11.978-39.057 6.722l-110.758-63.856c7.167-5.548 13.935-10.491 20.303-14.83l52.36 29.927c4.275 2.418 13.02-.16 26.234-7.735l28.852-16.538c-.94 2.134-2.141 5.264-3.601 9.39a71.738 71.738 0 01-3.046 7.735c-.887 1.707-1.41 2.699-1.55 2.987a6.41 6.41 0 01-2.617 2.187 7.231 7.231 0 01-1.817.587c-.855.139-1.517.267-1.977.373a6.06 6.06 0 00-3.526 2.134 41.13 41.13 0 00-4.007 6.509 64.214 64.214 0 00-1.122 2.667v1.387l6.24-3.681zm-173.558 27.687l-34.568 19.898-17.098 9.89-1.282.726 11.434 6.594-1.443 1.216-21.906-12.665a3.204 3.204 0 01-1.282-1.226 2.003 2.003 0 01-.267-1.014c.045-.529.25-1.031.588-1.44.343-.323.719-.61 1.122-.854l62.779-36.009 3.366-1.867a6.6 6.6 0 012.083-.8l.32-.053a7.566 7.566 0 011.55-.16 7.843 7.843 0 013.954.906l5.717 3.308c-4.167 3.699-9.19 8.215-15.067 13.55zm8.87-5.121l8.142-7.309 121.743 70.31c.044.048.1.084.16.107l.16.107a2.379 2.379 0 011.23 2.08 2.742 2.742 0 01-1.657 2.295l-66.145 37.929a8.56 8.56 0 01-4.007.96 7.425 7.425 0 01-3.9-.96l-105.544-60.922 1.41-1.227 95.318 54.947 70.58-40.703-27.944-16.11-5.503-3.202-4.595-2.667-9.243-5.335-45.896-26.46-15.494-8.855-.32.16-8.496 4.855zm203.136-170.549c12.823-5.79 23.027-6.519 30.614-2.187l30.85 17.764c-5.65 5.242-10.928 9.919-15.836 14.03l-25.272-14.457c-4.274-2.482-13.001.079-26.18 7.682L325.89 351.177c-8.456 4.858-13.353 8.681-14.693 11.47a2.601 2.601 0 00.876 3.574c.094.063.195.117.3.16l6.09 3.467c-6.34 4.367-13.079 9.31-20.217 14.83l-18.305-10.562a9.857 9.857 0 01-4.114-3.734c-2.272-4.161 1.147-9.3 10.259-15.418a89.191 89.191 0 008.281-4.267l149.6-86.208c1.882-1.142 3.74-2.294 5.45-3.521zm31.523 40.703a252.518 252.518 0 01-7.854 5.516l-.481-.288a.62.62 0 00-.374-.16c.11-.106.237-.196.374-.267l8.335-4.8zm-9.906 6.882a213.644 213.644 0 01-7 4.374l-.94-.533a1.293 1.293 0 00-.32-.213c0-.107.139-.192.32-.267l5.824-3.414a1.765 1.765 0 012.03 0l.086.053zm-9.03 5.57a195.214 195.214 0 01-7.32 4.086l-.886-.534c-.182-.181-.32-.266-.428-.266a1.25 1.25 0 00.428-.32v.106l5.663-3.307a1.851 1.851 0 012.084 0l.46.234zm-9.617 5.28a153.492 153.492 0 01-7.854 3.735c-.181-.181-.32-.267-.427-.267a1.25 1.25 0 00.427-.32v.107l5.664-3.308a1.969 1.969 0 012.137-.16v.16l.053.054zm-22.066 9.24l-2.832.875a2.428 2.428 0 01-.587-.267l-5.824-3.307c-.1-.066-.208-.12-.32-.16a1.87 1.87 0 01.373-.213l5.77-3.201v-.16a2.28 2.28 0 012.245 0h-.16l5.716 3.307a.866.866 0 01.481.267 3.762 3.762 0 00-.48.32l-4.382 2.54zm-5.877 1.75c-3.44.946-6.867 1.74-10.28 2.38l-2.436-1.388a1.293 1.293 0 00-.32-.213c0-.107.192-.192.48-.267l5.664-3.36a2.14 2.14 0 012.137 0l4.755 2.848zm-13.7 2.966c-1.335.203-2.66.374-3.985.534l1.443-.8c.6-.516 1.466-.58 2.137-.16v.16l.406.266zm-10.503 1.26a135.224 135.224 0 00-23.135 5.248l40.018-23.152a1.883 1.883 0 012.03 0l5.61 3.2c.321.107.481.236.481.374l-25.004 14.33zM365.588 346.3c1.425-.576 2.814-1.12 4.167-1.632.143.056.279.127.406.213l6.038 3.52-5.984 3.522a2.365 2.365 0 01-2.244.16l-5.824-3.361c-.182-.181-.289-.267-.32-.267.151-.088.313-.16.48-.213l3.28-1.942zm9.756-3.606a143.7 143.7 0 0119.683-5.1l-13.25 7.607h.16c-.732.32-1.565.32-2.297 0l-4.296-2.507zm26.714-6.135l2.48-.267c3.045-.288 6.09-.715 9.157-1.248l2.276 1.302a.695.695 0 01.481.213c-.075 0-.182.085-.32.267h-.16l-5.771 3.254a1.69 1.69 0 01-1.977 0l-5.93-3.201a.833.833 0 00-.29-.32h.054zm14.96-2.134c1.767-.363 3.548-.768 5.343-1.216l-2.671 1.621h.16a2.45 2.45 0 01-2.244-.106l-.588-.299zm12.61-3.275c1.186-.374 2.361-.769 3.558-1.174.103.04.2.094.288.16l5.878 3.307v-.106c.213.106.32.213.32.32 0 .107-.107.213-.32.32l-5.878 3.36a2.14 2.14 0 01-2.083 0l-5.824-3.36a1.142 1.142 0 01-.32-.32.662.662 0 01.32-.32v.106l4.06-2.293zm6.176-2.134c2.842-1.067 5.685-2.134 8.549-3.414l4.349 2.432c.213.135.32.242.32.32l-6.144 3.574a1.98 1.98 0 01-2.137 0l-4.937-2.912zm11.028-4.524a191.435 191.435 0 007.747-3.788l3.312 1.942c.321.107.481.235.481.374l-.32.266-5.824 3.254a2.14 2.14 0 01-2.137-.106l-3.26-1.942zm10.044-4.993a185.976 185.976 0 007.32-4.13l3.26 1.836c.154.082.315.153.48.213-.107 0-.246.086-.427.267l-5.717 3.36a2.515 2.515 0 01-2.244 0l-2.672-1.546zm9.329-5.335a231.675 231.675 0 006.914-4.396l3.686 2.134h.107c.137.07.263.16.374.267-.175.033-.34.106-.48.213l-5.664 3.201a2.482 2.482 0 01-2.351 0l-2.586-1.419zm8.944-5.761a260.608 260.608 0 0011.594-8.376l1.368-1.067 5.546 3.137c.178.02.346.094.48.213l-.48.32-.93.534c-1.154-.715-1.752-1.067-1.795-1.067-1.966 0-4.071 1.931-6.337 5.794l-4.082 2.368a2.29 2.29 0 01-2.137 0l-3.227-1.856zm6.283 5.974l-1.667-.97a2.748 2.748 0 00-.48-.214c.112-.04.22-.094.32-.16l3.152-1.76c-.417.896-.855 1.93-1.357 3.094l.032.01zm-3.077 7.95a2.729 2.729 0 01-2.405-.161l-5.717-3.307c-.138-.14-.245-.214-.32-.214.102-.094.209-.184.32-.267l5.878-3.2v-.16a1.808 1.808 0 012.083.16l2.373 1.365a217.807 217.807 0 00-2.138 5.698l-.213.138.139-.053zm-13.144-25.394c.13.03.243.107.32.214-.178.05-.343.141-.48.266l-5.717 3.254a2.076 2.076 0 01-2.137 0l-1.282-.693 7.373-4.268 1.763 1.227h.16zm3.58 23.633l5.77 3.254.428.213c-.075 0-.182.086-.32.267h-.108l-5.77 3.254a2.14 2.14 0 01-2.244 0l-5.664-3.254c-.181-.181-.288-.267-.32-.267.098-.083.206-.155.32-.213l5.664-3.254a1.862 1.862 0 012.212 0h.032zm5.076 14.755l-.748.448h.106a2.365 2.365 0 01-2.244-.16l-5.77-3.254a.898.898 0 00-.427-.213c.124-.115.27-.205.427-.267l5.664-3.36a2 2 0 012.244 0l2.564 1.493a31.3 31.3 0 00-.374 1.067c-.534 1.536-1.015 2.902-1.474 4.268l.032-.022zm-8.656-5.58l-5.877 3.361a2.29 2.29 0 01-2.137 0l-5.717-3.36a1.142 1.142 0 00-.32-.32.865.865 0 01.32-.268l5.717-3.36a2.632 2.632 0 012.297 0h-.16l5.717 3.36c.32.079.48.185.48.32l-.32.267zm-9.777 7.629c.124.016.25.016.374 0l5.717-3.361a1.926 1.926 0 012.137-.053l5.823 3.254v-.107c.214.178.321.285.321.32 0 .107-.107.246-.32.427l-5.824 3.2c-.64.32-1.392.32-2.03 0l-5.77-3.414c-.225-.128-.354-.224-.46-.224l.032-.042zm3.205 8.855l5.664-3.414a2.515 2.515 0 012.244 0l2.244 1.387.427.16-.427.267h-.054l-5.716 3.254a2.664 2.664 0 01-2.138.16l-2.244-1.387a1.293 1.293 0 00-.32-.213.759.759 0 01.288-.224l.032.01zm12.716-3.734a1.819 1.819 0 01-.48-.16l-2.244-1.28a2.362 2.362 0 01-.481-.32 3.49 3.49 0 01.32-.374v.16l4.488-2.56c-.609 1.643-1.143 3.2-1.635 4.523l.032.011zm5.023-14.542l-1.817-1.067a.588.588 0 00-.374-.214c.111-.106.237-.196.374-.266l2.939-1.686-1.154 3.2.032.033zm-115.62 22.405l5.77 3.201c.289.107.428.192.428.267l-6.198 3.467a1.947 1.947 0 01-2.137 0l-5.878-3.2c-.138-.14-.245-.214-.32-.214a.674.674 0 00.32-.107l5.878-3.36a1.872 1.872 0 012.137-.086v.032zm2.725 9.603l5.77 3.254v-.054c.289.14.427.246.427.32l-17.952 10.296a1.765 1.765 0 01-2.03 0l-5.663-3.307a.898.898 0 00-.428-.213l.428-.427v.128l17.364-10.03a1.99 1.99 0 012.052 0l.032.033zm-5.93-.747l-6.145 3.52a2.74 2.74 0 01-2.244 0l-5.824-3.253c-.107-.182-.214-.267-.32-.267.164-.06.325-.132.48-.214l5.664-3.254v-.16a1.98 1.98 0 012.19.16l5.664 3.254h.107c.267.128.395.203.395.288l.032-.074zm-9.778 5.228c.129.083.275.138.427.16a.898.898 0 00-.427.213h-.054l-5.717 3.414h.107a3.018 3.018 0 01-2.244 0l-5.77-3.307c-.14-.182-.267-.267-.374-.267.165-.06.325-.131.48-.213l5.664-3.308v-.16a2.054 2.054 0 012.137.16l5.717 3.308h.054zm14.105 16.27l.427-.32v.054l10.098-5.708c.645-.5 1.547-.5 2.19 0l5.718 3.2c.167.076.328.166.48.267a.898.898 0 00-.427.214h-.053l-10.098 5.814a2.076 2.076 0 01-2.137 0l-5.717-3.36a1.07 1.07 0 00-.513-.193l.032.032zm-3.046-1.76l-5.61-3.254c-.139-.182-.245-.267-.32-.267a3.49 3.49 0 01.32-.373v.234l12.503-7.148v-.053a1.765 1.765 0 012.03 0v.053l5.663 3.2c.168.077.328.166.481.268a.588.588 0 00-.374.213h-.107l-12.395 7.202a2.022 2.022 0 01-2.223-.054l.032-.021zm88.553-80.478a2.14 2.14 0 012.03 0v.106l1.977 1.174c.321.107.481.245.481.427l-6.09 3.414a2.515 2.515 0 01-2.245 0l-1.976-1.12c-.182-.182-.289-.267-.321-.267a.695.695 0 01.48-.267l5.664-3.36v-.107zm-6.892 5.974l5.77 3.361h.16c.102.05.21.086.321.107a1.293 1.293 0 00-.32.213h-.16l-5.664 3.361a2.28 2.28 0 01-2.244 0l-5.717-3.414c-.139-.139-.246-.213-.32-.213a.674.674 0 00.32-.107l5.877-3.361v-.053a1.798 1.798 0 011.977 0v.106zm-3.42 9.016l-8.334 4.908a2.14 2.14 0 01-2.084 0l-5.717-3.201c-.139-.181-.267-.267-.374-.267.13-.159.295-.286.48-.373l7.855-4.481a1.969 1.969 0 012.137-.16v.16l5.664 3.2v-.16c.235.086.374.214.374.32v.054zm-6.571 6.722l5.663-3.415a2.14 2.14 0 012.19 0l5.825 3.415.32.16c0 .078-.16.185-.48.32l-5.664 3.36a2.408 2.408 0 01-2.19 0l-5.664-3.36a1.293 1.293 0 00-.32-.214.769.769 0 01.32-.32v.054zm9.35-5.442l5.877-3.254a1.69 1.69 0 011.977 0l5.824 3.254v-.053c.213.135.32.242.32.32l-6.144 3.52a2.076 2.076 0 01-2.137 0l-5.717-3.36c-.14-.139-.246-.213-.32-.213.101-.095.208-.184.32-.267v.053zm9.403-5.388l5.824-3.307a1.69 1.69 0 011.977 0l5.77 3.307v-.106c.289.18.428.288.428.32a.748.748 0 01-.428.32l-5.77 3.36c-.637.32-1.4.257-1.977-.16l-5.824-3.2c-.181-.182-.288-.267-.32-.267l.32-.32v.053zM416.131 338.8v.054l5.878-3.254a1.69 1.69 0 011.976 0l5.878 3.254c.245.106.374.245.374.427l-6.145 3.36a2.14 2.14 0 01-2.244 0l-5.717-3.307c-.138-.139-.245-.213-.32-.213l.32-.32zm-3.526 2.081a1.883 1.883 0 012.03 0l5.824 3.414h.107l.374.267c-.175.033-.34.106-.48.213l-5.664 3.361a2.408 2.408 0 01-2.19 0l-5.825-3.36c-.139-.14-.245-.214-.32-.214.102-.095.209-.184.32-.267l5.824-3.2v-.214zm10.686 4.641l5.824-3.307v-.16a1.969 1.969 0 012.083.16l5.717 3.307a.695.695 0 01.481.213c-.075 0-.182.075-.32.214h-.16l-5.718 3.307a2.14 2.14 0 01-2.244 0l-5.663-3.307a1.293 1.293 0 00-.32-.214.352.352 0 01.32-.266v.053zm26.714-14.243l5.664 3.36c.32.079.48.185.48.32l-6.144 3.575c-.692.318-1.5.257-2.137-.16l-5.717-3.201c-.139-.181-.245-.267-.32-.267.095-.087.203-.158.32-.213l5.717-3.361a2.28 2.28 0 012.137-.053zm-17.364 8.802l5.877-3.361a2.033 2.033 0 012.137-.107l5.664 3.468h.16a.32.32 0 01.32.213 2.63 2.63 0 00-.48.267l-5.664 3.254c-.641.45-1.496.45-2.137 0l-5.717-3.254a2.296 2.296 0 01-.48-.427 1.68 1.68 0 00.32-.053zm12.182 4.694l5.877 3.361v-.16c.214.135.32.242.32.32l-.32.213h-.107l-5.77 3.308a1.98 1.98 0 01-2.084 0l-5.663-3.36a2.748 2.748 0 00-.481-.214c.084-.127.193-.236.32-.32v.16l5.824-3.361a1.797 1.797 0 012.084-.053v.106zm1.229-1.92c.136-.048.263-.12.374-.214l5.663-3.307a2.14 2.14 0 012.084 0l5.877 3.307v-.106c.214.185.32.291.32.32 0 .106-.16.245-.48.427l-5.717 3.2a1.851 1.851 0 01-2.084 0l-5.663-3.2a4.13 4.13 0 00-.374-.48v.053zm-53.109-1.12l5.824-3.201v-.16a2.14 2.14 0 012.03 0l5.77 3.36v-.16c.246.182.375.32.375.427 0 .107-.129.139-.374.32l-5.77 3.201a2.033 2.033 0 01-2.191 0l-5.664-3.2-.32-.32c.075-.164.184-.31.32-.428v.16zm-1.55 2.08l5.771 3.36v-.16c.289.14.428.268.428.374 0 .107-.16.182-.481.32l-5.717 3.308a2.3 2.3 0 01-2.137-.107l-5.664-3.307c-.139-.182-.245-.267-.32-.267a2.69 2.69 0 01.32-.374v.16l5.717-3.36a2.311 2.311 0 012.084 0v.053zm13.892 2.614l5.824 3.307v-.053c.214.185.32.292.32.32l-.32.267-5.824 3.36a2.89 2.89 0 01-2.03 0l-5.77-3.52a.214.214 0 01-.289-.085.202.202 0 01.086-.289.225.225 0 01.203 0l5.824-3.307v-.16a2.14 2.14 0 012.03 0l-.054.16zm-3.526 9.229l-5.877 3.307a1.98 1.98 0 01-2.084 0l-5.824-3.307c-.181-.181-.288-.267-.32-.267-.032 0 .16-.245.374-.32l5.877-3.36a1.98 1.98 0 011.977 0l5.877 3.307v-.16c.214.181.32.32.32.426 0 .107-.106.14-.32.32v.054zm2.778.48v.16l5.77-3.414c.645-.5 1.547-.5 2.191 0l5.717 3.36a.695.695 0 01.481.214 2.362 2.362 0 01-.48.32l-5.771 3.254c-.681.32-1.473.3-2.137-.053l-5.717-3.307c-.14-.14-.246-.214-.32-.214.079-.131.168-.256.266-.373v.053zm-1.496 2.134l5.664 3.254c.32.107.48.245.48.427l-.32.213-5.824 3.308a2.408 2.408 0 01-2.19 0l-5.664-3.308a1.293 1.293 0 00-.32-.213c0-.107.139-.192.32-.267l5.664-3.36a1.99 1.99 0 012.19-.107v.053zm-15.334-5.175l-5.663 3.254a2.408 2.408 0 01-2.19 0l-5.771-3.254c-.139-.181-.267-.266-.374-.266a.866.866 0 01.48-.214l5.664-3.36a2.14 2.14 0 012.19 0l5.664 3.36c.179.02.347.094.481.214-.107 0-.214.085-.32.266h-.16zm-1.175 4.055l5.824 3.36v-.16c.213.14.32.267.32.374 0 .107-.107.181-.32.32l-5.824 3.2a1.851 1.851 0 01-2.084 0l-5.877-3.2c-.139-.181-.246-.267-.32-.267a3.49 3.49 0 01.32-.373v.16l5.877-3.361a2.033 2.033 0 012.084-.107v.054zm7.106 6.561l5.877 3.414c.214.075.32.16.32.267l-.32.214-5.877 3.254a1.947 1.947 0 01-2.137 0l-5.717-3.254a3.205 3.205 0 01-.481-.374c.148-.009.293-.045.427-.107l5.77-3.414a1.926 1.926 0 012.138 0zm-3.206 8.91l-.32.266-5.824 3.36a2.515 2.515 0 01-2.244 0l-5.717-3.36c-.139-.182-.246-.267-.32-.267.127-.084.236-.193.32-.32v.107l5.77-3.308a2.75 2.75 0 012.351 0h-.16l5.663 3.308c.32.053.481.128.481.16v.053zm8.656-2.722c.15-.056.292-.127.427-.213l5.664-3.254a1.808 1.808 0 012.083-.16v.16l5.824 3.254v-.107c.214.178.32.285.32.32l-.32.267-5.824 3.361a1.98 1.98 0 01-1.977 0l-5.77-3.36c-.182-.214-.32-.32-.427-.32v.052zm-1.176 1.76l5.824 3.362v-.16c.214.181.32.32.32.426 0 .107-.106.14-.32.32l-5.824 3.308a1.883 1.883 0 01-2.03 0l-5.77-3.308a3.762 3.762 0 00-.481-.32.61.61 0 00.32-.16l5.877-3.307a1.969 1.969 0 012.084-.213v.053zm-19.394-13.87c.213.182.32.32.32.428l-.32.213h-.16l-5.664 3.307a2.033 2.033 0 01-2.19 0l-5.771-3.307a.588.588 0 00-.374-.213c.137-.126.302-.217.48-.267l5.664-3.308a1.915 1.915 0 012.19-.106v.106l5.825 3.308v-.16zm-3.473 4.695a2.14 2.14 0 012.03 0l5.77 3.308c.32.106.481.234.481.373l-.32.267-5.824 3.2a1.851 1.851 0 01-2.084 0l-5.824-3.253c-.139-.182-.245-.267-.32-.267a.556.556 0 01.32-.214l5.824-3.307-.053-.107zm4.114 20.112l5.823 3.307v-.106c.214.177.321.284.321.32l-.32.266h-.054l-5.77 3.201c-.642.45-1.496.45-2.137 0l-5.824-3.2c-.182-.182-.289-.267-.32-.267l.32-.32v.106l5.824-3.307a2.14 2.14 0 012.244 0h-.107zm1.442-2.134l5.824-3.254v-.16a1.787 1.787 0 012.137.16l5.877 3.254v-.107c.214.107.32.214.32.32 0 .107-.106.214-.32.32l-5.877 3.361h.16a2.397 2.397 0 01-2.244-.16l-5.823-3.254c-.182-.181-.289-.267-.32-.267a.662.662 0 01.32-.32l-.054.107zm-.48 10.99l.373-.374v.213l5.717-3.36a2.632 2.632 0 012.298 0h-.054l2.244 1.387h.374c-.15.12-.31.228-.48.32l-5.664 3.36a2.408 2.408 0 01-2.19 0l-2.245-1.28c-.106-.235-.267-.32-.374-.32v.053zm25.645-14.938a1.894 1.894 0 012.137.16l2.244 1.28c.214 0 .321.107.321.214l-.32.214-5.824 3.307c-.64.32-1.392.32-2.03 0l-2.245-1.28c-.139-.182-.245-.267-.32-.267.115-.059.222-.13.32-.213l5.717-3.255v-.16zm-5.236 6.935c.214.107.32.182.32.214l-.32.267-5.824 3.36a2.14 2.14 0 01-2.03 0l-2.297-1.28c-.182-.181-.32-.267-.428-.267.135-.133.278-.257.428-.373v.16l5.77-3.36v-.108a1.83 1.83 0 012.137.107l2.244 1.28zm47.98-31.367l.427-.427v.16l5.717-3.36v-.054a2.14 2.14 0 012.19.053l2.244 1.387.374.054-6.144 3.68c-.695.32-1.496.32-2.19 0l-2.191-1.28a.898.898 0 00-.428-.213zm-7.214 1.173c.289.182.428.288.428.32a.748.748 0 01-.428.32l-5.77 3.361a2.29 2.29 0 01-2.137 0l-5.877-3.307a.61.61 0 00-.32-.16.556.556 0 01.32-.214l5.877-3.36v-.107a2.14 2.14 0 012.244 0h-.107l5.77 3.307v-.16zm2.244 5.975a2.74 2.74 0 01-2.244 0l-2.244-1.28c-.139-.139-.245-.214-.32-.214a.865.865 0 01.32-.266l5.77-3.308v-.106a2.75 2.75 0 012.352 0h-.16l2.243 1.28v-.054c.246.14.374.246.374.32 0 .075-.128.235-.374.374l-5.77 3.254h.053zm-11.22-.213c0 .106-.16.234-.48.373l-5.664 3.308a2.482 2.482 0 01-2.244-.107l-5.77-3.308a1.293 1.293 0 00-.32-.213c.11-.02.218-.057.32-.107l5.77-3.307a2.14 2.14 0 012.297-.107l5.77 3.254v-.053c.193.085.321.192.321.267zm5.236.64l-.16-.16 2.244 1.44v.054l.374.16c0 .078-.16.185-.48.32l-5.824 3.2a1.958 1.958 0 01-2.03.16l-2.245-1.28c-.139-.181-.246-.267-.32-.267.114-.058.222-.13.32-.213l5.717-3.307a2.343 2.343 0 012.404-.107zm-7.64 7.415l-5.824 3.254c-.639.32-1.391.32-2.03 0l-2.297-1.28a.898.898 0 00-.428-.214c.126-.127.27-.235.428-.32v.054l5.77-3.254v-.16a2.033 2.033 0 012.137.16l2.244 1.28c.214.075.32.16.32.267l-.32.213zm14.821 0l21.831-12.483c-1.816 3.635-3.42 5.456-4.808 5.463a2.139 2.139 0 01-1.069-.427 3.21 3.21 0 00-1.175-.32 4.394 4.394 0 00-3.046 1.547 23.86 23.86 0 00-2.671 3.52 23.914 23.914 0 01-2.618 3.415 4.062 4.062 0 01-2.779 1.654 3.358 3.358 0 01-2.137-.8 15.353 15.353 0 01-1.528-1.59v.021zm-17.225-15.897l-5.664 3.467h.214c-.77.32-1.635.32-2.404 0l-5.717-3.467c-.14-.139-.246-.214-.32-.214l.32-.32v.16l5.717-3.36a2.59 2.59 0 012.404 0h-.16l5.663 3.36c.292 0 .453.054.481.16a1.293 1.293 0 00-.32.214h-.214zm-10.9 9.762l5.877 3.254v-.053c.214.135.321.242.321.32l-6.198 3.628a2.14 2.14 0 01-1.977 0l-5.77-3.415a.588.588 0 00-.374-.213c.132-.098.257-.205.374-.32v.053l5.664-3.254a1.851 1.851 0 012.083 0zm1.23 9.87l2.243 1.28c.246.138.374.245.374.32 0 .074-.16.234-.48.373l-5.664 3.308h.053c-.695.32-1.495.32-2.19 0l-2.244-1.28c-.182-.182-.32-.267-.428-.267.15-.056.293-.128.428-.214l5.717-3.307a2.354 2.354 0 012.297-.16l-.107-.054zm76.702-66.47l.235-.16a2.28 2.28 0 012.244 0h-.16l5.716 3.414h.16l.129.074a3.959 3.959 0 01-1.678.406c-.349 0-2.166-.996-5.45-2.988l-1.196-.746zm-33.96-13.337l5.717-3.414a1.862 1.862 0 012.137 0v.053l1.924 1.227h.107c.245.107.374.182.374.214l-6.091 3.52a2.14 2.14 0 01-2.244 0l-1.977-1.12c-.182-.181-.32-.267-.428-.267.152-.088.314-.16.481-.213zm-1.282 2.56l1.763.96-7.213 4.162-2.458-1.28c-.181-.182-.299-.267-.374-.267a.599.599 0 01.428-.214l5.717-3.36v-.107a1.83 1.83 0 012.137.107zm17.31-.106a1.765 1.765 0 012.031 0v.107l5.824 3.36v-.16c.214.14.32.267.32.374 0 .107-.106.181-.32.32l-17.792 10.136h.107a2.74 2.74 0 01-2.244 0l-5.717-3.254c-.139-.182-.246-.267-.32-.267a.556.556 0 01.32-.213l17.792-10.296v-.107zM193.548 452.588a1.069 1.069 0 00-.182-.106 2.879 2.879 0 00-2.297 0 .918.918 0 00-.534.747c.01.248.153.472.374.586.047.044.101.08.16.107.373.216.798.327 1.229.32a2.44 2.44 0 001.282-.32.779.779 0 00.48-.693c.022-.235-.16-.46-.512-.64zm14.853-8.716c.268-.046.523-.147.748-.3l9.724-5.547c.18-.088.33-.23.428-.406a.916.916 0 00.053-.288c0-.242-.16-.455-.48-.64a2.375 2.375 0 00-1.176-.267 2.054 2.054 0 00-1.122.267l-9.778 5.602a.672.672 0 00-.427.64.747.747 0 00.427.64c.353.218.761.33 1.176.32l.427-.021zm-18.86 10.904l-.107-.054a3.552 3.552 0 00-1.656-.373 3.37 3.37 0 00-1.763.427 1.227 1.227 0 00-.748 1.067c.042.392.284.735.64.906h.108a3.874 3.874 0 003.526 0 1.067 1.067 0 000-2.027v.054zm158.15 54.626c.18-.565-.215-1.12-1.176-1.653l-3.313-1.92a4.644 4.644 0 00-4.969 0l-11.594 6.72c-.962.534-1.368 1.068-1.229 1.601-.139.566.267 1.142 1.23 1.707l3.312 1.92a4.687 4.687 0 004.915 0l11.648-6.72c1.015-.566 1.41-1.121 1.229-1.655h-.054z" fill="#394091" fill-rule="nonzero"/><path d="M196.727 475.588L302.034 536.4a7.406 7.406 0 003.892.959 8.537 8.537 0 003.998-.959l66.05-37.86a2.737 2.737 0 001.653-2.29 2.375 2.375 0 00-1.226-2.023 2.727 2.727 0 011.599 2.023v.266a2.855 2.855 0 01-1.706 2.29l-66.103 38.127a8.537 8.537 0 01-3.999 1.065 8.046 8.046 0 01-3.945-.906l-105.904-61.13.384-.373zm-2.356-.83l-21.825-12.589a2.962 2.962 0 01-1.386-1.363 1.66 1.66 0 01-.16-.713v-.32c.062-.651.39-1.248.906-1.65-.337.408-.541.91-.586 1.437a2 2 0 00.266 1.012c.303.52.746.945 1.28 1.225l21.857 12.641-.352.32zm-1.78-22.812a2.22 2.22 0 00-1.014.213c-.32.177-.48.39-.48.639a.543.543 0 00.3.479.63.63 0 00.18.106 1.9 1.9 0 001.013.267c.374.014.744-.078 1.066-.267a.618.618 0 000-1.171l-.213-.107a2.134 2.134 0 00-.853-.16zm1.225.16c.352.18.533.404.533.692a.777.777 0 01-.48.692 2.433 2.433 0 01-1.279.32 2.369 2.369 0 01-1.226-.32.597.597 0 01-.16-.107.692.692 0 01-.373-.585.916.916 0 01.533-.746 2.871 2.871 0 012.292 0l.16.107v-.054zm15.407-9l9.755-5.591a.67.67 0 00.352-.586.756.756 0 00-.373-.586c-.335-.15-.7-.222-1.066-.213a2.22 2.22 0 00-1.066.213l-9.703 5.592a.65.65 0 00-.426.585c0 .213.139.405.426.586.316.15.664.223 1.013.213a2.06 2.06 0 001.088-.213zm-.587.352h-.426a2.134 2.134 0 01-1.173-.32.745.745 0 01-.426-.639.67.67 0 01.426-.639l9.756-5.591c.34-.194.728-.286 1.12-.266a2.37 2.37 0 011.172.266c.32.185.48.398.48.639a.915.915 0 01-.054.287.98.98 0 01-.426.405l-9.702 5.538a1.846 1.846 0 01-.747.266v.054zm-19.084 11.044h-.107a3.415 3.415 0 00-1.386-.267 3.308 3.308 0 00-1.493.32c-.345.173-.57.52-.586.905 0 .256.181.5.533.714.03.034.067.062.107.085.436.254.934.383 1.439.373a2.935 2.935 0 001.493-.373.916.916 0 000-1.704v-.053zm.266-.16a1.065 1.065 0 010 2.023 3.863 3.863 0 01-3.518 0h-.107a1.14 1.14 0 01-.64-.905c.025-.468.314-.882.747-1.065a3.362 3.362 0 011.759-.426 3.543 3.543 0 011.653.373h.106z" fill="#CCB7FB" fill-rule="nonzero"/><path d="M192.558 452.242c.29-.006.578.05.846.164l.211.11a.64.64 0 010 1.202c-.32.194-.687.289-1.057.274a1.835 1.835 0 01-1.005-.274.62.62 0 01-.18-.109.56.56 0 01-.296-.492c0-.255.159-.474.476-.656a2.139 2.139 0 011.005-.22zm16.5-9.078a2.056 2.056 0 01-1.058.22 2.138 2.138 0 01-1.058-.22c-.285-.185-.423-.382-.423-.601a.666.666 0 01.423-.602l9.625-5.741a2.139 2.139 0 011.005-.22c.364-.01.726.065 1.058.22a.78.78 0 01.37.601.693.693 0 01-.349.602l-9.593 5.741zm-19.515 11.703a.924.924 0 01.5.503.97.97 0 01.008.722.904.904 0 01-.508.525 2.833 2.833 0 01-1.48.382 2.649 2.649 0 01-1.428-.382.415.415 0 01-.106-.088c-.35-.219-.529-.47-.529-.733.017-.396.24-.751.582-.93.462-.227.969-.339 1.48-.327.472-.01.94.084 1.375.273l.106.055z" fill="#3A2076" fill-rule="nonzero"/><path d="M377.648 502.542v.054a4.46 4.46 0 01-1.333 1.07l-66.12 38.369a8.008 8.008 0 01-4 .963c-.678 0-1.356-.054-2.026-.16a7.882 7.882 0 01-.853-.268c-.38-.1-.74-.264-1.067-.482l-109.301-63.305 3.402-2.943 105.878 61.378a8.018 8.018 0 003.946.91 8.508 8.508 0 004-1.07l66.12-38.315a2.867 2.867 0 001.706-2.301v5.137a2.242 2.242 0 01-.352.963zm-183.271-27.826a493.107 493.107 0 01-3.402 2.943l-18.429-10.702a3.748 3.748 0 01-1.226-1.124c-.17-.257-.28-.55-.32-.856V460c0 .248.054.493.16.717a2.97 2.97 0 001.386 1.37l21.83 12.629zm173.833 29.517c-.095.183-.15.384-.16.589-.02.16.04.32.16.428.128.09.298.09.426 0 .205-.108.372-.276.48-.481.095-.183.15-.384.16-.59a.58.58 0 00-.16-.427.457.457 0 00-.48.053c-.17.128-.32.28-.447.45l.02-.022zm-.587.321a.478.478 0 00-.48 0c-.188.113-.337.281-.426.482-.095.182-.15.383-.16.589-.02.16.04.32.16.428.106.075.245.053.426 0 .196-.121.36-.286.48-.482.105-.178.16-.381.16-.588a.46.46 0 00-.181-.407l.021-.022zm3.2-1.284a.44.44 0 00-.214-.428c-.106-.075-.245 0-.426.054-.188.112-.337.28-.427.481-.129.19-.203.413-.213.642a.386.386 0 00.213.375c.107.075.246 0 .427-.054a.833.833 0 00.426-.428c.131-.2.198-.435.192-.674l.022.032zm-1.067 1.391c-.106-.074-.245-.053-.426 0-.342.262-.57.645-.64 1.07a.44.44 0 00.213.429c.107.075.245.053.427 0 .188-.113.337-.281.426-.482a.933.933 0 00.214-.588.45.45 0 00-.235-.514l.021.085zm1.067 1.338a.386.386 0 00-.214-.374.436.436 0 00-.426 0c-.321.28-.545.654-.64 1.07 0 .214.075.342.213.375.139.032.246.107.427 0 .188-.113.337-.281.426-.482.111-.17.177-.365.192-.567l.022-.022zm-19.964 11.152c.2-.36.31-.764.32-1.177a.847.847 0 00-.32-.75.925.925 0 00-.854.108l-9.704 5.672a2.356 2.356 0 00-1.173 2.034.847.847 0 00.32.749c.271.119.58.119.853 0l9.704-5.672c.367-.238.662-.57.854-.964zm17.383-11.665a.372.372 0 00-.427.053c-.2.09-.367.24-.48.428-.095.201-.15.42-.16.642-.02.16.04.32.16.428.107.075.267.054.48-.053.167-.137.311-.3.427-.482.095-.182.15-.383.16-.588a.493.493 0 00-.16-.428zm.853.963a.457.457 0 00-.48.053c-.158.126-.3.27-.426.428-.106.198-.16.419-.16.643a.58.58 0 00.16.428c.139.074.31.053.426-.054.195-.12.36-.286.48-.481.105-.198.16-.419.16-.643a.429.429 0 00-.16-.374zm-1.493.856a.457.457 0 00-.48.054.833.833 0 00-.426.428c-.106.197-.16.418-.16.642-.02.16.04.32.16.428.106.075.245.053.426 0 .195-.121.36-.286.48-.482.095-.182.15-.383.16-.588a.483.483 0 00-.16-.482zm-1.44-1.926a.595.595 0 00-.426.053c-.195.12-.36.286-.48.482-.105.197-.16.418-.16.642a.429.429 0 00.16.374.457.457 0 00.48-.053c.157-.126.3-.27.426-.428.106-.198.16-.418.16-.642a.493.493 0 00-.16-.428zm.64.963c-.106-.075-.245-.054-.426.053-.196.121-.36.286-.48.482-.095.182-.15.383-.16.589 0 .214 0 .342.16.374a.393.393 0 00.48 0c.188-.113.337-.28.426-.481.105-.198.16-.419.16-.643a.429.429 0 00-.16-.374zm-.64 1.82a.372.372 0 00-.426.053c-.195.12-.36.285-.48.481-.105.179-.16.382-.16.589 0 .214.053.342.16.375a.404.404 0 00.48 0c.167-.137.31-.3.426-.482.106-.198.16-.418.16-.642a.429.429 0 00-.16-.375z" fill="url(#b)" fill-rule="nonzero"/><path d="M198.39 475.385l4.93 2.83 40.863 23.428 10.99 6.308 15.79 9.01 22.566 12.986 23.259-13.357 9.229-5.3 4.588-2.597 5.495-3.18 27.847-15.986H364L293.529 530l-95.171-54.594.032-.02zM186.248 467l-1.227.72 11.395 6.52L185 467.69l1.248-.689z" fill="#303E48" fill-rule="nonzero"/><path d="M367.5 505.04a.399.399 0 01.35 0c.1 0 .15.078.15.232a.655.655 0 01-.15.387.773.773 0 01-.35.271.34.34 0 01-.349.039c-.105-.065-.162-.167-.15-.27a.593.593 0 01.15-.35c.092-.118.21-.223.35-.309z" fill="url(#c)"/><path d="M367.23 504.922a1.59 1.59 0 00-.378.429.952.952 0 00-.161.483.428.428 0 00.161.375c.123.074.28.051.377-.053a.903.903 0 00.377-.376c.101-.161.157-.346.162-.536 0-.186-.054-.294-.162-.322a.346.346 0 00-.377 0zm1.077.053a.47.47 0 00.107.376c.12.053.258.053.378 0a.645.645 0 00.377-.375c.1-.162.156-.347.161-.537a.354.354 0 00-.161-.322c-.076-.075-.194-.053-.377.054a.903.903 0 00-.378.375 1.07 1.07 0 00-.161.43h.054zm-.539-.214a.492.492 0 01.162.43c0 .207-.056.41-.162.59a1.484 1.484 0 01-.485.482c-.183.107-.323.129-.43.054a.492.492 0 01-.162-.43c.01-.206.065-.407.161-.59.09-.2.241-.37.431-.482a.476.476 0 01.431 0l.054-.054zm.593-.322c.117-.183.262-.346.43-.483a.465.465 0 01.485-.053c.111.115.17.27.162.429-.01.206-.066.407-.162.59-.109.206-.278.374-.484.483a.378.378 0 01-.431.053.492.492 0 01-.162-.429 1.23 1.23 0 01.108-.59h.054zm1.13.59a1.59 1.59 0 00-.376.43.952.952 0 00-.162.482.428.428 0 00.162.376.508.508 0 00.377-.054c.15-.12.278-.265.377-.43a.792.792 0 00.161-.482.428.428 0 00-.161-.375.476.476 0 00-.431.053h.054zm1.509-1.555c-.01.23-.085.453-.215.643a.839.839 0 01-.431.43c-.184.107-.324.128-.431.053a.386.386 0 01-.216-.375c.01-.23.085-.454.216-.644.09-.201.24-.37.43-.483.184-.107.324-.129.432-.054.13.102.192.268.161.43H371zm-.27-.269a.303.303 0 00-.376.054.903.903 0 00-.377.375 1.07 1.07 0 00-.162.537.354.354 0 00.162.322c.122.073.28.05.377-.054a.903.903 0 00.377-.375c.1-.162.156-.347.161-.537a.354.354 0 00-.215-.322h.054zm-.807 1.663a.44.44 0 01.215.43.931.931 0 01-.215.59c-.09.2-.241.37-.431.482-.183.107-.323.129-.431 0a.44.44 0 01-.216-.429c.07-.427.302-.81.647-1.073a.39.39 0 01.377 0h.054zm-19.23 12.498c.208-.32.32-.691.323-1.072a.654.654 0 00-.323-.644c-.183-.14-.41-.129-.7.054l-9.804 5.632c-.32.17-.584.431-.754.75-.17.314-.262.664-.27 1.02a.814.814 0 00.27.697.746.746 0 00.754-.107l9.804-5.632a2.15 2.15 0 00.646-.698h.054zm.161 0a2.354 2.354 0 01-.861.859l-9.804 5.685c-.275.12-.587.12-.862 0a.846.846 0 01-.323-.75 2.358 2.358 0 011.185-2.039l9.804-5.632a.94.94 0 01.861-.107c.23.178.352.462.324.75 0 .457-.132.903-.377 1.288l.053-.054zm20.092-11.103c-.01.23-.085.453-.215.644-.09.2-.241.37-.431.482-.183.108-.323.108-.431 0-.108-.107-.216-.16-.216-.375.096-.417.323-.793.647-1.073a.443.443 0 01.43 0 .386.386 0 01.216.322zm-.108.107a.428.428 0 00-.161-.375.303.303 0 00-.377.053.903.903 0 00-.377.376 1.07 1.07 0 00-.162.536c0 .179.054.286.162.322a.346.346 0 00.377 0c.15-.12.278-.265.377-.43a.952.952 0 00.161-.535v.053zm-1.616.376c.115.09.175.23.162.375 0 .225-.055.446-.162.644a1.484 1.484 0 01-.484.483.378.378 0 01-.431 0 .578.578 0 01-.162-.43c0-.224.055-.445.162-.643a2.71 2.71 0 01.43-.43.475.475 0 01.485-.107v.108zm-.861-.966a.492.492 0 01.161.43c-.01.205-.065.407-.161.59a2.041 2.041 0 01-.431.482c-.216.107-.377.129-.485.054a.492.492 0 01-.162-.43c.01-.223.065-.441.162-.643.113-.19.283-.34.485-.43a.367.367 0 01.43-.107v.054zm-.431.161a2.71 2.71 0 00-.431.43 1.07 1.07 0 00-.108.482c0 .182 0 .29.108.322a.443.443 0 00.43 0c.117-.118.225-.243.324-.376.1-.161.156-.346.161-.536a.428.428 0 00-.161-.376.346.346 0 00-.323 0v.054zm-.216 1.663a.492.492 0 01.162.429c-.01.206-.066.407-.162.59a1.484 1.484 0 01-.485.483c-.183.107-.323.129-.43 0a.492.492 0 01-.162-.43c0-.224.055-.445.162-.643a.839.839 0 01.43-.43.465.465 0 01.485-.053v.054zm.647.536c.122.074.28.051.377-.053a.645.645 0 00.377-.376.792.792 0 00.161-.483.428.428 0 00-.161-.375.519.519 0 00-.377.054.903.903 0 00-.377.375c-.073.17-.11.352-.108.536 0 .13 0 .236.108.269v.053zm-1.132-.375a2.075 2.075 0 00-.377.375 1.07 1.07 0 00-.161.537.428.428 0 00.161.375.508.508 0 00.377-.053c.151-.12.279-.265.377-.43a.952.952 0 00.162-.482.428.428 0 00-.162-.376.465.465 0 00-.377 0v.054zm-.97-2.146a.492.492 0 01.162.43c0 .224-.055.445-.161.643a2.71 2.71 0 01-.431.43.465.465 0 01-.485.053.428.428 0 01-.161-.376c0-.224.055-.445.161-.643.122-.197.288-.362.485-.483a.606.606 0 01.43-.054zm-.43.161a.86.86 0 00-.377.43 1.07 1.07 0 00-.162.536.354.354 0 00.162.321c.128.031.263.012.377-.053.136-.099.246-.227.323-.376.1-.161.157-.346.162-.536 0-.179-.054-.286-.162-.322a.26.26 0 00-.323 0zm1.077.805c.114.09.175.23.162.375 0 .225-.055.446-.162.644-.09.201-.24.37-.43.483a.4.4 0 01-.485 0c-.108 0-.162-.161-.162-.376.01-.206.065-.407.162-.59.121-.196.287-.362.484-.483.183-.107.324-.128.431-.053zm-.43.16a2.075 2.075 0 00-.378.376 1.155 1.155 0 00-.161.537.428.428 0 00.161.375c.12.053.257.053.377 0a.903.903 0 00.377-.375c.101-.162.157-.347.162-.537 0-.186-.054-.293-.162-.322a.357.357 0 00-.323-.053h-.054zm-.216 1.663c.114.09.175.232.161.376 0 .224-.055.446-.161.644a2.041 2.041 0 01-.431.482.41.41 0 01-.485 0c-.108 0-.161-.16-.161-.375 0-.208.055-.411.161-.59.122-.196.288-.362.485-.483a.378.378 0 01.43-.054zm-.108.108a.346.346 0 00-.323 0 .655.655 0 00-.377.429.792.792 0 00-.162.483c0 .186.054.293.162.321.075.076.194.076.377 0 .129-.126.238-.27.323-.429a.792.792 0 00.162-.482.407.407 0 00-.162-.322z" fill="#E7DCFF" fill-rule="nonzero"/><path d="M368.025 504.726a.69.69 0 01.1-.367.78.78 0 01.35-.285c.17-.081.28-.097.35-.04.1.053.158.146.15.244a.71.71 0 01-.15.407.557.557 0 01-.35.285.52.52 0 01-.35 0 .339.339 0 01-.1-.244z" fill="url(#d)"/><path d="M369.5 505.05a.582.582 0 01.349-.04c.105.066.162.17.15.275 0 .127-.052.25-.15.352a1.3 1.3 0 01-.349.313.582.582 0 01-.349.04c-.105-.066-.162-.17-.15-.275a.603.603 0 01.15-.352 1.3 1.3 0 01.349-.313z" fill="url(#e)"/><path d="M370.85 504.031c.1.051.158.141.15.235a.665.665 0 01-.15.39.774.774 0 01-.35.274.338.338 0 01-.35.039c-.1-.051-.158-.141-.15-.235a.665.665 0 01.15-.39.774.774 0 01.35-.274.338.338 0 01.35-.039z" fill="url(#f)"/><path d="M347.958 508.846c.179.538-.21 1.077-1.157 1.669l-11.466 6.783a4.517 4.517 0 01-4.838 0l-3.261-1.938c-.947-.571-1.347-1.152-1.21-1.723.105-.398.505-.786 1.21-1.184l11.518-6.783a4.424 4.424 0 014.68 0l2.946 1.722 1.578 1.454zm-1.525-1.454l.368.216c.683.484 1.052.84 1.157 1.238l-1.525-1.454zm.946 1.454a2.37 2.37 0 00-1-.97l-3.26-1.937a3.775 3.775 0 00-4.05 0l-11.465 6.783a2.125 2.125 0 00-.947.915c-.136.463.158.937.894 1.4l3.05 1.83a.146.146 0 00.106.054l.053.054.157.053.053.054a3.744 3.744 0 003.997-.054l.263-.107.105-.108 11.15-6.567c.736-.463 1-.937.894-1.4z" fill="#7248CE" fill-rule="nonzero"/><path d="M326.026 514c-.137-.531.263-1.062 1.21-1.593l11.413-6.69a4.529 4.529 0 014.89 0l3.262 1.912c.946.53 1.336 1.061 1.157 1.646-.105-.393-.495-.776-1.157-1.169l-.368-.212L326.026 514zm20.354-6.106l-2.945-1.699a4.476 4.476 0 00-4.681 0l-11.518 6.69c-.705.34-1.105.722-1.21 1.062l20.354-6.053z" fill="#4A239D" fill-rule="nonzero"/><path d="M346.967 509.415c.138.452-.16.915-.903 1.367l-11.26 6.416-.106.105-.266.106a3.889 3.889 0 01-4.037.052l-.053-.052-.159-.053-.053-.053a.15.15 0 01-.106-.052l-3.081-1.788c-.744-.452-1.062-.915-.903-1.367.215-.391.55-.704.956-.894l11.58-6.627a3.921 3.921 0 014.089 0l3.293 1.894a2.36 2.36 0 011.01.946z" fill="#966DEF"/><path d="M350.668 517.693a2.009 2.009 0 01-.708.724l-9.92 5.424a.786.786 0 01-.763.104.764.764 0 01-.272-.672c.008-.343.101-.68.272-.982.173-.307.439-.56.763-.723l9.92-5.425c.294-.175.523-.186.708-.051.23.126.359.37.327.62-.013.349-.126.688-.327.981z" fill="url(#g)"/><path d="M370.998 506.302a.593.593 0 01-.15.348c-.09.119-.21.224-.349.31a.399.399 0 01-.35 0c-.1 0-.149-.078-.149-.232a.655.655 0 01.15-.387c.078-.116.2-.21.35-.271a.34.34 0 01.349-.039c.105.065.162.167.15.27z" fill="url(#h)"/><path d="M367.524 506.029a.403.403 0 01.3 0c.106.065.163.167.15.271a.657.657 0 01-.15.388 2.85 2.85 0 01-.3.272.515.515 0 01-.4 0c-.07 0-.1-.101-.1-.233a.634.634 0 01.1-.35 1.9 1.9 0 01.4-.348z" fill="url(#i)"/><path d="M368.124 507.968c-.07 0-.1-.104-.1-.24a.82.82 0 01.1-.398.778.778 0 01.35-.28.588.588 0 01.35-.04c.106.067.162.172.15.28 0 .13-.052.256-.15.359a.554.554 0 01-.35.28.333.333 0 01-.35.039z" fill="url(#j)"/><path d="M367.5 508.05a.582.582 0 01.349-.04c.105.066.162.17.15.275a.603.603 0 01-.15.352 1.3 1.3 0 01-.349.313.582.582 0 01-.349.04c-.105-.066-.162-.17-.15-.275a.668.668 0 01.15-.391c.101-.103.218-.195.349-.274z" fill="url(#k)"/><path d="M365.525 506.042a.291.291 0 01.3 0c.1 0 .15.079.15.237a.676.676 0 01-.15.395.877.877 0 01-.3.276.593.593 0 01-.35.04c-.1-.052-.158-.143-.15-.237a.676.676 0 01.15-.395.706.706 0 01.35-.316z" fill="url(#l)"/><path d="M366.5 507.042a.384.384 0 01.35 0c.1 0 .15.08.15.242a.7.7 0 01-.15.404.778.778 0 01-.35.282.523.523 0 01-.349 0c-.105-.068-.162-.174-.15-.282a.755.755 0 01.15-.404c.105-.091.222-.172.35-.242z" fill="url(#m)"/><path d="M365.824 509.01c.106.067.163.17.15.277a.51.51 0 01-.15.355c-.08.117-.18.224-.3.317-.17.055-.28.055-.35 0-.096-.055-.152-.144-.15-.238a.51.51 0 01.15-.355.538.538 0 01.35-.316.441.441 0 01.3-.04z" fill="url(#n)"/><path d="M203 467.127v-11.12l34.573-19.845a4107.348 4107.348 0 00-17.634 15.908A1660.93 1660.93 0 01203 467.127zm0 2.851c5.6-4.901 11.727-10.339 18.382-16.312a3457.059 3457.059 0 0122.55-20.345v67.324L203 477.13v-7.15zm67.756-35.114V516l-15.817-9.045V426.16l.32-.16 15.497 8.864zM336 472.373v32.135l-5.504 3.192v-38.445l5.504 3.118zm-19.344 43.276v-54.375l9.245 5.32v43.734l-9.245 5.32z" fill="url(#o)" fill-rule="nonzero"/><path d="M246.676 431.9l8.483-4.9v80.898l-10.99-6.338v-67.392c.907-.788 1.696-1.533 2.507-2.268zM203.3 456.877v11.131a457.04 457.04 0 01-6.904 6.018L185 467.476l1.227-.725 17.073-9.874zm132.796 48.571v-32.167L364 489.365h-.053l-27.85 16.083zm-5.495-35.31v38.506l-4.588 2.61v-43.778l4.588 2.663zm-59.649-34.404l45.83 26.416v54.43L293.52 530l-22.568-13.048v-81.218zM203.3 478.021l-4.93-2.844 4.93-4.314v7.158z" fill="url(#p)" fill-rule="nonzero"/><path d="M554.813 279.532L547 275.058 624.812 230 719 283.995l-7.813 4.517L641.24 329l-86.428-49.468zm119.394 5.159l-3.478-1.98-37.836 21.62 3.586 2.033 37.728-21.673zm22.21-2.248l-3.533-2.087-50.893 29.165 3.585 2.034 50.84-29.112zM630.43 256.33l-3.585-2.034-37.783 21.566 3.533 2.087 37.835-21.62zm9.419 5.458l-3.425-2.033-37.89 21.672 3.533 1.98 37.782-21.619zm15.948 12.255l-3.532-1.98-37.782 21.566 3.532 2.14 37.782-21.726zm8.99 5.19l-3.532-1.98-37.782 21.566 3.586 2.087 37.728-21.673zm-81.13-6.475l37.73-21.62-3.533-2.033-37.729 21.62 3.532 2.033z" fill="#F9FCF6" fill-rule="nonzero"/><path d="M664.398 278.938l-37.635 21.446-3.577-2.07 37.688-21.393 3.524 2.017zm-8.969-5.149l-37.688 21.499-3.523-2.124 37.688-21.392 3.523 2.017zm-15.908-12.155l-37.634 21.445-3.523-2.017 37.74-21.499 3.417 2.07zm-9.395-5.415l-37.688 21.445-3.523-2.07 37.634-21.392 3.577 2.017zM696 282.123L645.287 311l-3.577-2.017L692.477 280l3.523 2.123zm-22.154 2.23l-37.634 21.445-3.577-2.017 37.741-21.445 3.47 2.017zm-90.376-11.89l-3.47-2.018L617.581 249l3.523 2.017-37.634 21.445z" fill="#202592" fill-rule="nonzero"/><path d="M143.394 310.934l-85.145 48.924c-.243.14-.53.178-.8.107a1.217 1.217 0 01-.641-.534.802.802 0 01-.107-.802c.064-.271.238-.503.48-.641l84.078-48.294 47.531-27.31 33.717-19.423.8 2.01-32.403 18.652-47.51 27.311zm1.495-144.977v2.49L1.61 250.754c-.243.14-.53.178-.8.107a1.217 1.217 0 01-.641-.535.802.802 0 01-.107-.801c.064-.272.238-.504.48-.642l144.347-82.926zm188.76-102.103v-2.49l94.327-54.195a.8.8 0 01.8-.107c.28.077.525.246.695.481.139.243.177.53.106.802-.104.28-.29.522-.534.695L333.65 63.854zm79.06 45.557l-.801-1.999 133.456-76.727a.8.8 0 01.8-.107c.28.077.525.246.695.481.139.243.177.531.106.802-.104.28-.29.522-.533.695L412.708 109.41z" fill="#624FBE" fill-rule="nonzero"/><path d="M334 15.687L145 124v-15.687L334 0v15.687zM157.187 107.46a2.889 2.889 0 00-2.138-.908 3.028 3.028 0 00-2.192.908 3.08 3.08 0 000 4.268 3.028 3.028 0 002.192.907c.808.01 1.584-.319 2.138-.907a2.963 2.963 0 00.074-4.194l-.074-.074zm6.734-.214a2.963 2.963 0 00.075-4.194l-.075-.074a2.889 2.889 0 00-2.138-.907 2.985 2.985 0 00-2.138.907 3.08 3.08 0 000 4.268c.56.579 1.332.906 2.138.907.809.01 1.584-.319 2.138-.907z" fill="#27147A" fill-rule="nonzero"/><path d="M145 123.205L334 15v108.173l-110.535 63.622c-16.72 9.659-23.269 19.165-19.648 28.518L145.02 249V123.205H145zm156.075-27.91V50.767c0-.588-.479-1.066-1.07-1.066-.59 0-1.068.478-1.068 1.066v38.826l-.428-1.674a608.6 608.6 0 01-1.603-5.756 48.96 48.96 0 00-4.276-10.66c-1.925-3.274-4.116-4.915-6.575-4.905-2.138 0-4.418 1.244-6.841 3.731a59.39 59.39 0 00-5.399 6.93l-.641-.085V64.732c0-.59-.479-1.066-1.07-1.066-.59 0-1.068.477-1.068 1.066v12.632a5.54 5.54 0 00-2.566 1.493 5.968 5.968 0 00-.94 7.11c-.364.459-.696.843-.984 1.152-2.245 2.594-4.258 3.891-6.04 3.891-.4 0-2.484-1.155-6.254-3.465-3.634-2.27-5.505-3.4-5.612-3.411-2.808 0-5.89 3.465-9.247 10.394-1.568 3.34-3.51 8.244-5.826 14.712V80.99c0-.59-.479-1.067-1.069-1.067s-1.069.477-1.069 1.066v34.36l-.695 2.046c-4.062 11.904-6.77 19.527-8.124 22.867-2.851 6.965-5.31 10.447-7.376 10.447a2.141 2.141 0 01-1.283-.533 4.468 4.468 0 00-1.39-.32 5.05 5.05 0 00-3.474 1.76c-.397.406-.771.833-1.123 1.279V97.246c0-.588-.478-1.066-1.069-1.066-.59 0-1.069.478-1.069 1.066v58.634a26.032 26.032 0 01-2.833 3.646 4.642 4.642 0 01-3.207 1.919 3.908 3.908 0 01-2.405-.907 18.144 18.144 0 01-1.817-1.919 18.144 18.144 0 00-1.87-1.972 4.455 4.455 0 00-2.566-.853c-5.068 0-9.54 3.678-13.416 11.034V111.18c0-.589-.48-1.066-1.07-1.066-.59 0-1.068.477-1.068 1.066v60.317c-.952 2.325-2.085 5.33-3.421 9.115a83.762 83.762 0 01-3.528 8.902c-1.069 1.95-1.625 3.091-1.764 3.411a7.34 7.34 0 01-3.047 2.506 8.568 8.568 0 01-2.084.692c-.755.105-1.504.247-2.245.427a6.737 6.737 0 00-4.062 2.505 47.621 47.621 0 00-4.65 7.463c-.396.927-.824 1.95-1.283 3.091v1.44l26.084-14.926v6.717a296.197 296.197 0 00-2.566 5.81c-.61 1.354-1.07 2.558-1.55 3.624l35.683-20.916.503-.298 109.893-64.55v-5.864a3.546 3.546 0 01-.267-.533c-1.14-2.238-1.835-3.57-2.084-3.997l-.054-.075v-.245l10.53-6.077a168.078 168.078 0 00-2.726-5.81c-2.95-5.87-5.552-9.388-7.804-10.554V46.13c0-.589-.479-1.066-1.069-1.066s-1.069.477-1.069 1.066V92.96a11.225 11.225 0 00-4.704 2.367l-2.298 1.705a4.627 4.627 0 01-2.298.746c-.909 0-1.721-.82-2.566-2.483h-.053zm-95.356 83.377v.906c-.46.544-.865.821-1.229.821a2.41 2.41 0 01-1.069-.394l2.298-1.333zm36.24-20.82c-1.315 2.27-2.555 3.411-3.742 3.411-.557 0-1.11-.108-1.625-.32l5.367-3.091zm-62.003 35.68c-.128.225-.235.449-.352.673a170.19 170.19 0 00-1.925 3.965v-3.326l2.277-1.311zM521.29 186.457L571 214.915l-3.325 3.532L525.149 243l-51.287-29.362 47.429-27.18zm-2.131-1.223l-47.429 27.18-3.73-2.127L515.269 183l3.89 2.234zM141.246 309.325L117 295.425 164.308 268l24.427 14.028-47.489 27.297zm2.133 1.24l47.468-27.318L216 297.681 168.5 325l-25.12-14.434z" fill="#1E2153" fill-rule="nonzero"/><path d="M509.086 458L525 467.13l-13.093 7.634-15.967-9.13L509.086 458zm-24.376 41.483l-27.09-15.643 22.353-13.027 27.197 15.643-22.46 13.027zM435 500.87l13.2-7.635 15.966 9.13L451.02 510 435 500.87z" fill="#49379B" fill-rule="nonzero"/><path d="M646.66 71.28c-1.219.798-2.762 1.75-4.629 2.854-4.275 2.458-7.054 3.688-8.337 3.688a18.373 18.373 0 01-10.742-3.795 74.664 74.664 0 01-8.818-8.124 61.334 61.334 0 00-8.925-7.964 19.72 19.72 0 00-8.957-3.474c.203-.467.34-.96.406-1.465a21.462 21.462 0 019.406 3.656 66.133 66.133 0 019.246 8.124 82.52 82.52 0 008.55 7.964 16.599 16.599 0 009.834 3.528c1.07-.072 3.563-1.23 7.482-3.475a85.156 85.156 0 004.169-2.458c.396.369.838.685 1.315.94zM295.93 388.766a629.206 629.206 0 00-15.626 12.69c-7.532 6.242-15.435 13.048-23.708 20.417-.77.684-1.582 1.4-2.437 2.138l-8.145 7.322c-.812.738-1.657 1.486-2.512 2.277a5208.983 5208.983 0 00-22.553 20.439 1964.115 1964.115 0 01-18.385 16.387l-4.938 4.33-1.41 1.23-.385.32-3.41 2.94-.78.662-2.085 1.775-3.848 3.207c-25.118 20.938-47.237 35.97-66.355 45.1v-.235a5.548 5.548 0 00-.353-2c18.876-9.085 40.639-23.902 65.287-44.447l3.26-2.726 2.084-1.764.78-.674c1.07-.95 2.245-1.924 3.41-2.94l.374-.32 1.422-1.219 6.915-6.04a1523.497 1523.497 0 0016.942-15.125 5350.042 5350.042 0 0117.636-15.982 2172.873 2172.873 0 0115.072-13.576l2.939-2.619c8.08-7.197 15.805-13.871 23.173-20.022a744.884 744.884 0 0115.606-12.688 333.596 333.596 0 014.008-3.154c7.126-5.537 13.867-10.49 20.223-14.859a308.112 308.112 0 019.94-6.574c16.967-10.732 33.214-18.554 48.741-23.464a135.073 135.073 0 0123.141-5.26c1.368-.181 2.715-.33 4.062-.459.812-.075 1.635-.171 2.458-.267 1.326-.16 2.651-.332 3.987-.535 1.133-.181 2.266-.374 3.42-.588 3.414-.641 6.841-1.436 10.283-2.384 1.016-.277 2.031-.566 3.046-.876l2.833-.877a149.157 149.157 0 0010.56-3.934c.247-.172.528-.289.823-.342.941-.406 1.892-.812 2.833-1.24a153.42 153.42 0 007.856-3.741l2.33-1.197a195.177 195.177 0 007.322-4.094l2.031-1.198a401.63 401.63 0 007.001-4.383l2.052-1.368a279.323 279.323 0 007.857-5.526 204.592 204.592 0 004.489-3.368 249.29 249.29 0 009.62-7.75c4.895-4.126 10.175-8.812 15.84-14.057 13.64-12.664 29.487-28.61 47.544-47.837l9.566-10.24 3.335-3.55c10.518-11.202 18.1-19.166 22.746-23.891a486.153 486.153 0 0136.341-34.047c25.197-21.045 49.29-34.425 72.278-40.14.053.703.235 1.391.534 2.03-22.71 5.66-46.517 18.914-71.422 39.767-10.796 8.98-22.874 20.275-36.235 33.886-6.413 6.485-18.295 19.028-35.647 37.628-17.871 19.028-33.594 34.86-47.17 47.495-5.629 5.245-10.89 9.938-15.786 14.079a273.65 273.65 0 01-8.947 7.29l-1.368 1.069a260.693 260.693 0 01-11.597 8.391l-2.031 1.369a231.687 231.687 0 01-6.916 4.404l-2.01 1.208a336.085 336.085 0 01-7.321 4.137l-2.298 1.208a172.278 172.278 0 01-7.75 3.795l-2.48 1.069a148.396 148.396 0 01-8.55 3.42 97.15 97.15 0 01-2.619.941c-1.197.406-2.373.802-3.56 1.176a150.756 150.756 0 01-7.321 2.063c-1.76.45-3.524.855-5.29 1.219a92.867 92.867 0 01-3.347.652c-3.067.534-6.113.962-9.16 1.25l-2.48.268c-2.308.278-4.635.634-6.98 1.069a143.549 143.549 0 00-19.688 5.11c-1.85.62-3.72 1.282-5.59 1.977a122.644 122.644 0 00-4.169 1.636 227.512 227.512 0 00-36.096 18.835 321.953 321.953 0 00-9.01 5.933c-6.335 4.347-13.105 9.3-20.309 14.859-1.25.972-2.565 1.988-3.922 3.057v.053zm154.346-164.622l6.84-3.934 14.398-8.253 47.597-27.344 121.264-69.623c.243-.14.53-.178.801-.107.282.08.522.263.674.513.143.242.177.533.096.802-.071.28-.252.519-.502.663l-120.195 68.981-47.565 27.312-15.734 9.033-6.873 3.934-2.886 1.646-27.523 15.832a1.005 1.005 0 01-.802.096 1.069 1.069 0 01-.662-.502 1.07 1.07 0 01-.118-.802c.074-.281.259-.52.513-.663l27.79-15.96 2.887-1.624zm-27.47-68.607c-.749 1.004-1.518 2.03-2.298 3.1-5.794 7.967-12.225 17.648-19.294 29.044a569.94 569.94 0 00-5.536 9.043 6.638 6.638 0 00-.556-.673 5.505 5.505 0 00-.535-.46 564.496 564.496 0 015.933-9.62c7.076-11.36 13.514-21.006 19.314-28.938.78-1.069 1.55-2.138 2.309-3.1a205.927 205.927 0 015.526-6.98c6.955-8.403 12.78-13.747 17.476-16.035 11.088-5.373 20.6-8.064 28.539-8.07a33.293 33.293 0 0121.11 7.054c5.665 4.412 9.78 6.657 12.346 6.735 13.93 0 25.154-4.294 33.67-12.881 5.807-5.908 11.4-15.422 16.78-28.542 2.751-7.02 4.818-12.169 6.2-15.447a85.521 85.521 0 017.055-13.522c3.99-5.994 8.836-9.974 14.536-11.94.208.473.47.922.78 1.335-5.508 1.832-10.186 5.662-14.034 11.492a79.3 79.3 0 00-6.894 13.309c-1.425 3.278-3.492 8.409-6.2 15.393-5.486 13.334-11.205 23.008-17.155 29.023-8.765 8.908-20.344 13.362-34.738 13.362-2.85 0-7.286-2.352-13.308-7.055a31.733 31.733 0 00-20.148-6.735c-7.767 0-17.066 2.637-27.898 7.91-4.674 2.288-10.5 7.694-17.476 16.217-1.763 2.095-3.591 4.436-5.504 6.98z" fill="#C6E070" fill-rule="nonzero"/><path d="M646.43 71.057a6.011 6.011 0 01-1.207-.94h-.053a5.929 5.929 0 01.053-8.277 5.636 5.636 0 014.164-1.709 5.817 5.817 0 015.872 5.789v.085a5.619 5.619 0 01-1.709 4.112 5.753 5.753 0 01-4.163 1.709 5.646 5.646 0 01-2.957-.77zm55.825 45.038v-.534a5.758 5.758 0 011.708-4.166 5.636 5.636 0 014.164-1.708 5.817 5.817 0 015.872 5.788v.086a5.64 5.64 0 01-1.708 4.165 5.753 5.753 0 01-4.164 1.709 5.636 5.636 0 01-4.164-1.71 5.885 5.885 0 01-1.153-1.601 5.577 5.577 0 01-.555-2.03zM596.081 54.15a5.693 5.693 0 01-1.25 1.87 5.753 5.753 0 01-4.163 1.708 5.636 5.636 0 01-4.164-1.709 7.262 7.262 0 01-.533-.609 6.142 6.142 0 01-.748-1.313 6.058 6.058 0 01-.395-2.222 5.758 5.758 0 011.708-4.165 5.636 5.636 0 014.164-1.709 5.817 5.817 0 015.872 5.789v.085c.016.296.016.592 0 .887a5.63 5.63 0 01-.438 1.442l-.053-.054zM119.39 527.096c.24.639.36 1.316.353 1.997v.267a5.64 5.64 0 01-1.708 3.93 5.753 5.753 0 01-4.164 1.71 5.817 5.817 0 01-5.872-5.79v-.084a5.758 5.758 0 011.709-4.166 5.636 5.636 0 014.163-1.709 5.797 5.797 0 015.52 3.877v-.032zM270.599 88.593a5.53 5.53 0 01-2.562-1.495 6.408 6.408 0 01-.94-1.207 5.993 5.993 0 01.94-7.123 5.53 5.53 0 012.562-1.495 6.222 6.222 0 011.601-.214h.534l.64.085a5.841 5.841 0 014.698 5.768 5.64 5.64 0 01-1.708 4.165 5.828 5.828 0 01-3.63 1.687h-.534a6.233 6.233 0 01-1.601-.17zm125.145 107.795a5.897 5.897 0 01-.555 7.657 5.753 5.753 0 01-4.163 1.709 5.817 5.817 0 01-5.872-5.789v-.085a5.758 5.758 0 011.708-4.165 5.913 5.913 0 017.793-.46c.188.142.366.295.534.46.2.212.385.436.555.673zm63.662 245.802a3.021 3.021 0 01-1.495-.833 2.906 2.906 0 01-.854-2.136 2.97 2.97 0 01.267-1.282c.14-.32.34-.609.587-.854a3.02 3.02 0 012.19-.908h.266a3.02 3.02 0 011.868.908c.599.546.93 1.325.908 2.136a3.45 3.45 0 01-.107.875 3.203 3.203 0 01-2.936 2.136 3.725 3.725 0 01-.694-.042zM156.897 106.643a2.97 2.97 0 01.075 4.197l-.075.075a2.882 2.882 0 01-2.135.908 3.02 3.02 0 01-2.189-.908 3.087 3.087 0 010-4.272 3.02 3.02 0 012.189-.908c.807-.01 1.582.32 2.135.908zM264.94 211.948a2.882 2.882 0 01-2.136.908 3.02 3.02 0 01-2.188-.908 3.087 3.087 0 010-4.272 2.946 2.946 0 012.188-.854c.808-.01 1.582.32 2.136.908a2.97 2.97 0 01.074 4.197l-.075.075v-.054zM140.35 345.823c.6.59.928 1.402.907 2.243a3.098 3.098 0 01-3.043 3.15h-.16a3.203 3.203 0 01-3.203-3.15 3.289 3.289 0 013.203-3.204c.866-.019 1.7.33 2.295.961z" fill="#C6E070" fill-rule="nonzero"/><path d="M300.052 95.491v37c0 .593-.477 1.072-1.065 1.072s-1.064-.48-1.064-1.071v-81.76c0-.591.476-1.07 1.064-1.07.588 0 1.065.479 1.065 1.07v44.76zM314 93.541v27.271c0 .592-.477 1.072-1.065 1.072s-1.064-.48-1.064-1.072v-74.74c0-.592.476-1.072 1.064-1.072.588 0 1.065.48 1.065 1.072v47.47zm-107.058 98.154l-.5.3h-.246c-.588 0-1.064-.48-1.064-1.072v-93.47c0-.593.476-1.072 1.064-1.072.589 0 1.065.48 1.065 1.071v93.493a1.075 1.075 0 01-.32.75zM175 196.785V111.49c0-.592.477-1.072 1.065-1.072s1.064.48 1.064 1.072v93.438c0 .592-.476 1.072-1.064 1.072-.588 0-1.065-.48-1.065-1.072v-8.143zm57.815-87.278v55.72c0 .592-.477 1.072-1.065 1.072s-1.065-.48-1.065-1.071V81.11c0-.592.477-1.071 1.065-1.071s1.065.48 1.065 1.071v28.396zm39.394-32.232h-.532a6.17 6.17 0 00-1.597.214V64.77c0-.592.477-1.071 1.065-1.071s1.064.48 1.064 1.071v12.505zm0 41.983v31.932c0 .592-.476 1.072-1.064 1.072-.588 0-1.065-.48-1.065-1.072V88.826a6.17 6.17 0 001.597.215h.532v30.217z" fill="#BBADFF" fill-rule="nonzero"/><path d="M314.48 116.404v-22.48c2.258 1.17 4.856 4.702 7.797 10.597a169.177 169.177 0 012.723 5.834l-10.52 6.049zm-13.99-20.586c.844 1.67 1.698 2.494 2.563 2.494.819-.04 1.611-.3 2.297-.75l2.296-1.712a11.193 11.193 0 014.699-2.376v20.65a8.743 8.743 0 00-.641-.45 8.464 8.464 0 00-4.86-1.285c-1.245 0-3.363.66-6.354 1.98V95.819zm-2.136 19.537c-1.815.856-3.118 1.434-3.898 1.745-.8.44-1.665.747-2.563.91a6.396 6.396 0 01-3.204-.91 22.562 22.562 0 01-2.776-2.141 33.4 33.4 0 00-2.563-2.034 5.47 5.47 0 00-2.83-.91c-1.147 0-2.482.803-4.005 2.408a42.314 42.314 0 00-3.952 5.085V89.352a5.825 5.825 0 003.631-1.691 5.66 5.66 0 001.709-4.175 5.852 5.852 0 00-4.7-5.78 61.223 61.223 0 015.447-6.96c2.457-2.497 4.735-3.746 6.835-3.746 2.457 0 4.646 1.641 6.568 4.924a49.312 49.312 0 014.272 10.705c.32 1.32.855 3.248 1.602 5.781l.48 1.68-.053 25.265zm-121.16 52.326c3.873-7.386 8.341-11.08 13.403-11.08a4.436 4.436 0 012.563.857c.674.63 1.299 1.31 1.87 2.034a18.18 18.18 0 001.815 1.927 3.893 3.893 0 002.403.91 4.633 4.633 0 003.203-1.927 26.123 26.123 0 002.83-3.662v22.856l-2.37 1.306a8.315 8.315 0 01-.833-.514c-1.207-.856-2.136-1.53-2.83-2.034-2.852-2.002-5.052-2.997-6.622-2.997-2.52 0-6.924 6.376-13.21 19.13l-2.222 1.295v-28.1zm-2.136 4.657v24.675L149 212v-1.445c.46-1.146.886-2.141 1.282-3.105a47.86 47.86 0 014.645-7.493 6.726 6.726 0 014.058-2.516 22.38 22.38 0 012.243-.428 8.53 8.53 0 002.083-.696 7.34 7.34 0 003.043-2.516c.14-.32.727-1.466 1.763-3.425a84.368 84.368 0 003.524-8.939c1.281-3.747 2.424-6.766 3.417-9.1zm66.374-13.703l-5.34 3.105a5.229 5.229 0 01-1.207-.643c-.267-.203-.865-.738-1.815-1.605V109.82c2.307-6.494 4.247-11.418 5.82-14.773 3.34-6.958 6.419-10.437 9.238-10.437.107 0 1.976 1.142 5.607 3.425 3.766 2.32 5.849 3.48 6.248 3.48 1.783 0 3.801-1.306 6.034-3.908.288-.31.619-.696.982-1.156.264.44.58.846.94 1.21a5.53 5.53 0 002.563 1.498v33.486a104.44 104.44 0 01-1.709 2.376c-1.281 1.606-2.275 2.409-2.99 2.409a25.948 25.948 0 01-3.578-1.07 16.66 16.66 0 00-4.432-1.071c-1.815 0-3.684 1.91-5.607 5.727-1.899 4.104-3.54 8.323-4.912 12.632-2.136 6.352-3.685 10.563-4.646 12.632-.47.92-.865 1.692-1.25 2.355h.054zm-34.015 17.9v-22.878c.351-.447.726-.876 1.122-1.284a5.037 5.037 0 013.47-1.767c.478.032.946.14 1.39.322.355.316.806.505 1.28.535 2.03 0 4.486-3.497 7.37-10.491 1.423-3.319 4.147-10.973 8.17-22.962l.694-2.056v41.75c-.46-.353-.94-.675-1.442-.964a9.518 9.518 0 00-4.272-.963 11.566 11.566 0 00-8.544 4.014 34.264 34.264 0 00-5.713 8.779c-.99 1.94-2.182 4.596-3.578 7.964h.053z" fill="#202592" fill-rule="nonzero"/><path d="M298.47 115.23v17.408a1.069 1.069 0 102.136 0v-18.392c2.99-1.316 5.105-1.968 6.354-1.979a8.472 8.472 0 014.86 1.284c.214.142.427.292.64.449v6.983a1.069 1.069 0 102.137 0v-4.438l.053.075c.242.427.937 1.764 2.083 4.01.074.185.163.364.267.534v5.882L207.206 191.72a1.07 1.07 0 00.32-.749v-14.628c1.425-3.365 2.6-6.028 3.525-7.988a34.223 34.223 0 015.714-8.769 11.572 11.572 0 018.544-4.01 9.528 9.528 0 014.273.962c.501.289.983.61 1.441.963v7.806a1.069 1.069 0 102.136 0v-5.988c.951.866 1.55 1.4 1.816 1.604.373.265.778.481 1.207.641.515.212 1.067.321 1.623.321 1.186 0 2.425-1.144 3.739-3.422.384-.663.78-1.433 1.174-2.299.933-2.067 2.482-6.273 4.646-12.618a108.235 108.235 0 014.913-12.619c1.923-3.814 3.792-5.72 5.607-5.72 1.52.151 3.011.511 4.433 1.069 1.165.442 2.361.799 3.578 1.07.715 0 1.709-.803 2.99-2.407.278-.363.855-1.165 1.709-2.374V151.3a1.069 1.069 0 102.136 0v-31.867a40.255 40.255 0 013.898-5.026c1.524-1.604 2.86-2.406 4.006-2.406 1.009.036 1.988.35 2.83.909.886.63 1.74 1.315 2.563 2.032a22.56 22.56 0 002.777 2.138c.97.58 2.075.894 3.204.91a8.441 8.441 0 002.563-.91c.78-.417 2.083-.994 3.899-1.85zm-91.851 76.79L171 213c.427-1.07.94-2.278 1.549-3.636.847-1.967 1.701-3.91 2.563-5.828v1.39a1.069 1.069 0 102.136 0v-6.041c.627-1.334 1.267-2.66 1.922-3.978.118-.225.225-.45.353-.674 6.287-12.732 10.69-19.102 13.211-19.11 1.57 0 3.77.995 6.622 2.995.673.502 1.624 1.176 2.83 2.032.3.2.577.37.834.513.319.216.685.351 1.068.396.363 0 .769-.278 1.228-.824v10.694c0 .59.478 1.069 1.068 1.069l.235.021z" fill="#383FDA" fill-rule="nonzero"/><path d="M241.068 296.018l5.577-3.202 22.764 56.867.906 2.188 187.606-107.747-7.09-17.686 6.855-3.928 5.246 13.075c3.384 8.29-1.272 16.668-13.968 25.136a77.451 77.451 0 01-5.598 3.522l-149.22 86.294a88.912 88.912 0 01-8.264 4.27c-6.148 2.668-11.124 3.664-14.927 2.988a10.04 10.04 0 01-4.404-1.996l-18.2-45.18-1.141.661-6.142-15.262zm1.557-13.257l-5.598 3.202-27.967-69.59c-.375-.939-.66-1.911-.853-2.903-1.514-8.496 5.292-17.117 20.418-25.862l149.274-86.24c7.066-4.085 12.93-6.469 17.593-7.152 6.646-.96 11.107 1.28 13.381 6.724l2.72 6.757.8 1.996 15.14 37.645a205.423 205.423 0 00-5.513 6.97l-21.197-52.94-4.531 2.614-183.127 105.133 29.46 73.646zm207.405-58.33l-27.402-68.47a210.62 210.62 0 015.491-7.022l28.789 71.511-6.878 3.981zM298.624 152.76c.562.574 1.33.9 2.132.907.807.01 1.58-.32 2.133-.907a2.97 2.97 0 00.075-4.195l-.075-.075a2.877 2.877 0 00-2.133-.907 3.016 3.016 0 00-2.132.907 3.087 3.087 0 000 4.27z" fill="#1E2153" fill-rule="nonzero"/><path d="M298.751 152.706a3.072 3.072 0 010-4.265 3.039 3.039 0 012.197-.907c.81-.01 1.587.32 2.142.907a2.955 2.955 0 01.075 4.19l-.075.075a2.899 2.899 0 01-2.142.907 3.039 3.039 0 01-2.197-.907zm-135.575-45.534a2.899 2.899 0 01-2.142.907 2.996 2.996 0 01-2.143-.907 3.072 3.072 0 010-4.265 2.996 2.996 0 012.143-.907c.81-.01 1.587.32 2.142.907a2.955 2.955 0 01.075 4.19l-.075.075zm108.418 100.88a2.899 2.899 0 01-2.143.906 3.039 3.039 0 01-2.196-.907 3.072 3.072 0 010-4.265 3.039 3.039 0 012.196-.907c.81-.01 1.587.32 2.143.907a2.955 2.955 0 01.075 4.19l-.075.075zM147.428 343.8a3.084 3.084 0 01-.834 2.218c-.562.6-1.342.953-2.166.981h-.214a3.207 3.207 0 01-3.214-3.2 3.292 3.292 0 013.214-3.198c.852 0 1.67.337 2.273.937.602.6.94 1.413.94 2.262z" fill="#0F0" fill-rule="nonzero"/><path d="M419.517 157.414c-5.781 7.932-12.206 17.578-19.274 28.938l-19.839-49.175h-.053l-126.553 72.801.981 2.459-7.968 4.597 39.412 97.763 126.553-72.77-.982-2.437 8.021-4.618-18.879-46.856c7.061-11.403 13.479-21.085 19.253-29.045l26.825 67.135-27.732 15.96a1.069 1.069 0 00-.512.663c-.067.273-.025.56.117.802.144.25.383.432.662.503a1 1 0 00.8-.097l27.465-15.832L454 243.738 269.21 350l-22.772-56.958 18.292-10.498-4.053-10.049-18.207 10.477L213 209.208l183.083-105.3 1.707-.908 21.727 54.414z" fill="#E9ECF3"/><path d="M421.953 154.087a336.99 336.99 0 00-2.309 3.1l-21.776-54.53-1.71.91 4.543-2.567 21.252 53.087zm26.052 73.905l2.886-1.647L458 244.062 269.909 352l-.909-2.192 185.205-106.28-6.2-15.536zm-27.687-69.147c.78-1.07 1.55-2.139 2.298-3.1l27.473 68.59-2.886 1.657-26.885-67.147z" fill="#0E002D" fill-rule="nonzero"/><path d="M267.984 357.97l-.886-2.134a10.049 10.049 0 004.407 1.996 18.482 18.482 0 01-3.521.139zm-20.273-46.648l-4.407 2.541-6.135-15.265 4.396-2.54 6.146 15.264zm-43.746-95.132c-3.614-9.359 2.923-18.877 19.61-28.555l110.327-63.707 39.051-22.545c10.03-5.793 17.712-8.177 23.047-7.152-4.666.676-10.535 3.06-17.605 7.152l-149.196 86.252c-15.137 8.753-21.948 17.375-20.433 25.865.193.992.48 1.964.854 2.903l27.987 69.6-4.407 2.54-9.443-23.485-.853-2.007-18.78-46.648c0-.075-.053-.15-.085-.213h-.074z" fill="url(#q)" fill-rule="nonzero"/><path d="M400.455 185.943c-1.926 3.09-3.899 6.288-5.918 9.592a5.909 5.909 0 00-7.784.459 5.744 5.744 0 00-1.706 4.156 5.807 5.807 0 005.758 5.916h.086a5.748 5.748 0 004.158-1.705 5.882 5.882 0 00.555-7.643 901.51 901.51 0 015.523-9.016L420 234.417l-8.018 4.604L293.507 307 258 219.144l126.46-72.552L380.57 137h.053l19.833 48.943zm-107.108 31.154l23.085 57.182 75.44-43.273-23.139-57.128-75.386 43.22z" fill="#E9ECF3" fill-rule="nonzero"/><path d="M257.963 219h-.053l-2.925-7.174-.985-2.445L381.09 137l3.91 9.566L257.963 219zm7.016-6.877a2.939 2.939 0 00.075-4.177l-.075-.074a2.903 2.903 0 00-2.142-.904 3.043 3.043 0 00-2.196.904 3.055 3.055 0 000 4.251c.578.585 1.37.912 2.196.904.81.01 1.587-.318 2.142-.904zm6.748-4.464a2.939 2.939 0 00.075-4.177l-.075-.074a2.903 2.903 0 00-2.142-.904 3.043 3.043 0 00-2.196.904 3.055 3.055 0 000 4.251c.578.585 1.37.912 2.196.904.81.01 1.587-.318 2.142-.904z" fill="#202592" fill-rule="nonzero"/><path d="M371.643 210.435l-1.875-4.662-53.572 30.756 1.875 4.661 53.572-30.755zm-4.125-8.84l-1.875-4.662-53.572 30.755 1.875 4.662 53.572-30.756zm11.946 26.415l-1.875-4.662-53.571 30.755 1.875 4.662 53.571-30.755zm-3.696-8.734l-1.875-4.662-53.572 30.756 1.875 4.661 53.572-30.755zM293 217.508L368.75 174 392 231.439 316.196 275 293 217.508z" fill="#F8F5FF" fill-rule="nonzero"/><path d="M367.915 201.634l-53.058 30.577-1.857-4.635L366.058 197l1.857 4.634zm4.085 8.79L318.942 241l-1.857-4.634 53.058-30.577 1.857 4.635z" fill="#383FDA" fill-rule="nonzero"/><path fill="#383FDA" d="M379 227.607L325.86 258l-1.86-4.607L377.14 223z"/><path fill="#91C46C" d="M376 219.607L322.86 250l-1.86-4.607L374.14 215z"/><path fill="#383FDA" d="M254.98 212l2.902 7.19.053-.02 35.526 87.8 118.558-67.933.981 2.418L286.42 314 247 216.58z"/><path d="M377.414 339.857c-15.547 4.908-31.815 12.738-48.803 23.488a286.344 286.344 0 00-9.953 6.581l-6.1-3.477a2.622 2.622 0 01-1.338-3.446c.054-.096.096-.203.16-.3 1.342-2.789 6.247-6.623 14.716-11.503l117.94-67.576c13.242-7.626 21.982-10.195 26.22-7.705l25.311 14.5a263.98 263.98 0 01-9.632 7.758 204.852 204.852 0 01-4.495 3.37l-8.348 4.816c-.137.07-.263.16-.374.268a.62.62 0 01.374.16l.482.29-2.055 1.369-.085-.054a1.766 1.766 0 00-2.034 0l-5.833 3.425c-.182.075-.289.16-.32.267.116.055.225.127.32.214l.942.535-2.033 1.199-.46-.236a1.852 1.852 0 00-2.087 0l-5.673 3.318v-.107a1.252 1.252 0 01-.428.32c.107 0 .246.086.428.268l.889.535-2.333 1.199-.161-.075v-.16a1.97 1.97 0 00-2.087.16l-5.672 3.317v-.107a1.252 1.252 0 01-.428.321c.107 0 .246.086.428.268h.053c-.941.428-1.894.834-2.836 1.24-.296.054-.577.17-.824.343a152.876 152.876 0 01-10.574 3.938l4.388-2.6c.152-.12.313-.227.482-.321a.867.867 0 00-.482-.268l-5.725-3.317h.16a2.28 2.28 0 00-2.247 0v.16l-5.78 3.21a1.873 1.873 0 00-.374.215c.113.04.22.094.32.16l5.834 3.318c.183.115.38.205.588.267-1.017.31-2.033.6-3.05.878l-4.816-2.857a2.14 2.14 0 00-2.087 0l-5.672 3.37c-.29.075-.45.16-.482.268.117.055.226.127.321.214l2.44 1.391c-1.155.214-2.29.407-3.424.589l-.46-.268v-.16a1.809 1.809 0 00-2.087.16l-1.445.803c-.824.096-1.648.192-2.462.267a110.01 110.01 0 00-4.067.46l25.097-14.296c0-.14-.16-.268-.481-.375l-5.62-3.21a1.884 1.884 0 00-2.033 0l-40.133 23.221zm94.394 2.622c-1.427 4.045-2.497 6.88-3.21 8.507-.557 1.348-1.07 2.557-1.606 3.617l-21.865 12.52-.075-.086a12.842 12.842 0 00-1.605-1.712 3.853 3.853 0 00-2.247-.749c-4.895 0-9.158 3.96-12.79 11.878a4.157 4.157 0 00-.139.321l-28.896 16.586c-13.27 7.598-22.029 10.184-26.274 7.759l-52.441-30.016a280.744 280.744 0 019.022-5.94 227.82 227.82 0 0136.141-18.854l-3.285 1.947a2.44 2.44 0 00-.482.214c.116.078.224.167.321.268l5.833 3.37c.728.33 1.573.27 2.247-.16l5.994-3.531-6.047-3.532a2.14 2.14 0 00-.407-.214 185.092 185.092 0 015.597-1.98l4.335 2.515a2.869 2.869 0 002.3 0h-.16l13.24-7.63c2.34-.406 4.669-.763 6.988-1.07a.867.867 0 01.289.268l5.972 3.296a1.691 1.691 0 001.98 0l5.779-3.264h.16c.14-.182.246-.267.321-.267a.696.696 0 00-.481-.214l-2.28-1.306c1.124-.203 2.237-.417 3.35-.653l.535.3a2.451 2.451 0 002.248.107h-.161l2.676-1.626c2.44-.621 4.883-1.31 7.33-2.066l-4.066 2.3v-.106a.663.663 0 00-.321.321c.084.127.193.236.32.321l5.834 3.37a2.14 2.14 0 002.086 0l5.887-3.37c.214-.136.32-.243.32-.321 0-.079-.106-.186-.32-.321v.107l-5.887-3.317a1.252 1.252 0 00-.288-.16c.866-.3 1.744-.61 2.622-.943l4.998 2.868a1.98 1.98 0 002.087 0l6.153-3.531c0-.078-.107-.185-.32-.321v.053l-4.357-2.44 2.483-1.07 3.318 1.948a2.14 2.14 0 002.087.107l5.833-3.264.32-.267c0-.14-.16-.268-.48-.375l-3.318-1.947 2.3-1.21 2.623 1.552c.707.354 1.54.354 2.247 0l5.726-3.37h.053c.182-.182.321-.268.428-.268a3.875 3.875 0 01-.481-.214l-3.264-1.84 2.012-1.21 2.59 1.498c.735.396 1.62.396 2.354 0l5.672-3.264c.142-.107.307-.18.482-.214a1.584 1.584 0 00-.375-.267h-.107l-3.692-2.14 2.033-1.37 3.211 1.873a2.29 2.29 0 002.14 0l4.089-2.376a47.855 47.855 0 00-1.734 3.285l-.053.107-3.158 1.766c-.1.066-.208.12-.32.16.167.054.329.126.481.214l1.637.964c-.278.663-.567 1.38-.866 2.14l-2.376-1.37a1.809 1.809 0 00-2.087-.16v.16l-5.887 3.21-.32.268c.074 0 .181.075.32.214l5.726 3.317a2.73 2.73 0 002.408.16h-.16l.214-.138a.203.203 0 01-.054.139c-.278.78-.556 1.594-.856 2.429l-2.943 1.69c-.137.07-.264.161-.375.268a.589.589 0 01.375.214l1.82 1.07-.696 2.065-2.569-1.498a2.002 2.002 0 00-2.247 0l-5.673 3.371a1.37 1.37 0 00-.428.268c.16.03.308.105.428.214l5.78 3.263c.673.43 1.519.49 2.247.16h-.107l.75-.449-.91 2.526-4.495 2.568v-.16a3.5 3.5 0 00-.322.374c.147.126.309.234.482.321l2.248 1.284c.152.076.314.13.481.16zm-12.736 3.745a.77.77 0 00-.32.268c.116.054.225.127.32.214l2.248 1.39c.704.25 1.48.191 2.14-.16l5.726-3.264h.054l.428-.267-.428-.16-2.248-1.392a2.515 2.515 0 00-2.247 0l-5.673 3.371zm-3.21-8.882c.107 0 .235.097.374.268l5.78 3.424c.64.32 1.393.32 2.033 0l5.833-3.21c.214-.182.32-.321.32-.428 0-.107-.106-.14-.32-.321v.107l-5.833-3.264a1.927 1.927 0 00-2.14.053l-5.726 3.371h-.321zm9.792-7.65l.321-.268c0-.136-.16-.243-.481-.321l-5.726-3.371h.16a2.633 2.633 0 00-2.3 0l-5.726 3.37a.867.867 0 00-.321.268c.127.085.236.194.32.321l5.727 3.37a2.29 2.29 0 002.14 0l5.886-3.37zm3.586-9.204a1.862 1.862 0 00-2.248 0l-5.672 3.264a1.68 1.68 0 00-.321.214c.116.078.224.167.32.268l5.673 3.263a2.14 2.14 0 002.248 0l5.779-3.263h.107c.139-.182.246-.268.32-.268l-.427-.214-5.78-3.264zm-3.586-23.702h-.16l-1.766-1.23-7.385 4.28 1.285.695a2.076 2.076 0 002.14 0l5.726-3.264c.137-.125.302-.217.481-.267a.557.557 0 00-.32-.214zm27.537 6.26l.931-.535.482-.321a.867.867 0 00-.482-.214l-5.533-3.136c2.854-2.197 5.84-4.63 8.958-7.298L511 299.28a63.05 63.05 0 01-4.035 5.35 11.483 11.483 0 01-3.564 2.965l-.128-.075h-.16l-5.726-3.424h.16a2.28 2.28 0 00-2.247 0l-.236.16-1.873-1.21zm-62.854 64.098l.32-.214c0-.107-.106-.192-.32-.267l-2.248-1.284a2.034 2.034 0 00-2.14-.16v.16l-5.78 3.263v-.053a1.798 1.798 0 00-.428.32c.16.032.308.106.429.215l2.3 1.284c.64.32 1.394.32 2.034 0l5.833-3.264zm7.652-7.437a2.365 2.365 0 00-2.408 0l-5.726 3.317a1.68 1.68 0 01-.32.214c.074 0 .181.086.32.268l2.248 1.338c.654.331 1.439.27 2.033-.161l5.833-3.21c.32-.136.481-.243.481-.321l-.374-.16v-.054l-2.248-1.445.16.214zm-5.244-.642c0-.075-.129-.182-.375-.321v.054l-5.78-3.264a2.14 2.14 0 00-2.3.107l-5.78 3.317c-.101.05-.209.086-.32.107.117.055.225.127.32.214l5.833 3.37c.69.393 1.525.433 2.248.108l5.672-3.317c.321-.107.482-.268.482-.375zm11.237.214h-.053l5.779-3.264c.246-.139.374-.267.374-.374 0-.107-.128-.182-.374-.321v.053l-2.248-1.284h.161a2.75 2.75 0 00-2.355 0v.107l-5.779 3.317a.867.867 0 00-.32.268c.074 0 .181.075.32.214l2.248 1.338a2.74 2.74 0 002.247 0v-.054zm-2.247-5.992v.107l-5.78-3.318h.107a2.14 2.14 0 00-2.247 0v.107l-5.886 3.371a.557.557 0 00-.321.214.61.61 0 01.32.16l5.887 3.371a2.29 2.29 0 002.14 0l5.78-3.317c.289-.107.428-.214.428-.32 0-.108-.14-.193-.428-.375zm7.224-1.178c.16.032.307.106.428.215l2.194 1.284c.696.32 1.498.32 2.194 0l6.154-3.692-.375-.054-2.247-1.39a2.14 2.14 0 00-2.194-.054v.053l-5.726 3.371v-.16l-.428.427zm-48.054 31.461l-2.247-1.284a1.83 1.83 0 00-2.14-.107v.107l-5.78 3.37v-.16c-.15.116-.293.241-.428.375.107 0 .246.085.428.267l2.301 1.284a2.14 2.14 0 002.034 0l5.832-3.37.321-.268a1.327 1.327 0 00-.32-.214zm5.245-6.955v.16l-5.726 3.264a1.68 1.68 0 01-.321.214c.075 0 .182.085.32.267l2.248 1.284c.64.321 1.394.321 2.034 0l5.832-3.317.322-.214c0-.107-.107-.182-.322-.214l-2.247-1.284a1.895 1.895 0 00-2.14-.16zm-25.686 14.98c.107 0 .235.086.375.268l2.247 1.284a2.408 2.408 0 002.194 0l5.672-3.37c.321-.186.482-.293.482-.321h-.375l-2.247-1.392h.053a2.633 2.633 0 00-2.3 0l-5.726 3.371v-.16l-.375.32zm.482-11.021v-.107a.663.663 0 00-.321.32c.116.078.223.168.32.268l5.833 3.264a2.398 2.398 0 002.248.16h-.16l5.886-3.37c.214-.136.32-.243.32-.321 0-.079-.106-.186-.32-.321v.107l-5.887-3.264a1.787 1.787 0 00-2.14-.16v.16l-5.78 3.264zm-1.445 2.14h.16a2.14 2.14 0 00-2.247 0l-5.833 3.317v-.107l-.321.321c.116.078.224.168.321.268l5.833 3.21a1.862 1.862 0 002.14 0l5.78-3.21h.053l.321-.268a2.386 2.386 0 00-.321-.32v.106l-5.886-3.317zm-4.12-20.171v.16l-5.833 3.318a.557.557 0 00-.321.214c.074 0 .182.085.32.267l5.833 3.21c.63.43 1.458.43 2.087 0l5.887-3.263.32-.268c0-.139-.16-.267-.48-.374l-5.78-3.318a2.14 2.14 0 00-2.034.054zm3.478-4.655v.16l-5.833-3.317v-.107a1.916 1.916 0 00-2.194.107l-5.672 3.317c-.18.05-.345.142-.482.268a.589.589 0 01.375.214l5.779 3.317a2.034 2.034 0 002.194 0l5.672-3.317h.16l.322-.214c0-.16-.107-.3-.321-.482v.054zm19.424 13.911a1.97 1.97 0 00-2.087.16l-5.886 3.318a.61.61 0 01-.321.16c.169.095.33.202.482.321l5.779 3.318c.62.397 1.414.397 2.033 0l5.833-3.318c.214-.185.321-.292.321-.32 0-.108-.107-.247-.32-.429v.16l-5.834-3.37zm1.178-1.766c.107 0 .246.086.428.268l5.779 3.37a1.98 1.98 0 001.98 0l5.833-3.37.32-.268a2.386 2.386 0 00-.32-.32v.106l-5.833-3.263v-.16a1.809 1.809 0 00-2.087.16l-5.672 3.263a2.933 2.933 0 01-.428.161v.053zm-8.67 2.73a2.194 2.194 0 00-.48-.215l-5.673-3.317h.16a2.75 2.75 0 00-2.354 0l-5.78 3.317v-.107a1.145 1.145 0 01-.32.321c.075 0 .182.086.32.268l5.726 3.37c.708.354 1.54.354 2.248 0l5.833-3.37.32-.268zm3.211-8.936a1.948 1.948 0 00-2.14 0l-5.78 3.424c-.134.062-.28.098-.427.107.148.14.31.266.481.375l5.726 3.264c.65.427 1.49.427 2.14 0l5.887-3.264.32-.214c0-.107-.106-.193-.32-.268l-5.887-3.424zm-7.117-6.635v-.107a2.034 2.034 0 00-2.087.107l-5.886 3.371v-.16a3.5 3.5 0 00-.32.374c.074 0 .181.086.32.268l5.886 3.21c.63.43 1.458.43 2.087 0l5.833-3.21c.214-.136.321-.243.321-.321 0-.107-.107-.236-.32-.375v.16l-5.834-3.317zm1.178-4.066h.16c.107-.182.214-.267.321-.267a.867.867 0 00-.481-.214l-5.673-3.371a2.14 2.14 0 00-2.194 0l-5.672 3.37a.867.867 0 00-.481.215c.107 0 .235.085.374.267l5.78 3.264a2.408 2.408 0 002.193 0l5.673-3.264zm15.357 5.137a1.97 1.97 0 00-2.194.053l-5.672 3.37c-.182.076-.289.161-.32.268.116.055.225.127.32.214l5.672 3.318a2.408 2.408 0 002.194 0l5.833-3.318.321-.214c0-.182-.16-.32-.481-.428l-5.673-3.264zm1.499-2.14a3.5 3.5 0 00-.321.374c.075 0 .182.075.32.214l5.726 3.317a2.387 2.387 0 002.14.054l5.78-3.264c.173-.087.335-.195.482-.321a.696.696 0 00-.482-.214l-5.726-3.37a1.787 1.787 0 00-2.194 0l-5.725 3.37v-.16zm-2.783-.482c.214-.186.321-.293.321-.321 0-.107-.107-.246-.32-.428v.16l-5.887-3.37a1.98 1.98 0 00-1.98 0l-5.886 3.37c-.214.075-.343.182-.375.321-.032.14.14.086.321.268l5.833 3.317a1.98 1.98 0 002.087 0l5.886-3.317zm3.532-9.256v-.161a2.14 2.14 0 00-2.034 0v.16l-5.779 3.318a.214.214 0 00-.289.085.203.203 0 00.086.29c.064.032.14.032.203 0l5.833 3.477a2.89 2.89 0 002.033 0l5.833-3.37.321-.268a2.386 2.386 0 00-.32-.321v.107l-5.887-3.317zm-13.913-2.622a2.29 2.29 0 00-2.14 0l-5.673 3.37v-.16a3.5 3.5 0 00-.32.375c.074 0 .181.085.32.267l5.726 3.264a2.301 2.301 0 002.14.107l5.726-3.317c.321-.136.482-.243.482-.321 0-.107-.14-.236-.428-.375v.16l-5.833-3.37zm1.552-2.087v-.16a1.252 1.252 0 00-.321.428l.32.32 5.673 3.264a2.034 2.034 0 002.194 0l5.78-3.263c.245-.182.374-.29.374-.321a1.07 1.07 0 00-.375-.428v.16l-5.78-3.37a2.14 2.14 0 00-2.032 0v.16l-5.833 3.21zm53.19 1.124c.134.135.259.278.375.428l5.672 3.264c.63.429 1.458.429 2.087 0l5.726-3.21c.32-.183.481-.322.481-.429 0-.107-.107-.139-.32-.32v.106l-5.887-3.317a2.14 2.14 0 00-2.087 0l-5.672 3.317a1.274 1.274 0 01-.375.16zm-1.23 1.926v-.054a1.798 1.798 0 00-2.088.054l-5.832 3.37v-.16a1.145 1.145 0 00-.321.321c.167.054.329.126.481.214l5.672 3.371a1.98 1.98 0 002.087 0l5.78-3.37h.107l.32-.215c0-.078-.106-.185-.32-.32v.16l-5.887-3.371zm-12.201-4.655a1.68 1.68 0 01-.321.053 2.3 2.3 0 00.481.429l5.726 3.263a1.862 1.862 0 002.14 0l5.673-3.263c.15-.106.312-.196.481-.268 0-.107-.139-.182-.32-.214h-.161l-5.672-3.478a2.034 2.034 0 00-2.14.107l-5.887 3.371zm17.338-8.828a2.29 2.29 0 00-2.14 0l-5.727 3.37a1.295 1.295 0 00-.32.215c.074 0 .181.085.32.267l5.726 3.21c.638.419 1.447.48 2.14.16l6.154-3.584c0-.135-.16-.242-.481-.321l-5.672-3.317zm-26.756 14.285a.321.321 0 00-.321.214c.117.055.225.128.32.214l5.673 3.318a2.14 2.14 0 002.247 0l5.726-3.318h.16c.14-.139.247-.214.322-.214a.696.696 0 00-.482-.214l-5.726-3.317a1.97 1.97 0 00-2.086-.16v.16l-5.833 3.317zm-10.703-4.654v.16l-5.832 3.21a3.863 3.863 0 00-.321.268c.075 0 .182.075.32.214l5.833 3.37a2.408 2.408 0 002.14 0l5.673-3.37c.142-.108.307-.18.482-.214l-.375-.268h-.107l-5.78-3.424a1.884 1.884 0 00-1.979 0l-.054.054zm3.532-2.087l-.32.32c.074 0 .181.076.32.215l5.726 3.317a2.14 2.14 0 002.247 0l6.154-3.37c0-.182-.128-.322-.374-.429l-5.887-3.263a1.691 1.691 0 00-1.98 0l-5.886 3.263v-.053zm33.177-29.535v-.107l-.32.321c.115.078.223.168.32.268l5.833 3.21c.579.418 1.342.48 1.98.16l5.78-3.37c.288-.107.427-.214.427-.321 0-.107-.139-.14-.428-.321v.107l-5.779-3.317a1.691 1.691 0 00-1.98 0l-5.833 3.37zm-9.418 5.404a3.863 3.863 0 00-.32.268c.074 0 .181.075.32.214l5.78 3.317a2.076 2.076 0 002.14 0l6.154-3.585c0-.07-.107-.178-.321-.32v.053l-5.833-3.264a1.691 1.691 0 00-1.98 0l-5.94 3.317zm-9.364 5.458a.77.77 0 00-.321.267c.117.055.225.127.32.214l5.673 3.371a2.408 2.408 0 002.194 0l5.672-3.37c.321-.136.482-.243.482-.322l-.321-.16-5.833-3.424a2.14 2.14 0 00-2.194 0l-5.672 3.424zm6.582-6.742c0-.107-.14-.235-.428-.374v.16l-5.673-3.21v-.16a1.97 1.97 0 00-2.14.16l-7.866 4.494a1.37 1.37 0 00-.482.375c.107 0 .236.086.375.267l5.726 3.21a2.14 2.14 0 002.086 0l8.402-4.922zm3.424-9.042v-.053a1.798 1.798 0 00-1.98 0v.053l-5.886 3.37a.674.674 0 01-.32.108c.074 0 .181.075.32.214l5.726 3.37a2.28 2.28 0 002.248 0l5.672-3.37h.16c.096-.087.204-.16.321-.214a1.263 1.263 0 01-.32-.107h-.161l-5.78-3.371zm6.903-5.992v.107l-5.672 3.37c-.289 0-.45.129-.481.268-.032.139.139.085.32.267l1.98 1.124c.708.353 1.54.353 2.248 0l6.1-3.424c0-.182-.16-.321-.481-.428l-1.98-1.177v-.107a2.14 2.14 0 00-1.98 0h-.054zm-88.722 80.791a2.034 2.034 0 002.194 0l12.415-7.223h.107a.589.589 0 01.375-.214 3.478 3.478 0 00-.482-.267l-5.672-3.21v-.054a1.766 1.766 0 00-2.034 0v.053l-12.521 7.17v-.16c-.119.114-.226.24-.321.374.075 0 .182.086.32.267l5.62 3.264zm3.05 1.766c.175.033.34.106.482.214l5.726 3.37a2.076 2.076 0 002.14 0l10.168-5.885h.107a.899.899 0 01.428-.214 3.478 3.478 0 00-.482-.267l-5.726-3.264a1.787 1.787 0 00-2.194 0l-10.113 5.725v-.054l-.535.375zm-14.127-16.319l-5.779-3.317a2.055 2.055 0 00-2.14-.16v.16l-5.672 3.317a3.874 3.874 0 01-.482.214c.107 0 .235.086.375.268l5.779 3.317c.721.29 1.526.29 2.247 0h-.107l5.726-3.424a.899.899 0 01.428-.214 1.006 1.006 0 01-.375-.214v.053zm9.793-5.243a1.68 1.68 0 00-.374-.214h-.108l-5.672-3.264a1.98 1.98 0 00-2.194-.16v.16l-5.672 3.264a3.874 3.874 0 01-.482.214c.108 0 .215.085.322.267l5.832 3.264a2.74 2.74 0 002.248 0l6.1-3.531zm5.94.749a1.98 1.98 0 00-2.14 0l-17.231 10.005v-.16l-.428.428c.159.03.307.105.428.214l5.672 3.317c.61.43 1.424.43 2.033 0l17.98-10.273c0-.075-.139-.182-.428-.321v.053l-5.886-3.263zm-2.73-9.631a1.862 1.862 0 00-2.14 0l-5.886 3.37a.674.674 0 01-.321.108c.075 0 .182.075.321.214l5.886 3.21c.65.427 1.491.427 2.14 0l6.208-3.478c0-.075-.139-.16-.428-.267l-5.78-3.157zm57.205 20.546h.053a2.344 2.344 0 00-2.194.107l-5.672 3.317a2.29 2.29 0 01-.428.214c.107 0 .246.085.428.267l2.247 1.284c.697.321 1.498.321 2.194 0h-.053l5.672-3.317c.321-.139.482-.267.482-.374 0-.107-.129-.182-.375-.321l-2.354-1.177zm-1.231-9.899a1.852 1.852 0 00-2.14 0l-5.673 3.264v-.053c-.115.118-.24.225-.374.32a.589.589 0 01.374.215l5.78 3.424a2.14 2.14 0 001.98 0l6.207-3.638c0-.072-.107-.179-.321-.321v.053l-5.833-3.264zm10.916-9.791h.16c.096-.087.205-.16.322-.214 0-.071-.16-.125-.482-.16l-5.672-3.371h.268a2.59 2.59 0 00-2.408 0l-5.726 3.37v-.16l-.321.32c.075 0 .182.076.32.215l5.727 3.478c.77.321 1.637.321 2.408 0h-.161l5.565-3.478zm49.177-57.892v.107l-17.819 10.326a.557.557 0 00-.321.215c.075 0 .182.085.321.267l5.726 3.21a2.74 2.74 0 002.247 0h-.107l17.82-10.166c.214-.135.32-.242.32-.32 0-.108-.106-.236-.32-.375v.16l-5.726-3.424v-.107a1.755 1.755 0 00-2.087 0l-.054.107zm-17.337.107a1.83 1.83 0 00-2.14-.107v.107l-5.727 3.37a.6.6 0 00-.428.215c.075 0 .193.086.375.267l2.461 1.285 7.224-4.174-1.765-.963zm1.284-2.568a2.44 2.44 0 00-.482.214c.107 0 .246.086.428.267l1.98 1.124a2.14 2.14 0 002.248 0l6.1-3.531a1.68 1.68 0 00-.375-.214h-.107l-1.98-1.177v-.054a1.862 1.862 0 00-2.14 0l-5.672 3.37z" fill="#1E2153" fill-rule="nonzero"/><path d="M587.92 368.534L463.24 440.812c.073-.287.108-.583.106-.88a2.805 2.805 0 00-.908-2.145 3.02 3.02 0 00-1.87-.912L599.6 356.303c8.657-5.006 13.893-9.44 15.71-13.303 2.7 4.935-2.536 11.193-15.71 18.775l-11.68 6.759zm-312.234 1.448a9.878 9.878 0 004.114 3.755l18.36 10.622a333.748 333.748 0 00-4.007 3.164l-13.359-7.746-.994-.568c-4.41-2.575-5.781-5.65-4.114-9.227zm24.526 15.557l110.822 64.21c9.155 5.286 22.175 3.033 39.06-6.759l7.48-4.345a2.992 2.992 0 00-.267 1.287c-.02.803.288 1.58.855 2.146.408.418.928.709 1.496.837l-9.564 5.547c-16.885 9.791-29.905 12.044-39.06 6.759l-114.83-66.517a136.33 136.33 0 014.008-3.165z" fill="url(#r)" fill-rule="nonzero"/><path d="M430.559 397.22l-19.25 11.093L405 412v-1.282c.396-.994.77-1.892 1.123-2.672a41.204 41.204 0 014.01-6.52 6.064 6.064 0 013.53-2.137c.459-.107 1.122-.235 1.978-.374a7.233 7.233 0 001.818-.588 6.415 6.415 0 002.62-2.19c.139-.289.663-1.283 1.55-2.993a71.895 71.895 0 003.048-7.748c1.426-4.09 2.627-7.224 3.604-9.404a.833.833 0 01.139-.321c3.636-7.908 7.896-11.863 12.78-11.863.808.008 1.594.27 2.245.748.586.52 1.123 1.093 1.604 1.71l.075.086c.468.562.98 1.088 1.53 1.57a3.36 3.36 0 002.138.802 4.064 4.064 0 002.78-1.656 23.951 23.951 0 002.62-3.42 23.898 23.898 0 012.674-3.527 4.439 4.439 0 012.994-1.656c.41.03.809.14 1.177.32.31.238.68.386 1.07.428 1.425 0 3.03-1.824 4.812-5.472a55.733 55.733 0 001.604-3.612c.713-1.624 1.782-4.456 3.208-8.496.492-1.379 1.07-2.886 1.604-4.542l.909-2.64c.46-1.336.941-2.757 1.444-4.275.117-.363.246-.716.374-1.068l.695-2.063c.385-1.111.76-2.18 1.123-3.206.3-.834.577-1.646.855-2.426.001-.051.02-.1.054-.139.78-2.137 1.486-4.04 2.139-5.707.3-.716.588-1.421.866-2.137a78.471 78.471 0 011.358-3.1l.054-.106a47.784 47.784 0 011.732-3.281c2.267-3.869 4.374-5.803 6.342-5.803 0 0 .641.352 1.796 1.068l1.872 1.176 1.197.748c3.283 1.966 5.101 3.035 5.422 3.035a3.959 3.959 0 001.68-.406 11.473 11.473 0 003.56-2.96 62.971 62.971 0 004.032-5.344l1.422-1.977a63.55 63.55 0 015.615-7.374c2.139-2.137 4.117-3.206 5.935-3.206 2.139 0 4.046 1.425 5.721 4.275a43.725 43.725 0 013.743 9.298 160.2 160.2 0 001.39 5.022c.535 1.892.995 3.345 1.39 4.382 1.07 2.81 2.065 4.221 3.102 4.221a4.173 4.173 0 002.032-.64l1.978-1.497c1.854-1.39 3.369-2.084 4.545-2.084 2.282 0 5.008 3.188 8.181 9.565.042.079.078.161.107.246-1.561.135-4.164 1.068-7.807 2.8-1.957.93-3.347 1.55-4.17 1.87-.801.44-1.668.746-2.567.908a6.42 6.42 0 01-3.208-.908 21.184 21.184 0 01-2.78-2.084 33.43 33.43 0 00-2.567-2.03 5.489 5.489 0 00-2.834-.909c-1.148 0-2.485.802-4.01 2.405a42.859 42.859 0 00-4.064 5.236c-2.032 2.921-3.28 4.685-3.743 5.29-1.283 1.603-2.278 2.405-2.994 2.405a25.84 25.84 0 01-3.583-1.015 16.724 16.724 0 00-4.438-1.069c-1.818 0-3.69 1.906-5.614 5.718a108.046 108.046 0 00-4.92 12.61c-1.839 5.372-3.236 9.212-4.192 11.52l-8.993 5.173a81.962 81.962 0 01-1.68-1.517 16.82 16.82 0 00-2.94-2.191 9.63 9.63 0 00-4.278-.962 11.574 11.574 0 00-8.555 4.008 34.196 34.196 0 00-5.721 8.763c-.877 1.774-1.929 4.136-3.155 7.086l-6.823 3.922-1.679-1.23c-2.855-1.998-5.058-2.992-6.63-2.992-2.289 0-6.12 5.209-11.496 15.625z" fill="url(#s)"/><path d="M456.834 382.423c1.224-2.95 2.274-5.31 3.15-7.084a34.193 34.193 0 015.711-8.761 11.548 11.548 0 018.488-4.007 9.603 9.603 0 014.324.962c1.055.62 2.04 1.355 2.936 2.19.704.652 1.26 1.154 1.676 1.517.416.364.63.556.78.673.82.607 1.809.943 2.829.962 1.526 0 3.203-1.902 4.91-5.716l.46-1.069c.954-2.307 2.349-6.147 4.185-11.517a108.111 108.111 0 014.911-12.608c1.922-3.818 3.79-5.723 5.605-5.716 1.52.151 3.01.51 4.431 1.068 1.166.424 2.362.763 3.577 1.015.715 0 1.708-.801 2.989-2.404.46-.609 1.698-2.372 3.737-5.289a42.84 42.84 0 014.057-5.235c1.53-1.603 2.865-2.404 4.003-2.404a5.474 5.474 0 012.83.908c.886.63 1.74 1.314 2.562 2.03.867.77 1.795 1.466 2.776 2.084.969.58 2.074.893 3.203.908a8.44 8.44 0 002.562-.908c.822-.32 2.21-.94 4.164-1.87 3.64-1.72 6.235-2.66 7.794-2.8h.427a8.472 8.472 0 014.858 1.283 9.09 9.09 0 012.829 3.045c.245.427.96 1.763 2.135 4.006.074.186.163.364.267.535v5.876l-10.676 6.304-16.58 9.776a19.478 19.478 0 01-1.517-2.137c-1.74-2.884-3.62-4.54-5.658-4.968a13.464 13.464 0 00-4.805-.267 16.11 16.11 0 00-10.89 7.586 62.32 62.32 0 00-6.032 12.234c-.715 1.966-1.42 3.92-2.135 5.876l-12.972 7.48c-1.335-1.347-2.861-1.433-4.559-.268a9.752 9.752 0 00-2.883 2.992c-.48.822-.95 1.645-1.42 2.478l-28.506 16.754-1.206-1.122a1.964 1.964 0 00-2.776-.16 17.09 17.09 0 00-5.071 5.449c-.352.587-.694 1.186-1.068 1.784l-22.207 13.067L420 420c.427-1.068.94-2.276 1.548-3.633l.48-1.154a302.694 302.694 0 016.14-13.27 99.145 99.145 0 012.135-4.145c5.374-10.414 9.2-15.62 11.477-15.62 1.57 0 3.769.993 6.62 2.99l1.675 1.23 1.154.8c.555.459 1.215.77 1.921.909.776 0 1.79-1.318 3.043-3.953l.64-1.731z" fill="url(#t)"/><path d="M538.63 350.489a6.347 6.347 0 003.777 2.497 3.222 3.222 0 002.889-1.063 27.016 27.016 0 003.69-5.154c1.232-2.593 4.201-3.886 6.956-3.028a36.198 36.198 0 0111.448 4.6l.61.394v1.063l-15.835 9.266-2.354 1.382c-1.637-2.306-3.21-3.454-4.547-3.422a7.527 7.527 0 00-4.28 1.222 8.678 8.678 0 00-2.89 3.772 126.422 126.422 0 00-2.588 6.78l-12.893 7.62a34.564 34.564 0 00-2.568-4.092 2.04 2.04 0 00-2.675-.744 3.203 3.203 0 00-1.338 1.17 37.922 37.922 0 00-4.654 9.616c-.085.255-.16.51-.246.776l-26.749 15.61a11.84 11.84 0 00-.77-.658 1.549 1.549 0 00-1.605-.266 6.052 6.052 0 00-3.263 2.444c-.632.946-1.252 1.902-1.851 2.87l-19.602 11.402L436 427l.16-.372c.568-1.35 1.145-2.71 1.734-4.07l1.316-3.05a151.632 151.632 0 017.896-15.546c.342-.596.685-1.19 1.07-1.775a17.05 17.05 0 015.082-5.42 1.977 1.977 0 012.782.16l1.21 1.116 3.765 3.506a4.7 4.7 0 002.408 1.116c1.041.135 2.058-1.672 3.05-5.42.994-3.825 2.589-5.918 4.76-6.27 2.219-.708 4.163.922 5.832 4.89.155-.044.3-.116.428-.213a9.372 9.372 0 003.424-4.357 103.584 103.584 0 014.836-9.915c.47-.829.941-1.647 1.423-2.465a9.732 9.732 0 012.889-2.976 3.223 3.223 0 014.568.266c.183.185.354.38.514.584a9.627 9.627 0 004.6 3.295c.354.136.752.096 1.07-.107a8.947 8.947 0 004.28-4.782c.846-2.178 1.691-4.357 2.515-6.535.717-1.945 1.423-3.89 2.14-5.845a61.792 61.792 0 016.045-12.167 16.145 16.145 0 0110.914-7.545c1.608-.2 3.238-.11 4.814.266 2.033.425 3.923 2.072 5.671 4.941.429.757.908 1.485 1.434 2.179z" fill="url(#u)"/><path d="M450.015 385.884l6.82-3.915-.695 1.675c-1.251 2.634-2.266 3.957-3.047 3.946a4.333 4.333 0 01-1.924-.906l-1.154-.8zm35.861-5.152a104.17 104.17 0 00-4.831 9.951 9.4 9.4 0 01-3.42 4.373c-.128.098-.273.17-.428.213-1.675-3.981-3.616-5.617-5.826-4.906-2.137.352-3.762 2.453-4.756 6.293-.994 3.84-2.01 5.578-3.047 5.44a4.686 4.686 0 01-2.405-1.12l-3.762-3.52 28.475-16.724zm6.264-19.08l-.46 1.066c-1.742 3.807-3.388 5.706-4.916 5.706a4.924 4.924 0 01-2.833-.96c-.15-.117-.406-.341-.78-.672l8.99-5.14zm2.608 13.865l12.913-7.573a823.729 823.729 0 01-2.512 6.56 8.966 8.966 0 01-4.276 4.799 1.189 1.189 0 01-1.069.107 9.62 9.62 0 01-4.596-3.307 7.134 7.134 0 00-.428-.565l-.032-.021zm-69.681 40.902l22.233-13.044a152.463 152.463 0 00-7.889 15.604l-1.282 3.082-1.625.939-11.437-6.58zm51.991-13.865a79.601 79.601 0 00-6.328 12.799 675.782 675.782 0 00-1.956 5.14l-11.298-6.495 19.582-11.444zm7.482-4.405l26.723-15.668a45.33 45.33 0 01-5.152 10.58 2.14 2.14 0 01-2.833.907 12.27 12.27 0 00-2.03-.586 2.333 2.333 0 00-2.299.906 32.342 32.342 0 00-4.115 7.146 7.068 7.068 0 01-3.688 3.786.921.921 0 01-.908 0 5.125 5.125 0 01-3.207-3.146 10.14 10.14 0 00-2.49-3.925zm51.158-30.013a119.742 119.742 0 00-2.01 6.1 10.997 10.997 0 01-4.436 6.293 1.852 1.852 0 01-1.069.374 4.553 4.553 0 01-4.275-2.987 22.073 22.073 0 00-1.069-2.133l12.859-7.647zm16.59-9.77l5.237 3.019a26.605 26.605 0 01-1.817 2.133c-1.358 1.354-3.025.48-5.024-2.613-.257-.406-.503-.79-.748-1.152l2.351-1.387zm-13.554-8.607l16.6-9.759L568 347.306l-.502.299a36.238 36.238 0 00-11.47-4.619 5.776 5.776 0 00-6.948 3.04 27.113 27.113 0 01-3.687 5.173 3.21 3.21 0 01-2.886 1.066 6.35 6.35 0 01-3.773-2.538v.032zm25.226 16.585c-.16-.544-.321-1.066-.47-1.546l1.57.906-1.1.64zM411 408.367l19.24-11.071c-.673 1.312-1.368 2.688-2.138 4.138a247.453 247.453 0 00-6.146 13.247L411 408.367z" fill="#151D23" fill-rule="nonzero"/><path d="M535.253 367.915a128.865 128.865 0 012.589-6.86 8.77 8.77 0 012.888-3.817 7.462 7.462 0 014.28-1.236c1.39 0 2.91 1.129 4.547 3.462.246.366.492.753.749 1.161 2 3.119 3.67 4 5.028 2.635a26.772 26.772 0 001.819-2.15c.62-.829 1.23-1.732 1.819-2.689.984-1.584 2.368.459 4.15 6.129.15.495.311 1.01.471 1.56l.407 1.397L466 426l.963-1.882v.377c.45-1.248.899-2.495 1.359-3.742.642-1.72 1.294-3.448 1.957-5.183a80.487 80.487 0 016.334-12.903c.6-.978 1.22-1.946 1.851-2.903a6.06 6.06 0 013.21-2.473 1.535 1.535 0 011.604.269c.268.215.535.44.77.667a10.34 10.34 0 012.547 4.01 5.148 5.148 0 003.21 3.172.916.916 0 00.909 0 7.102 7.102 0 003.691-3.817 32.664 32.664 0 014.119-7.204 2.337 2.337 0 012.3-.914c.694.138 1.374.336 2.033.591 1.036.515 2.29.11 2.835-.914a45.838 45.838 0 005.157-10.666c.085-.269.16-.527.246-.785a38.57 38.57 0 014.6-9.838c.326-.514.79-.924 1.338-1.183a2.027 2.027 0 012.674.753 35.038 35.038 0 012.568 4.14c.385.72.738 1.45 1.07 2.203a4.559 4.559 0 004.333 3.011c.387-.01.761-.141 1.07-.376a11.085 11.085 0 004.44-6.344c.695-2.075 1.337-4.118 2.065-6.15z" fill="url(#v)"/><path d="M246.767 292.562l-5.576 3.21-4.393 2.545-103.746 59.696L129 347.956l39.611-22.808 47.48-27.333 16.655-9.575 4.404-2.546 5.597-3.21L260.948 272 265 282.056l-18.233 10.506zm-98.575 51.35a3.204 3.204 0 00-3.198-3.209 3.29 3.29 0 00-3.199 3.21 3.204 3.204 0 003.199 3.209c.82.029 1.618-.27 2.218-.832.6-.562.953-1.34.98-2.163v-.214zm-7.57 2.408a3.077 3.077 0 00-2.239-.963 3.29 3.29 0 00-3.199 3.21 3.204 3.204 0 003.199 3.209c.82.029 1.618-.27 2.218-.833.6-.562.953-1.34.98-2.163v-.16a3.086 3.086 0 00-.959-2.268v-.032zm57.79 38.78l55.606-32.04 1.972 4.846L200.385 390l-1.972-4.9z" fill="#202592" fill-rule="nonzero"/><path d="M267.125 355.912l.89 2.141L273 370.441l-79.072 45.345-24.177-59.746 73.496-42.132 4.428-2.548 1.148-.664 18.302 45.216zm-19.643-16.253l-1.983-4.872-55.913 32.121 1.983 4.872 55.913-32.121zm-45.191 54.606l1.983 4.871 55.914-32.067-1.984-4.872-55.913 32.068zm-3.806-8.887l1.983 4.871 55.913-32.067-1.983-4.872-55.913 32.068zm-4.45-9.637l1.984 4.926 55.913-32.122-1.984-4.871-55.913 32.067z" opacity=".62" fill="#F8F5FF" fill-rule="nonzero"/><path d="M247.403 339.894l-55.436 31.867-1.967-4.84L245.437 335l1.966 4.894zm-44.806 54.265l55.436-31.867 1.967 4.841L204.563 399l-1.966-4.841zm-8.185-18.408l55.436-31.867 1.967 4.842-55.437 31.92-1.966-4.895z" fill="#383FDA" fill-rule="nonzero"/><path fill="#E3DAFD" opacity=".34" d="M265.12 282L302 374.185 169.822 450 134 357.815z"/><path d="M640.519 108.517c.25 2.848.41 5.465.481 7.851L420 243a140.705 140.705 0 015.19-37.28c5.913-21.014 15.899-35.559 29.958-43.634 11.663-6.651 20.026-6.01 25.09 1.923a29.526 29.526 0 013.639 9.613c.428 1.998.77 3.984 1.016 5.982l.054.48c.213.182.823 0 1.818-.587.995-.587 1.734-1.944 2.515-4.22a75.734 75.734 0 002.033-8.545 801.16 801.16 0 012.3-11.803c.992-5.305 2.008-10.023 3.05-14.153a139.208 139.208 0 0111.555-30.977 84.74 84.74 0 0123.218-27.773c8.638-6.587 15.896-8.403 21.774-5.448 4.53 2.272 8.506 7.56 11.93 15.863 1.897 4.593 4.198 11.251 6.901 19.975 2.247 6.124 4.53 8.51 6.848 7.156 1.427-.783 3.495-3.56 6.206-8.331 1.633-2.849 4.415-7.994 8.345-15.435a162.023 162.023 0 019.95-16.343c3.96-5.477 7.651-9.197 11.075-11.163 10.778-6.195 18.428.125 22.95 18.96 1.553 7 2.59 14.105 3.104 21.257z" fill="#202592" opacity=".47"/></g></svg>